{"glyphs":{"0":{"ha":1314,"x_min":33,"x_max":1281,"o":"m 489 304 q 425 486 425 368 q 489 667 425 604 q 657 731 553 731 q 824 667 761 731 q 888 486 888 603 q 824 306 888 369 q 657 242 761 242 q 489 304 553 242 m 199 851 q 33 486 33 715 q 197 121 33 256 q 657 -14 361 -14 q 1115 121 951 -14 q 1281 486 1281 257 q 1115 851 1281 715 q 657 986 951 986 q 199 851 363 986 "},"1":{"ha":719,"x_min":10,"x_max":603,"o":"m 235 972 q 172 837 233 886 q 10 788 111 788 l 11 554 q 210 569 122 554 l 215 569 l 215 0 l 603 0 l 603 972 l 235 972 "},"2":{"ha":1192,"x_min":22,"x_max":1158,"o":"m 524 583 q 140 382 258 538 q 74 0 22 226 l 1158 0 l 1158 250 l 469 250 q 531 309 478 285 q 689 357 583 333 q 797 381 785 378 q 899 408 875 401 q 996 447 964 429 q 1142 667 1150 535 q 1005 909 1142 832 q 581 986 868 986 q 365 968 508 986 q 163 939 218 951 l 161 671 l 208 686 q 346 714 246 697 q 526 729 442 729 q 758 671 758 729 q 724 632 758 649 q 647 606 686 615 q 608 598 633 603 q 560 589 582 593 q 524 583 528 585 "},"3":{"ha":1186,"x_min":43,"x_max":1138,"o":"m 885 521 q 1031 611 978 554 q 1085 736 1085 668 q 485 986 1085 986 q 271 976 397 986 q 85 958 132 968 l 85 714 q 249 739 136 725 q 439 753 358 753 q 642 737 585 751 q 700 683 700 722 q 447 600 700 603 l 215 600 l 215 401 q 497 410 346 414 q 683 383 618 407 q 747 319 747 358 q 431 222 747 222 q 219 239 344 222 q 43 272 96 256 l 43 18 q 244 -4 97 7 q 485 -14 379 -14 q 974 58 811 -14 q 1138 282 1138 131 q 1072 421 1138 361 q 885 514 1007 481 l 885 521 "},"4":{"ha":1297,"x_min":-3,"x_max":1264,"o":"m 1092 972 l 733 972 l -3 379 l -3 160 l 704 160 l 704 0 l 1092 0 l 1092 160 l 1264 160 l 1264 413 l 1092 413 l 1092 972 m 394 413 l 394 419 l 699 646 l 704 646 l 704 413 l 394 413 "},"5":{"ha":1215,"x_min":33,"x_max":1182,"o":"m 768 653 q 561 632 668 653 q 383 576 458 614 l 379 579 l 379 717 l 1114 718 l 1114 972 l 44 972 l 44 458 l 192 386 l 247 393 q 388 407 340 403 q 524 414 481 414 q 793 333 793 414 q 715 263 793 286 q 519 239 636 239 q 246 260 388 239 q 42 300 104 282 l 33 301 l 33 39 l 128 25 q 360 0 222 13 q 581 -14 490 -14 q 1031 75 879 -14 q 1182 332 1182 164 q 1118 517 1182 443 q 965 622 1057 590 q 768 653 878 653 "},"6":{"ha":1339,"x_min":51,"x_max":1292,"o":"m 793 739 q 997 721 899 739 q 1132 692 1103 701 l 1183 675 l 1183 936 l 1142 949 q 997 974 1100 961 q 772 986 894 986 q 253 847 454 986 q 51 475 51 708 q 224 115 51 244 q 696 -14 397 -14 q 918 6 814 -14 q 1107 67 1022 26 q 1241 176 1192 107 q 1290 335 1290 244 q 1150 565 1292 483 q 758 647 1010 647 q 467 593 621 647 l 461 597 q 570 700 482 661 q 793 739 658 739 m 679 450 q 903 353 903 450 q 843 276 903 304 q 679 247 783 247 q 518 278 579 247 q 457 354 457 308 q 519 424 457 399 q 679 450 581 450 "},"7":{"ha":1060,"x_min":10,"x_max":1050,"o":"m 10 718 l 610 718 l 610 711 l 78 0 l 514 0 l 1050 754 l 1050 972 l 10 972 l 10 718 "},"8":{"ha":1356,"x_min":49,"x_max":1307,"o":"m 49 276 q 217 63 49 139 q 678 -14 383 -14 q 1138 61 969 -14 q 1306 275 1306 136 q 1237 418 1307 357 q 1038 513 1167 479 l 1038 519 q 1263 725 1263 582 q 1104 917 1263 847 q 678 986 944 986 q 251 918 408 986 q 92 726 94 850 q 318 521 92 585 l 318 513 q 118 419 188 479 q 49 276 49 360 m 678 219 q 495 248 563 219 q 428 322 428 276 q 494 394 428 367 q 678 424 564 424 q 860 394 793 424 q 926 321 926 365 q 858 248 926 276 q 678 219 790 219 m 678 754 q 758 750 721 756 q 878 689 857 735 q 822 619 896 647 q 678 597 765 597 q 533 619 590 597 q 475 676 475 642 q 531 733 475 711 q 678 754 588 756 "},"9":{"ha":1340,"x_min":47,"x_max":1288,"o":"m 546 233 q 340 251 439 233 q 206 279 229 272 l 156 297 l 156 36 l 197 24 q 342 -1 239 11 q 567 -14 444 -14 q 1086 125 885 -14 q 1288 497 1288 264 q 1114 857 1288 728 q 643 986 942 986 q 421 966 525 986 q 232 906 317 946 q 98 797 147 865 q 49 638 49 728 q 188 406 47 488 q 581 325 328 325 q 872 379 718 325 l 878 375 q 769 272 857 311 q 546 233 681 233 m 660 522 q 436 619 436 522 q 496 697 436 668 q 660 725 556 725 q 821 694 760 725 q 882 618 882 664 q 820 548 882 574 q 660 522 758 522 "},"\u0000":{"ha":1008,"x_min":208,"x_max":975,"o":"m 443 178 l 599 178 l 431 347 l 431 354 l 975 354 l 975 794 l 860 794 l 860 468 l 431 468 l 431 475 l 599 644 l 443 644 l 208 411 l 443 178 "}," ":{"ha":486,"x_min":0,"x_max":0,"o":""},"!":{"ha":497,"x_min":33,"x_max":464,"o":"m 99 385 l 411 383 l 464 972 l 33 972 l 99 385 m 451 156 q 397 281 451 235 q 249 326 342 326 q 101 281 156 326 q 46 157 47 236 q 101 32 46 78 q 249 -14 156 -14 q 396 31 342 -14 q 451 156 450 76 "},"\"":{"ha":733,"x_min":33,"x_max":700,"o":"m 56 519 l 307 519 l 329 972 l 33 972 l 56 519 m 426 519 l 678 519 l 700 972 l 404 972 l 426 519 "},"#":{"ha":1426,"x_min":33,"x_max":1393,"o":"m 1393 740 l 1228 740 l 1257 972 l 869 972 l 840 740 l 653 740 l 682 972 l 294 972 l 265 740 l 104 740 l 104 557 l 240 557 l 222 415 l 33 415 l 33 232 l 199 232 l 168 0 l 556 0 l 586 232 l 774 232 l 743 0 l 1131 0 l 1161 232 l 1308 232 l 1308 415 l 1185 415 l 1203 557 l 1393 557 l 1393 740 m 610 415 l 628 557 l 815 557 l 797 415 l 610 415 "},"$":{"ha":1321,"x_min":33,"x_max":1288,"o":"m 694 643 q 494 660 544 653 q 444 690 444 668 q 679 731 444 731 q 943 706 807 731 q 1126 667 1071 685 q 1199 643 1189 647 l 1199 919 l 1143 933 q 979 963 1086 949 q 767 985 881 978 l 767 1140 l 554 1140 l 554 982 q 42 661 42 956 q 104 489 47 551 q 279 394 161 426 q 438 363 367 372 q 629 344 503 354 l 682 340 q 851 322 818 329 q 892 293 892 315 q 628 246 892 246 q 308 288 469 246 q 33 381 144 331 l 33 86 q 269 33 121 60 q 554 -7 433 4 l 554 -168 l 767 -168 l 767 -11 q 1153 90 1018 1 q 1288 328 1288 179 q 1233 494 1288 431 q 1081 586 1188 553 q 842 629 1001 615 q 694 643 736 640 "},"%":{"ha":1565,"x_min":33,"x_max":1532,"o":"m 1197 972 l 906 972 l 365 0 l 657 0 l 1197 972 m 639 701 q 553 906 639 826 q 336 986 468 986 q 119 906 204 986 q 33 701 33 826 q 119 497 33 579 q 336 417 204 417 q 553 497 468 417 q 639 701 639 579 m 1532 271 q 1446 475 1532 393 q 1229 556 1361 556 q 1013 475 1097 556 q 926 271 926 393 q 1013 65 926 147 q 1229 -14 1097 -14 q 1446 65 1361 -14 q 1532 271 1532 147 m 261 771 q 336 799 292 799 q 410 771 381 799 q 440 701 440 743 q 410 632 440 660 q 336 604 381 604 q 261 632 292 604 q 232 701 232 660 q 261 771 232 743 m 1156 201 q 1125 271 1125 229 q 1154 340 1125 313 q 1229 368 1185 368 q 1303 340 1274 368 q 1333 271 1333 313 q 1303 201 1333 229 q 1229 174 1274 174 q 1156 201 1185 174 "},"&":{"ha":1467,"x_min":33,"x_max":1433,"o":"m 1253 285 q 1306 489 1306 383 q 1286 606 1306 556 l 926 606 l 933 590 q 954 488 954 546 q 938 378 954 435 l 931 375 q 807 463 860 415 q 674 661 674 578 q 720 731 674 710 q 864 753 767 753 q 1104 715 981 753 l 1104 946 q 744 986 882 986 q 590 973 664 986 q 450 931 517 960 q 344 847 383 901 q 304 717 304 792 q 324 619 304 674 l 321 614 q 115 531 196 599 q 33 335 33 464 q 210 79 33 172 q 661 -14 386 -14 q 1010 58 864 -14 l 1014 58 q 1292 -14 1185 -14 q 1433 18 1353 -14 l 1433 308 q 1257 279 1349 282 l 1253 285 m 661 194 q 469 240 556 194 q 386 363 386 289 q 425 456 386 421 l 431 456 q 607 293 499 376 q 731 207 704 224 q 729 200 729 206 q 661 194 692 194 "},"'":{"ha":363,"x_min":33,"x_max":329,"o":"m 56 519 l 307 519 l 329 972 l 33 972 l 56 519 "},"(":{"ha":672,"x_min":33,"x_max":639,"o":"m 639 132 q 478 270 535 179 q 422 486 422 361 q 639 839 422 743 l 517 1076 q 160 858 286 1010 q 33 488 33 707 q 160 114 33 265 q 518 -104 286 -37 l 639 132 "},")":{"ha":672,"x_min":33,"x_max":639,"o":"m 154 -104 q 513 114 386 -37 q 639 488 639 265 q 513 858 639 707 q 156 1076 386 1010 l 33 839 q 250 486 250 743 q 194 270 250 361 q 33 132 138 179 l 154 -104 "},"*":{"ha":858,"x_min":33,"x_max":825,"o":"m 719 865 l 522 731 l 517 735 l 533 972 l 325 972 l 342 735 l 336 731 l 138 865 l 33 685 l 249 581 l 249 572 l 33 468 l 138 288 l 335 422 l 342 418 l 325 181 l 533 181 l 517 418 l 522 422 l 719 288 l 825 468 l 610 572 l 610 581 l 825 685 l 719 865 "},"+":{"ha":1056,"x_min":33,"x_max":1022,"o":"m 672 614 l 672 883 l 385 883 l 385 614 l 33 614 l 33 358 l 385 358 l 385 89 l 672 89 l 672 358 l 1022 358 l 1022 614 l 672 614 "},",":{"ha":492,"x_min":33,"x_max":458,"o":"m 92 295 q 33 164 33 247 q 87 35 33 85 q 217 -14 140 -14 l 211 -28 q 128 -99 186 -74 l 225 -221 q 388 -86 318 -186 q 458 136 456 11 q 400 288 458 232 q 246 343 342 343 q 121 319 150 343 q 92 295 92 295 "},"-":{"ha":854,"x_min":33,"x_max":821,"o":"m 821 358 l 821 614 l 33 614 l 33 358 l 821 358 "},".":{"ha":493,"x_min":33,"x_max":460,"o":"m 460 165 q 402 298 460 250 q 247 346 344 346 q 92 299 151 346 q 33 167 33 250 q 92 33 33 81 q 247 -14 151 -14 q 401 34 343 -14 q 460 165 460 82 "},"/":{"ha":936,"x_min":10,"x_max":926,"o":"m 926 972 l 550 972 l 10 0 l 386 0 l 926 972 "},":":{"ha":493,"x_min":33,"x_max":460,"o":"m 460 632 q 402 765 460 717 q 247 813 344 813 q 92 765 151 813 q 33 633 33 717 q 92 500 33 547 q 247 453 151 453 q 401 501 343 453 q 460 632 460 549 m 460 165 q 402 298 460 250 q 247 346 344 346 q 92 299 151 346 q 33 167 33 250 q 92 33 33 81 q 247 -14 151 -14 q 401 34 343 -14 q 460 165 460 82 "},";":{"ha":493,"x_min":33,"x_max":460,"o":"m 93 295 q 35 164 35 247 q 88 35 35 85 q 218 -14 142 -14 l 211 -28 q 182 -65 206 -43 q 129 -99 158 -86 l 226 -221 q 389 -86 319 -186 q 460 136 457 11 q 401 288 460 232 q 247 343 343 343 q 122 319 151 343 q 93 295 93 295 m 460 632 q 402 765 460 717 q 247 813 344 813 q 92 765 151 813 q 33 633 33 717 q 92 500 33 547 q 247 453 151 453 q 401 501 343 453 q 460 632 460 549 "},"<":{"ha":860,"x_min":33,"x_max":826,"o":"m 33 660 l 33 313 l 826 72 l 826 400 l 363 482 l 363 490 l 826 572 l 826 900 l 33 660 "},"=":{"ha":1056,"x_min":33,"x_max":1022,"o":"m 1022 175 l 1022 435 l 33 435 l 33 175 l 1022 175 m 1022 542 l 1022 797 l 33 797 l 33 542 l 1022 542 "},">":{"ha":860,"x_min":33,"x_max":826,"o":"m 33 572 l 497 490 l 497 482 l 33 400 l 33 72 l 826 313 l 826 660 l 33 900 l 33 572 "},"?":{"ha":1025,"x_min":33,"x_max":992,"o":"m 444 986 q 226 969 335 986 q 85 944 119 956 q 33 929 63 939 l 33 683 l 89 700 q 246 731 153 717 q 444 747 347 747 q 567 725 521 747 q 614 669 614 703 q 590 620 614 638 q 494 593 567 603 q 286 583 422 583 l 326 383 l 638 383 l 657 464 q 910 548 829 488 q 990 717 990 608 q 842 914 992 843 q 444 986 696 986 m 334 282 q 279 157 279 236 q 334 33 279 78 q 482 -14 389 -12 q 629 32 575 -14 q 683 157 683 78 q 630 282 685 236 q 482 328 575 328 q 361 305 389 328 q 334 282 334 282 "},"@":{"ha":1601,"x_min":40,"x_max":1558,"o":"m 925 386 q 880 307 922 338 q 778 276 838 276 q 683 306 719 276 q 649 386 647 336 q 689 465 650 435 q 788 496 728 496 q 887 465 847 496 q 925 386 926 435 m 822 986 q 274 831 482 988 q 56 388 68 675 q 238 -56 40 101 q 775 -214 433 -214 q 999 -199 874 -214 q 1192 -154 1114 -185 l 1193 -36 q 1014 -86 1128 -65 q 781 -107 900 -107 q 321 24 481 -107 q 172 388 161 154 q 351 753 183 625 q 817 879 518 881 q 1279 749 1119 879 q 1429 385 1439 618 q 1401 250 1425 296 q 1321 204 1376 204 q 1217 328 1214 204 l 1235 667 l 965 667 l 936 586 l 929 586 q 838 667 899 636 q 706 697 776 697 q 457 614 556 697 q 354 386 361 532 q 436 158 347 242 q 674 75 524 75 q 813 106 747 75 q 915 185 878 138 l 922 185 q 1018 101 958 131 q 1204 74 1082 74 q 1460 151 1381 74 q 1546 385 1539 228 q 1361 828 1558 672 q 822 986 1164 986 "},"A":{"ha":1432,"x_min":-6,"x_max":1438,"o":"m 438 972 l -6 0 l 408 0 l 471 149 l 960 149 l 1022 0 l 1438 0 l 993 972 l 438 972 m 711 714 l 719 714 l 857 389 l 574 389 l 711 714 "},"B":{"ha":1456,"x_min":107,"x_max":1397,"o":"m 1168 503 q 1349 724 1349 558 q 1244 910 1349 847 q 915 972 1140 972 l 107 972 l 107 0 l 963 0 q 1294 64 1190 0 q 1397 257 1397 128 q 1168 496 1397 447 l 1168 503 m 494 232 l 494 401 l 856 401 q 990 317 990 401 q 856 232 990 232 l 494 232 m 808 740 q 942 665 942 740 q 808 589 942 589 l 494 589 l 494 740 l 808 740 "},"C":{"ha":1297,"x_min":53,"x_max":1258,"o":"m 1257 350 q 1088 272 1217 303 q 844 242 961 242 q 549 305 657 242 q 442 486 442 368 q 548 669 442 607 q 844 731 654 731 q 1074 700 953 731 q 1232 628 1197 668 l 1232 936 q 803 986 1074 986 q 240 857 426 986 q 53 486 53 728 q 240 115 53 244 q 803 -14 426 -14 q 1050 0 924 -14 q 1258 39 1179 14 l 1257 350 "},"D":{"ha":1465,"x_min":107,"x_max":1413,"o":"m 107 0 l 778 0 q 1247 129 1083 0 q 1413 486 1413 261 q 1247 842 1413 713 q 778 972 1083 972 l 107 972 l 107 0 m 758 717 q 951 657 882 717 q 1019 486 1019 597 q 951 315 1019 375 q 758 256 882 256 l 494 256 l 494 717 l 758 717 "},"E":{"ha":1393,"x_min":107,"x_max":1318,"o":"m 494 256 l 494 382 l 1208 382 l 1208 601 l 494 601 l 494 717 l 1303 717 l 1303 972 l 107 972 l 107 0 l 1318 0 l 1318 256 l 494 256 "},"F":{"ha":1343,"x_min":107,"x_max":1303,"o":"m 1208 285 l 1208 526 l 494 526 l 494 717 l 1303 717 l 1303 972 l 107 972 l 107 0 l 494 0 l 494 285 l 1208 285 "},"G":{"ha":1365,"x_min":46,"x_max":1314,"o":"m 803 -14 q 1075 15 914 -14 q 1314 82 1235 46 l 1314 563 l 688 563 l 688 369 l 928 369 l 928 244 q 839 236 875 236 q 546 299 647 236 q 444 486 444 363 q 844 731 444 731 q 1244 665 1082 731 l 1244 929 q 803 986 1019 986 q 236 856 426 986 q 46 486 46 726 q 236 116 46 246 q 803 -14 426 -14 "},"H":{"ha":1454,"x_min":107,"x_max":1347,"o":"m 960 344 l 960 0 l 1347 0 l 1347 972 l 960 972 l 960 628 l 494 628 l 494 972 l 107 972 l 107 0 l 494 0 l 494 344 l 960 344 "},"I":{"ha":601,"x_min":107,"x_max":494,"o":"m 107 972 l 107 0 l 494 0 l 494 972 l 107 972 "},"J":{"ha":579,"x_min":-124,"x_max":481,"o":"m 90 75 q -124 -60 90 -60 l -124 -293 l -90 -293 q 46 -292 17 -293 q 164 -285 83 -292 q 274 -264 238 -279 q 357 -222 308 -250 q 424 -161 403 -199 q 464 -54 444 -124 q 481 86 481 6 l 481 972 l 90 972 l 90 75 "},"K":{"ha":1414,"x_min":107,"x_max":1428,"o":"m 671 344 l 967 0 l 1428 0 l 947 574 l 1385 972 l 901 972 l 501 597 l 494 597 l 494 972 l 107 972 l 107 0 l 494 0 l 494 192 l 671 344 "},"L":{"ha":1281,"x_min":107,"x_max":1264,"o":"m 494 256 l 494 972 l 107 972 l 107 0 l 1264 0 l 1264 256 l 494 256 "},"M":{"ha":1810,"x_min":107,"x_max":1703,"o":"m 908 385 l 901 385 l 601 972 l 107 972 l 107 0 l 489 0 l 489 513 l 496 513 l 747 0 l 1061 0 l 1314 513 l 1321 513 l 1321 0 l 1703 0 l 1703 972 l 1208 972 l 908 385 "},"N":{"ha":1449,"x_min":107,"x_max":1342,"o":"m 971 503 l 964 503 l 479 972 l 107 972 l 107 0 l 479 0 l 479 465 l 486 465 l 964 0 l 1342 0 l 1342 972 l 971 972 l 971 503 "},"O":{"ha":1444,"x_min":46,"x_max":1399,"o":"m 722 242 q 513 306 590 242 q 436 486 436 369 q 513 667 436 603 q 722 731 590 731 q 930 667 853 731 q 1007 486 1007 603 q 930 306 1007 369 q 722 242 853 242 m 225 851 q 46 486 46 717 q 225 121 46 257 q 722 -14 403 -14 q 1219 121 1042 -14 q 1399 486 1399 256 q 1219 851 1399 717 q 722 986 1042 986 q 225 851 403 986 "},"P":{"ha":1376,"x_min":107,"x_max":1350,"o":"m 806 246 q 1224 338 1097 246 q 1350 608 1350 431 q 1224 879 1350 788 q 806 972 1097 972 l 107 972 l 107 0 l 494 0 l 494 246 l 806 246 m 803 717 q 922 690 879 717 q 964 610 964 663 q 922 529 964 557 q 803 501 879 501 l 494 501 l 494 717 l 803 717 "},"Q":{"ha":1417,"x_min":53,"x_max":1364,"o":"m 1099 104 q 1292 269 1221 168 q 1364 486 1364 369 q 1193 851 1364 718 q 708 986 1025 986 q 222 851 392 986 q 53 486 53 718 q 160 181 53 303 q 471 10 267 58 q 1218 -183 685 -43 l 1281 75 l 1100 97 l 1099 104 m 708 242 q 504 305 576 242 q 432 486 432 368 q 505 667 432 603 q 708 731 578 731 q 911 667 839 731 q 983 486 983 603 q 911 305 983 368 q 708 242 839 242 "},"R":{"ha":1421,"x_min":107,"x_max":1400,"o":"m 494 521 l 494 718 l 803 718 q 922 693 879 718 q 964 619 964 668 q 922 546 964 571 q 803 521 879 521 l 494 521 m 1346 181 q 1300 342 1331 294 q 1150 422 1263 404 l 1150 429 q 1350 676 1350 503 q 1220 899 1350 825 q 804 972 1090 972 l 107 972 l 107 0 l 494 0 l 494 290 l 786 290 q 897 263 860 290 q 940 178 933 235 q 982 0 950 49 l 1400 0 q 1365 64 1375 29 q 1346 181 1357 92 "},"S":{"ha":1321,"x_min":33,"x_max":1288,"o":"m 1288 328 q 1233 494 1288 431 q 1081 586 1188 553 q 842 629 1001 615 q 694 643 736 640 q 497 661 540 654 q 444 693 444 672 q 679 740 444 740 q 951 717 813 740 q 1131 681 1096 692 q 1199 658 1182 665 l 1199 919 l 1131 936 q 933 969 1061 953 q 683 986 804 986 q 232 921 408 986 q 42 661 42 850 q 104 489 47 551 q 279 394 161 426 q 438 363 367 372 q 629 344 503 354 q 842 324 792 332 q 892 290 892 315 q 628 239 892 239 q 311 276 490 239 q 33 360 133 314 l 33 81 q 336 14 143 43 q 683 -14 535 -14 q 1131 76 974 -14 q 1288 328 1288 167 "},"T":{"ha":1161,"x_min":4,"x_max":1157,"o":"m 4 717 l 388 717 l 388 0 l 775 0 l 775 717 l 1157 717 l 1157 972 l 4 972 l 4 717 "},"U":{"ha":1429,"x_min":94,"x_max":1335,"o":"m 1173 112 q 1335 460 1335 238 l 1335 972 l 947 972 l 947 472 q 886 301 947 361 q 715 242 825 242 q 543 301 604 242 q 482 472 482 361 l 482 972 l 94 972 l 94 456 q 257 111 96 239 q 714 -14 417 -14 q 1092 49 1011 -14 q 1173 112 1173 112 "},"V":{"ha":1432,"x_min":-6,"x_max":1438,"o":"m 1438 972 l 1015 972 l 719 297 l 713 297 l 415 972 l -6 972 l 438 0 l 993 0 l 1438 972 "},"W":{"ha":1840,"x_min":13,"x_max":1828,"o":"m 1276 393 l 1269 393 l 1099 972 l 740 972 l 571 393 l 563 393 l 411 972 l 13 972 l 281 0 l 756 0 l 917 494 l 924 494 l 1083 0 l 1558 0 l 1828 972 l 1428 972 l 1276 393 "},"X":{"ha":1344,"x_min":-1,"x_max":1347,"o":"m 669 303 l 675 303 l 915 0 l 1347 0 l 938 500 l 938 504 l 1333 972 l 901 972 l 676 696 l 669 696 l 444 972 l 13 972 l 407 504 l 407 500 l -1 0 l 431 0 l 669 303 "},"Y":{"ha":1438,"x_min":-3,"x_max":1440,"o":"m 421 972 l -3 972 l 525 326 l 525 0 l 913 0 l 913 325 l 1440 972 l 1015 972 l 722 606 l 715 606 l 421 972 "},"Z":{"ha":1267,"x_min":26,"x_max":1238,"o":"m 611 256 l 611 263 l 1206 744 l 1206 972 l 68 972 l 68 717 l 610 717 l 610 710 l 26 228 l 26 0 l 1238 0 l 1238 256 l 611 256 "},"[":{"ha":724,"x_min":117,"x_max":690,"o":"m 504 256 l 504 717 l 690 717 l 690 972 l 117 972 l 117 0 l 690 0 l 690 256 l 504 256 "},"\\":{"ha":936,"x_min":10,"x_max":926,"o":"m 926 0 l 386 972 l 10 972 l 550 0 l 926 0 "},"]":{"ha":724,"x_min":33,"x_max":607,"o":"m 33 0 l 607 0 l 607 972 l 33 972 l 33 717 l 219 717 l 219 256 l 33 256 l 33 0 "},"^":{"ha":922,"x_min":33,"x_max":889,"o":"m 246 972 l 33 250 l 361 250 l 457 676 l 465 676 l 561 250 l 889 250 l 676 972 l 246 972 "},"_":{"ha":893,"x_min":-32,"x_max":925,"o":"m 925 -256 l 925 0 l -32 0 l -32 -256 l 925 -256 "},"`":{"ha":638,"x_min":33,"x_max":604,"o":"m 33 1079 l 363 879 l 604 879 l 438 1079 l 33 1079 "},"a":{"ha":1174,"x_min":46,"x_max":1089,"o":"m 549 753 q 300 738 450 753 q 114 703 160 724 l 114 450 q 272 499 156 476 q 490 522 394 522 q 650 490 596 522 q 704 407 704 457 l 704 401 q 433 439 597 439 q 150 381 254 439 q 46 215 46 322 q 143 47 46 107 q 396 -14 242 -14 q 728 99 642 -14 l 735 99 l 765 0 l 1089 0 l 1089 454 q 549 753 1089 753 m 701 281 q 543 165 699 165 q 419 235 419 165 q 574 308 419 308 q 701 283 642 308 l 701 281 "},"b":{"ha":1292,"x_min":96,"x_max":1246,"o":"m 816 252 q 672 213 764 213 q 529 252 581 213 q 478 365 478 292 q 529 478 478 439 q 672 517 581 517 q 816 478 764 517 q 868 365 868 439 q 842 272 868 292 q 816 252 816 252 m 822 753 q 481 617 596 753 l 474 617 l 474 1014 l 96 1014 l 96 0 l 432 0 l 463 128 l 469 128 q 822 -14 575 -14 q 1135 85 1025 -14 q 1246 365 1246 185 q 1134 649 1246 546 q 822 753 1022 753 "},"c":{"ha":1086,"x_min":46,"x_max":1040,"o":"m 1040 279 q 901 238 1007 258 q 704 218 793 218 q 499 256 571 218 q 428 368 428 294 q 499 482 428 443 q 704 521 571 521 q 872 501 775 521 q 1011 460 965 483 l 1011 722 q 656 751 903 751 q 200 653 354 751 q 46 368 46 554 q 200 85 46 183 q 656 -14 354 -14 q 867 -6 742 -14 q 1040 17 996 3 l 1040 279 "},"d":{"ha":1292,"x_min":46,"x_max":1196,"o":"m 469 753 q 158 649 269 753 q 46 365 46 546 q 156 85 46 185 q 469 -14 267 -14 q 822 128 717 -14 l 829 128 l 860 0 l 1196 0 l 1196 1014 l 818 1014 l 818 617 l 811 617 q 469 753 696 753 m 476 478 q 619 517 528 517 q 763 478 711 517 q 814 365 814 439 q 763 252 814 292 q 619 213 711 213 q 476 252 528 213 q 424 365 424 292 q 450 458 424 439 q 476 478 476 478 "},"e":{"ha":1183,"x_min":46,"x_max":1140,"o":"m 1140 368 q 998 651 1140 550 q 594 753 856 753 q 189 649 332 753 q 46 368 46 547 q 194 88 46 190 q 611 -14 342 -14 q 1085 26 931 -14 l 1085 261 q 725 215 935 215 q 454 301 499 215 l 1139 301 l 1140 368 m 449 426 q 498 506 458 476 q 593 535 538 535 q 738 426 722 535 l 449 426 "},"f":{"ha":942,"x_min":10,"x_max":924,"o":"m 835 849 q 924 847 917 849 l 924 1051 q 768 1054 835 1054 q 228 789 228 1054 l 228 739 l 10 739 l 10 522 l 228 522 l 228 0 l 606 0 l 606 522 l 924 522 l 924 739 l 604 739 q 662 822 607 796 q 835 849 717 849 "},"g":{"ha":1292,"x_min":46,"x_max":1196,"o":"m 832 607 l 825 607 q 469 753 719 753 q 156 653 267 753 q 46 374 46 554 q 158 90 46 193 q 469 -14 269 -14 q 819 125 710 -14 l 826 125 l 826 100 q 560 -71 826 -71 q 114 0 294 -71 l 114 -244 q 333 -278 185 -262 q 618 -293 490 -293 q 1040 -210 886 -293 q 1196 49 1196 -126 l 1196 739 l 860 739 l 832 607 m 763 257 q 619 218 711 218 q 476 257 528 218 q 424 369 424 296 q 476 483 424 443 q 619 522 528 522 q 763 483 711 522 q 814 369 814 443 q 788 276 814 296 q 763 257 763 257 "},"h":{"ha":1331,"x_min":96,"x_max":1242,"o":"m 818 753 q 481 631 590 753 l 474 631 l 474 1014 l 96 1014 l 96 0 l 474 0 l 474 381 q 526 485 474 449 q 668 522 578 522 q 812 485 761 522 q 863 374 863 447 l 863 0 l 1242 0 l 1242 374 q 1131 653 1242 554 q 818 753 1021 753 "},"i":{"ha":583,"x_min":79,"x_max":483,"o":"m 93 0 l 471 0 l 471 739 l 93 739 l 93 0 m 281 807 q 428 851 374 806 q 483 976 483 897 q 429 1101 483 1056 q 282 1147 375 1147 q 134 1101 189 1147 q 79 976 79 1056 q 133 852 79 897 q 281 807 188 807 "},"j":{"ha":590,"x_min":-128,"x_max":490,"o":"m 88 76 q -128 -58 88 -58 l -128 -292 l -94 -292 q 42 -290 13 -292 q 157 -283 76 -290 q 264 -262 231 -276 q 346 -221 294 -250 q 410 -160 389 -197 q 449 -53 431 -122 q 465 88 465 8 l 465 738 l 88 738 l 88 76 m 276 804 q 433 852 375 804 q 490 976 490 900 q 433 1101 490 1053 q 276 1150 375 1150 q 118 1101 175 1150 q 61 976 61 1053 q 118 852 61 900 q 276 804 175 804 "},"k":{"ha":1267,"x_min":96,"x_max":1282,"o":"m 1282 0 l 878 463 l 1254 739 l 781 739 l 474 479 l 474 1014 l 96 1014 l 96 0 l 474 0 l 474 138 l 603 254 l 817 0 l 1282 0 "},"l":{"ha":578,"x_min":100,"x_max":478,"o":"m 100 0 l 478 0 l 478 1014 l 100 1014 l 100 0 "},"m":{"ha":1929,"x_min":96,"x_max":1840,"o":"m 1458 753 q 1115 596 1210 753 l 1108 596 q 775 753 1022 753 q 464 614 549 753 l 457 614 l 432 739 l 96 739 l 96 0 l 474 0 l 474 382 q 625 522 474 522 q 740 483 701 522 q 778 374 778 443 l 778 0 l 1157 0 l 1157 371 q 1308 522 1157 522 q 1423 483 1385 522 q 1461 374 1461 443 l 1461 0 l 1840 0 l 1840 374 q 1458 753 1840 753 "},"n":{"ha":1331,"x_min":96,"x_max":1242,"o":"m 818 753 q 465 610 571 753 l 458 610 l 432 739 l 96 739 l 96 0 l 474 0 l 474 379 q 526 484 475 447 q 668 521 578 521 q 813 483 761 521 q 864 374 864 446 l 864 0 l 1242 0 l 1242 374 q 1131 653 1242 553 q 818 753 1021 753 "},"o":{"ha":1200,"x_min":46,"x_max":1154,"o":"m 775 369 q 728 258 775 297 q 600 218 682 218 q 470 257 517 218 q 424 369 424 296 q 470 483 424 443 q 600 522 517 522 q 728 483 682 522 q 775 369 775 443 m 191 88 q 600 -14 336 -14 q 1008 88 863 -14 q 1154 369 1154 189 q 1009 651 1154 550 q 600 753 864 753 q 191 651 336 753 q 46 369 46 550 q 118 138 46 189 q 191 88 191 88 "},"p":{"ha":1292,"x_min":96,"x_max":1246,"o":"m 822 -14 q 1134 90 1022 -14 q 1246 374 1246 193 q 1135 653 1246 554 q 822 753 1025 753 q 469 611 575 753 l 463 611 l 432 739 l 96 739 l 96 -279 l 474 -279 l 474 122 l 481 122 q 822 -14 596 -14 m 816 261 q 672 222 764 222 q 529 261 581 222 q 478 374 478 300 q 529 487 478 447 q 672 526 581 526 q 816 487 764 526 q 868 374 868 447 q 842 281 868 300 q 816 261 816 261 "},"q":{"ha":1292,"x_min":46,"x_max":1196,"o":"m 476 487 q 619 526 528 526 q 763 487 711 526 q 814 374 814 447 q 763 261 814 300 q 619 222 711 222 q 476 261 528 222 q 424 374 424 300 q 450 467 424 447 q 476 487 476 487 m 469 -14 q 811 122 696 -14 l 818 122 l 818 -279 l 1196 -279 l 1196 739 l 860 739 l 829 611 l 822 611 q 469 753 717 753 q 156 653 267 753 q 46 374 46 554 q 158 90 46 193 q 469 -14 269 -14 "},"r":{"ha":842,"x_min":96,"x_max":817,"o":"m 461 597 l 432 739 l 96 739 l 96 0 l 474 0 l 474 293 q 503 378 475 342 q 574 432 532 414 q 665 461 617 450 q 752 469 713 472 q 817 463 792 467 l 817 753 q 468 597 569 753 l 461 597 "},"s":{"ha":1058,"x_min":28,"x_max":1031,"o":"m 561 494 q 538 496 547 494 q 419 503 446 499 q 393 524 393 508 q 569 551 393 551 q 958 497 753 551 l 958 714 q 531 753 804 753 q 158 688 289 753 q 28 504 28 622 q 154 322 28 385 q 501 251 281 263 q 629 242 597 249 q 661 218 661 235 q 637 199 661 203 q 532 194 613 194 q 31 269 267 194 l 31 44 q 535 -14 297 -14 q 938 67 831 -14 q 1031 254 1031 138 q 913 427 1031 369 q 561 494 794 485 "},"t":{"ha":961,"x_min":15,"x_max":946,"o":"m 829 219 q 667 253 713 219 q 621 369 621 286 l 621 522 l 913 522 l 913 739 l 621 739 l 621 972 l 243 972 l 243 739 l 15 739 l 15 522 l 243 522 l 243 353 q 299 126 249 203 q 458 18 349 49 q 607 -8 532 -1 q 793 -14 672 -14 q 946 -1 863 -14 l 946 231 l 829 219 "},"u":{"ha":1331,"x_min":89,"x_max":1235,"o":"m 513 -14 q 865 129 760 -14 l 872 129 l 899 0 l 1235 0 l 1235 739 l 857 739 l 857 360 q 804 255 856 292 q 663 218 753 218 q 518 256 569 218 q 467 365 467 293 l 467 739 l 89 739 l 89 365 q 199 86 89 186 q 513 -14 310 -14 "},"v":{"ha":1249,"x_min":1,"x_max":1247,"o":"m 628 292 l 621 292 l 425 739 l 1 739 l 372 0 l 879 0 l 1247 739 l 824 739 l 628 292 "},"w":{"ha":1694,"x_min":14,"x_max":1681,"o":"m 1167 319 l 1158 319 l 1019 739 l 675 739 l 536 319 l 529 319 l 406 739 l 14 739 l 272 0 l 722 0 l 844 335 l 851 335 l 974 0 l 1422 0 l 1681 739 l 1289 739 l 1167 319 "},"x":{"ha":1258,"x_min":6,"x_max":1253,"o":"m 910 382 l 910 388 l 1225 739 l 788 739 l 632 542 l 626 542 l 471 739 l 33 739 l 350 389 l 350 383 l 6 0 l 443 0 l 626 215 l 632 215 l 815 0 l 1253 0 l 910 382 "},"y":{"ha":1249,"x_min":1,"x_max":1247,"o":"m 642 382 l 636 382 l 425 739 l 1 739 l 469 47 l 310 -279 l 682 -279 l 1247 739 l 824 739 l 642 382 "},"z":{"ha":1072,"x_min":22,"x_max":1050,"o":"m 1004 550 l 1004 739 l 57 739 l 57 508 l 442 508 l 442 501 l 22 189 l 22 0 l 1050 0 l 1050 231 l 597 231 l 597 238 l 1004 550 "},"{":{"ha":728,"x_min":33,"x_max":694,"o":"m 536 310 q 506 419 536 372 q 415 482 476 467 l 415 490 q 506 553 476 506 q 536 663 536 600 q 566 760 536 731 q 639 793 596 790 q 694 789 660 794 l 693 1051 q 511 1081 594 1083 q 253 1003 340 1081 q 167 786 167 926 q 136 631 167 682 q 33 582 106 581 l 33 390 q 136 341 106 392 q 167 186 167 290 q 253 -31 167 46 q 511 -108 340 -108 q 693 -79 594 -111 l 694 183 l 686 181 q 649 178 674 175 q 599 188 624 181 q 555 226 574 194 q 536 310 536 258 "},"|":{"ha":538,"x_min":117,"x_max":421,"o":"m 117 -78 l 421 -78 l 421 1050 l 117 1050 l 117 -78 "},"}":{"ha":728,"x_min":33,"x_max":694,"o":"m 192 310 q 161 211 192 240 q 88 179 131 182 q 33 183 68 178 l 35 -79 q 217 -108 133 -111 q 474 -31 388 -108 q 561 186 561 46 q 592 341 561 290 q 694 390 622 392 l 694 582 q 592 631 622 581 q 561 786 561 682 q 474 1003 561 926 q 217 1081 388 1081 q 35 1051 133 1083 l 33 789 l 42 792 q 79 794 54 797 q 129 785 104 792 q 173 746 154 778 q 192 663 192 714 q 222 553 192 600 q 313 490 251 506 l 313 482 q 222 419 251 467 q 192 310 192 372 "},"~":{"ha":985,"x_min":33,"x_max":951,"o":"m 131 317 q 314 375 211 378 q 506 344 396 374 q 814 322 671 301 q 951 376 900 336 l 854 656 q 671 597 772 594 q 479 628 589 599 q 169 649 313 672 q 33 596 86 636 l 131 317 "}," ":{"ha":0,"x_min":0,"x_max":0,"o":""},"¡":{"ha":497,"x_min":33,"x_max":464,"o":"m 464 -14 l 411 575 l 99 574 l 33 -14 l 464 -14 m 46 801 q 101 677 47 722 q 249 632 156 632 q 397 678 342 632 q 451 803 451 724 q 396 927 450 882 q 249 972 342 972 q 101 926 156 972 q 46 801 46 881 "},"¢":{"ha":1049,"x_min":33,"x_max":1015,"o":"m 728 118 q 1015 146 957 129 l 1015 399 q 878 358 981 379 q 683 339 769 339 q 481 375 551 339 q 410 482 410 411 q 481 589 410 553 q 683 625 551 625 q 849 606 754 625 q 988 565 946 586 l 988 818 q 728 846 908 838 l 728 972 l 515 972 l 515 843 q 155 733 276 825 q 33 482 33 640 q 154 231 33 322 q 515 121 275 139 l 515 0 l 728 0 l 728 118 "},"£":{"ha":1254,"x_min":33,"x_max":1221,"o":"m 561 256 l 561 263 q 607 386 606 315 l 607 390 l 1103 390 l 1101 608 l 607 608 l 607 669 q 653 725 607 703 q 776 747 700 747 q 1186 683 993 747 l 1188 931 l 1139 944 q 989 972 1100 957 q 776 986 892 986 q 378 914 526 986 q 231 717 229 843 l 231 608 l 33 608 l 33 390 l 231 390 l 231 353 q 186 261 231 290 q 96 233 142 233 l 96 0 l 1221 0 l 1221 256 l 561 256 "},"¤":{"ha":1097,"x_min":33,"x_max":1064,"o":"m 710 801 q 388 801 549 839 l 201 971 l 33 786 l 175 657 q 132 486 132 585 q 175 315 132 388 l 33 186 l 201 1 l 388 171 q 710 171 549 133 l 897 1 l 1064 186 l 922 315 q 967 486 967 389 q 922 657 967 583 l 1064 786 l 897 971 l 710 801 m 413 486 q 449 576 413 544 q 549 608 485 608 q 649 576 613 608 q 685 486 685 544 q 649 394 685 426 q 549 364 614 364 q 449 396 485 364 q 413 457 413 428 q 413 486 413 486 "},"¥":{"ha":1510,"x_min":33,"x_max":1476,"o":"m 1476 972 l 1051 972 l 758 606 l 751 606 l 457 972 l 33 972 l 479 426 l 479 419 l 221 419 l 221 306 l 561 306 l 561 254 l 221 254 l 221 140 l 561 140 l 561 0 l 949 0 l 949 140 l 1289 140 l 1289 254 l 949 254 l 949 306 l 1289 306 l 1289 419 l 1031 419 l 1031 426 l 1476 972 "},"¦":{"ha":549,"x_min":117,"x_max":432,"o":"m 117 371 l 117 -60 l 432 -60 l 432 371 l 117 371 m 432 610 l 432 1032 l 117 1032 l 117 610 l 432 610 "},"§":{"ha":1072,"x_min":33,"x_max":1039,"o":"m 571 331 q 415 344 458 331 q 371 388 371 357 q 501 433 371 433 q 701 376 701 433 q 571 331 701 331 m 1039 429 q 572 692 1039 669 q 451 702 481 696 q 421 726 421 708 q 614 757 421 757 q 803 740 714 757 q 921 715 894 725 q 963 700 942 708 l 963 939 l 914 950 q 758 974 858 964 q 544 986 654 986 q 175 913 319 986 q 33 711 33 839 q 119 522 33 592 q 33 335 33 440 q 501 72 33 94 q 622 62 593 68 q 651 38 651 56 q 460 7 651 7 q 110 53 283 7 l 110 -186 l 174 -194 q 342 -212 231 -204 q 529 -222 440 -222 q 897 -149 754 -222 q 1039 53 1039 -75 q 954 242 1039 174 q 1039 429 1039 322 "},"¨":{"ha":792,"x_min":33,"x_max":758,"o":"m 78 1102 q 33 1004 33 1067 q 78 906 33 942 q 200 871 124 871 q 322 906 276 871 q 367 1004 367 942 q 322 1102 367 1067 q 200 1138 276 1138 q 101 1120 124 1138 q 78 1102 78 1102 m 471 1102 q 426 1004 426 1067 q 470 906 425 942 q 592 871 515 871 q 713 906 668 871 q 758 1004 758 942 q 713 1102 758 1067 q 592 1138 668 1138 q 493 1120 515 1138 q 471 1102 471 1102 "},"©":{"ha":1154,"x_min":33,"x_max":1121,"o":"m 482 486 q 524 560 482 538 q 633 582 567 583 q 764 560 711 582 l 764 700 q 621 719 683 719 q 383 658 471 719 q 294 486 294 596 q 382 315 294 376 q 619 253 469 253 q 792 274 722 253 l 792 415 q 632 386 733 386 q 482 486 482 389 m 578 811 q 867 725 761 811 q 972 486 972 639 q 867 247 972 333 q 576 161 761 161 q 286 247 392 161 q 181 486 181 333 q 287 725 181 639 q 578 811 393 811 m 1121 486 q 975 818 1121 697 q 578 940 832 940 q 179 819 325 940 q 33 486 33 699 q 178 153 33 276 q 576 32 324 32 q 975 153 829 32 q 1121 486 1121 274 "},"ª":{"ha":665,"x_min":33,"x_max":632,"o":"m 322 986 q 181 975 272 986 q 72 956 93 964 l 72 813 q 163 840 97 828 q 289 854 228 854 q 380 835 349 854 q 411 788 411 815 l 411 785 q 256 807 353 807 q 94 773 154 807 q 33 678 33 739 q 89 582 33 617 q 235 547 144 547 q 425 611 378 547 l 429 611 l 447 554 l 632 554 l 632 815 q 322 986 632 986 m 410 715 q 319 650 410 650 q 249 689 249 650 q 338 732 249 732 q 410 718 369 732 l 410 715 "},"«":{"ha":1053,"x_min":33,"x_max":1019,"o":"m 294 111 l 604 111 l 336 483 l 336 489 l 604 861 l 294 861 l 33 486 l 294 111 m 710 111 l 1019 111 l 751 483 l 751 489 l 1019 861 l 710 861 l 449 486 l 710 111 "},"¬":{"ha":960,"x_min":33,"x_max":926,"o":"m 33 450 l 619 450 l 619 257 l 926 257 l 926 715 l 33 715 l 33 450 "},"­":{"ha":854,"x_min":33,"x_max":821,"o":"m 821 358 l 821 614 l 33 614 l 33 358 l 821 358 "},"®":{"ha":722,"x_min":10,"x_max":689,"o":"m 101 463 q 349 381 196 381 q 596 463 501 381 q 689 683 689 543 q 596 904 689 824 q 349 986 501 986 q 101 903 196 986 q 10 683 10 822 q 101 463 10 546 m 601 683 q 532 518 601 578 q 349 458 463 458 q 166 518 235 458 q 97 683 97 578 q 166 850 97 790 q 349 910 235 910 q 532 850 463 910 q 601 683 601 790 m 315 532 l 315 638 l 353 638 l 408 532 l 511 532 l 438 657 q 511 743 511 676 q 477 810 511 786 q 383 835 443 835 l 219 835 l 219 532 l 315 532 m 369 772 q 413 739 413 772 q 369 704 413 704 l 315 704 l 315 772 l 369 772 "},"¯":{"ha":783,"x_min":33,"x_max":750,"o":"m 33 878 l 750 878 l 750 1081 l 33 1081 l 33 878 "},"°":{"ha":572,"x_min":10,"x_max":539,"o":"m 539 746 q 465 921 539 856 q 274 986 392 986 q 82 921 156 986 q 10 746 10 857 q 82 571 10 635 q 274 506 156 506 q 465 571 392 506 q 539 691 539 636 q 539 746 539 746 m 365 746 q 340 683 365 706 q 274 660 315 660 q 207 683 232 660 q 182 746 182 706 q 225 823 176 800 q 322 823 274 846 q 365 746 371 800 "},"±":{"ha":996,"x_min":33,"x_max":963,"o":"m 654 733 l 654 936 l 367 936 l 367 733 l 43 733 l 43 478 l 367 478 l 367 276 l 654 276 l 654 478 l 949 478 l 949 733 l 654 733 m 963 0 l 963 206 l 33 206 l 33 0 l 963 0 "},"²":{"ha":725,"x_min":11,"x_max":692,"o":"m 311 851 q 82 731 153 824 q 43 503 11 638 l 692 503 l 692 651 l 279 651 q 410 715 288 690 l 488 732 q 558 754 501 735 q 624 788 599 769 q 681 901 681 833 q 599 1046 681 1000 q 346 1092 518 1092 q 215 1082 299 1092 q 96 1064 122 1071 l 94 904 l 122 914 q 314 939 207 939 q 451 904 451 939 q 385 865 450 882 q 368 861 375 863 q 351 858 361 860 q 332 854 342 856 q 322 853 326 854 q 314 853 317 853 l 311 851 "},"³":{"ha":721,"x_min":33,"x_max":688,"o":"m 538 758 q 625 812 593 778 q 657 886 657 846 q 299 1036 657 1036 q 58 1019 144 1036 l 58 874 q 157 889 100 882 q 271 896 231 897 q 392 887 357 896 q 426 856 426 878 q 275 806 426 807 l 136 806 l 136 686 q 306 692 224 694 q 454 638 454 688 q 265 579 454 579 q 139 589 208 579 q 33 610 64 600 l 33 457 q 297 439 119 439 q 688 615 688 436 q 538 754 688 713 l 538 758 "},"´":{"ha":638,"x_min":33,"x_max":604,"o":"m 275 879 l 604 1079 l 200 1079 l 33 879 l 275 879 "},"µ":{"ha":1338,"x_min":96,"x_max":1242,"o":"m 864 356 q 810 249 861 286 q 669 213 758 213 q 525 251 576 213 q 474 361 474 289 l 474 739 l 96 739 l 96 -279 l 474 -279 l 474 -14 l 519 -14 q 872 126 768 -14 l 879 126 l 906 0 l 1242 0 l 1242 739 l 864 739 l 864 356 "},"¶":{"ha":1565,"x_min":26,"x_max":1449,"o":"m 1449 972 l 525 972 q 158 874 290 971 q 26 604 26 778 q 167 332 26 431 q 546 238 310 236 l 701 238 l 700 0 l 1021 0 l 1021 697 l 1132 697 l 1129 0 l 1449 0 l 1449 972 m 529 506 q 447 531 476 506 q 418 599 418 556 q 447 667 418 642 q 529 692 476 692 l 700 692 l 701 507 l 529 506 "},"·":{"ha":493,"x_min":33,"x_max":460,"o":"m 460 486 q 400 629 460 574 q 247 685 340 685 q 93 629 153 685 q 33 488 33 574 q 93 343 33 399 q 247 288 153 288 q 399 343 339 288 q 460 486 460 400 "},"¸":{"ha":401,"x_min":33,"x_max":368,"o":"m 228 -256 l 368 0 l 104 42 l 33 -256 l 228 -256 "},"¹":{"ha":421,"x_min":33,"x_max":388,"o":"m 168 1028 q 130 948 167 978 q 33 918 93 918 l 35 778 q 154 788 106 778 l 157 788 l 157 447 l 388 447 l 388 1028 l 168 1028 "},"º":{"ha":703,"x_min":33,"x_max":669,"o":"m 250 768 q 351 853 250 853 q 453 768 453 853 q 351 683 453 683 q 250 726 250 683 q 250 768 250 768 m 115 607 q 351 550 200 550 q 586 607 504 550 q 669 768 669 664 q 586 929 669 872 q 351 986 504 986 q 115 929 200 986 q 33 768 33 872 q 115 607 33 664 "},"»":{"ha":1053,"x_min":33,"x_max":1019,"o":"m 343 861 l 33 861 l 301 489 l 301 483 l 33 111 l 343 111 l 604 486 l 343 861 m 758 861 l 449 861 l 717 489 l 717 483 l 449 111 l 758 111 l 1019 486 l 758 861 "},"¼":{"ha":1607,"x_min":33,"x_max":1574,"o":"m 1278 972 l 957 972 l 222 0 l 543 0 l 1278 972 m 1472 582 l 1257 581 l 817 228 l 817 96 l 1240 96 l 1240 0 l 1472 0 l 1472 96 l 1574 96 l 1574 247 l 1472 247 l 1472 582 m 168 972 q 129 892 167 922 q 33 861 92 861 l 33 722 q 153 731 99 722 l 156 731 l 156 390 l 388 390 l 388 972 l 168 972 m 1054 247 l 1054 251 l 1236 386 l 1240 386 l 1240 247 l 1054 247 "},"½":{"ha":1674,"x_min":33,"x_max":1640,"o":"m 1278 972 l 957 972 l 222 0 l 543 0 l 1278 972 m 1261 350 q 1031 228 1101 321 q 992 0 960 135 l 1640 0 l 1640 150 l 1228 150 q 1360 214 1236 189 q 1507 253 1451 232 q 1571 285 1546 267 q 1629 399 1629 328 q 1548 544 1629 499 q 1294 590 1467 590 q 1165 579 1258 590 q 1044 561 1072 568 l 1044 401 l 1072 411 q 1263 436 1157 436 q 1400 401 1400 436 q 1261 350 1400 371 m 168 972 q 129 892 167 922 q 33 861 92 861 l 33 722 q 153 731 99 722 l 156 731 l 156 390 l 388 390 l 388 972 l 168 972 "},"¾":{"ha":1782,"x_min":33,"x_max":1749,"o":"m 1453 972 l 1132 972 l 397 0 l 718 0 l 1453 972 m 1646 582 l 1432 581 l 992 228 l 992 96 l 1415 96 l 1415 0 l 1646 0 l 1646 96 l 1749 96 l 1749 247 l 1646 247 l 1646 582 m 536 703 q 656 831 656 744 q 297 981 656 981 q 58 964 158 981 l 58 817 q 154 832 89 826 q 271 840 222 840 q 392 831 358 840 q 426 799 426 822 q 275 750 426 750 l 136 749 l 136 631 q 306 636 190 636 q 454 582 454 632 q 265 524 454 524 q 138 533 207 524 q 33 553 57 544 l 33 401 q 297 382 135 382 q 688 558 688 382 q 536 697 688 656 l 536 703 m 1229 247 l 1229 251 l 1411 386 l 1415 386 l 1415 247 l 1229 247 "},"¿":{"ha":1025,"x_min":33,"x_max":992,"o":"m 581 -14 q 797 1 686 -14 q 939 26 906 18 l 992 43 l 992 289 l 936 272 q 779 240 876 256 q 581 225 672 225 q 458 247 504 225 q 411 303 411 269 q 435 352 411 335 q 531 379 458 369 q 739 389 603 389 l 699 589 l 388 589 l 368 508 q 115 424 196 485 q 35 256 35 364 q 182 57 33 131 q 581 -14 332 -14 m 691 690 q 746 815 746 736 q 691 940 746 894 q 543 986 636 985 q 396 940 450 986 q 342 815 342 894 q 395 690 340 736 q 543 644 450 644 q 664 667 636 644 q 691 690 691 690 "},"À":{"ha":1432,"x_min":-6,"x_max":1438,"o":"m 438 972 l -6 0 l 408 0 l 471 149 l 960 149 l 1022 0 l 1438 0 l 993 972 l 438 972 m 250 1313 l 579 1113 l 821 1113 l 654 1313 l 250 1313 m 711 714 l 719 714 l 857 389 l 574 389 l 711 714 "},"Á":{"ha":1432,"x_min":-6,"x_max":1438,"o":"m 438 972 l -6 0 l 408 0 l 471 149 l 960 149 l 1022 0 l 1438 0 l 993 972 l 438 972 m 806 1090 l 1135 1290 l 731 1290 l 564 1090 l 806 1090 m 711 714 l 719 714 l 857 389 l 574 389 l 711 714 "},"Â":{"ha":1432,"x_min":-6,"x_max":1438,"o":"m 438 972 l -6 0 l 408 0 l 471 149 l 960 149 l 1022 0 l 1438 0 l 993 972 l 438 972 m 628 1089 l 717 1165 l 806 1089 l 1126 1089 l 910 1289 l 521 1289 l 304 1089 l 628 1089 m 711 714 l 719 714 l 857 389 l 574 389 l 711 714 "},"Ã":{"ha":1432,"x_min":-6,"x_max":1438,"o":"m 438 972 l -6 0 l 408 0 l 471 149 l 960 149 l 1022 0 l 1438 0 l 993 972 l 438 972 m 461 1111 q 600 1165 525 1171 q 657 1153 628 1165 q 725 1133 672 1151 q 836 1106 806 1111 q 936 1110 881 1100 q 1039 1160 993 1121 l 971 1386 q 883 1336 933 1350 q 829 1332 874 1332 q 799 1338 822 1332 q 772 1343 776 1343 q 740 1353 751 1350 q 706 1364 710 1364 q 594 1390 629 1385 q 494 1388 553 1399 q 393 1338 436 1376 l 461 1111 m 711 714 l 719 714 l 857 389 l 574 389 l 711 714 "},"Ä":{"ha":1432,"x_min":-6,"x_max":1438,"o":"m 438 972 l -6 0 l 408 0 l 471 149 l 960 149 l 1022 0 l 1438 0 l 993 972 l 438 972 m 398 1335 q 353 1238 353 1300 q 398 1140 353 1175 q 519 1104 443 1104 q 641 1140 596 1104 q 686 1238 686 1175 q 641 1335 686 1300 q 519 1371 596 1371 q 420 1353 443 1371 q 398 1335 398 1335 m 790 1335 q 746 1238 746 1300 q 790 1140 744 1175 q 911 1104 835 1104 q 1033 1140 988 1104 q 1078 1238 1078 1175 q 1033 1335 1078 1300 q 911 1371 988 1371 q 813 1353 835 1371 q 790 1335 790 1335 m 711 714 l 719 714 l 857 389 l 574 389 l 711 714 "},"Å":{"ha":1432,"x_min":-6,"x_max":1438,"o":"m 438 972 l -6 0 l 408 0 l 471 149 l 960 149 l 1022 0 l 1438 0 l 993 972 l 438 972 m 531 1415 q 463 1282 463 1367 q 531 1149 463 1197 q 715 1101 599 1101 q 900 1150 832 1101 q 968 1282 968 1199 q 900 1414 968 1365 q 715 1463 832 1463 q 565 1439 599 1463 q 531 1415 531 1415 m 711 714 l 719 714 l 857 389 l 574 389 l 711 714 m 782 1281 q 749 1227 782 1243 q 682 1227 715 1211 q 649 1281 649 1243 q 681 1333 646 1318 q 750 1333 715 1349 q 782 1281 785 1318 "},"Æ":{"ha":2283,"x_min":-32,"x_max":2240,"o":"m 2240 256 l 1417 256 l 1417 382 l 2131 382 l 2131 601 l 1417 601 l 1417 717 l 2225 717 l 2225 972 l 838 972 l -32 0 l 410 0 l 538 149 l 1029 149 l 1029 0 l 2240 0 l 2240 256 m 1025 714 l 1029 714 l 1029 389 l 744 389 l 1025 714 "},"Ç":{"ha":1288,"x_min":53,"x_max":1258,"o":"m 757 -256 l 890 -11 q 1258 39 1136 0 l 1257 350 q 1088 272 1217 303 q 844 242 961 242 q 549 305 657 242 q 442 486 442 368 q 548 669 442 607 q 844 731 654 731 q 1074 700 953 731 q 1232 628 1197 668 l 1232 936 q 803 986 1074 986 q 240 857 426 986 q 53 486 53 728 q 195 151 53 276 q 622 -4 338 25 l 563 -256 l 757 -256 "},"È":{"ha":1371,"x_min":117,"x_max":1328,"o":"m 504 256 l 504 382 l 1218 382 l 1218 601 l 504 601 l 504 717 l 1313 717 l 1313 972 l 117 972 l 117 0 l 1328 0 l 1328 256 l 504 256 m 293 1313 l 622 1113 l 864 1113 l 697 1313 l 293 1313 "},"É":{"ha":1371,"x_min":117,"x_max":1328,"o":"m 504 256 l 504 382 l 1218 382 l 1218 601 l 504 601 l 504 717 l 1313 717 l 1313 972 l 117 972 l 117 0 l 1328 0 l 1328 256 l 504 256 m 789 1113 l 1118 1313 l 714 1313 l 547 1113 l 789 1113 "},"Ê":{"ha":1371,"x_min":117,"x_max":1328,"o":"m 504 256 l 504 382 l 1218 382 l 1218 601 l 504 601 l 504 717 l 1313 717 l 1313 972 l 117 972 l 117 0 l 1328 0 l 1328 256 l 504 256 m 597 1111 l 686 1188 l 775 1111 l 1096 1111 l 879 1311 l 490 1311 l 274 1111 l 597 1111 "},"Ë":{"ha":1371,"x_min":117,"x_max":1328,"o":"m 504 256 l 504 382 l 1218 382 l 1218 601 l 504 601 l 504 717 l 1313 717 l 1313 972 l 117 972 l 117 0 l 1328 0 l 1328 256 l 504 256 m 367 1335 q 322 1238 322 1300 q 367 1140 322 1175 q 489 1104 413 1104 q 610 1140 565 1104 q 656 1238 656 1175 q 610 1335 656 1300 q 489 1371 565 1371 q 390 1353 413 1371 q 367 1335 367 1335 m 760 1335 q 715 1238 715 1300 q 759 1140 714 1175 q 881 1104 804 1104 q 1002 1140 957 1104 q 1047 1238 1047 1175 q 1002 1335 1047 1300 q 881 1371 957 1371 q 782 1353 804 1371 q 760 1335 760 1335 "},"Ì":{"ha":621,"x_min":-156,"x_max":504,"o":"m 117 972 l 117 0 l 504 0 l 504 972 l 117 972 m -156 1313 l 174 1113 l 415 1113 l 249 1313 l -156 1313 "},"Í":{"ha":621,"x_min":117,"x_max":754,"o":"m 117 972 l 117 0 l 504 0 l 504 972 l 117 972 m 425 1113 l 754 1313 l 350 1313 l 183 1113 l 425 1113 "},"Î":{"ha":621,"x_min":-100,"x_max":722,"o":"m 117 972 l 117 0 l 504 0 l 504 972 l 117 972 m 224 1111 l 313 1188 l 401 1111 l 722 1111 l 506 1311 l 117 1311 l -100 1111 l 224 1111 "},"Ï":{"ha":621,"x_min":-51,"x_max":674,"o":"m 117 972 l 117 0 l 504 0 l 504 972 l 117 972 m -6 1335 q -51 1238 -51 1300 q -6 1140 -51 1175 q 115 1104 39 1104 q 237 1140 192 1104 q 282 1238 282 1175 q 237 1335 282 1300 q 115 1371 192 1371 q 16 1353 39 1371 q -6 1335 -6 1335 m 386 1335 q 342 1238 342 1300 q 385 1140 340 1175 q 507 1104 431 1104 q 628 1140 583 1104 q 674 1238 674 1175 q 628 1335 674 1300 q 507 1371 583 1371 q 408 1353 431 1371 q 386 1335 386 1335 "},"Ð":{"ha":1569,"x_min":-14,"x_max":1517,"o":"m 883 0 q 1353 129 1189 0 q 1517 486 1517 260 q 1353 842 1517 713 q 883 972 1189 972 l 213 972 l 213 549 l -14 549 l -14 424 l 213 424 l 213 0 l 883 0 m 883 424 l 883 549 l 600 549 l 600 717 l 864 717 q 1056 657 988 717 q 1125 486 1125 597 q 1056 315 1125 375 q 864 256 988 256 l 600 256 l 600 424 l 883 424 "},"Ñ":{"ha":1468,"x_min":117,"x_max":1351,"o":"m 981 503 l 974 503 l 489 972 l 117 972 l 117 0 l 489 0 l 489 465 l 496 465 l 974 0 l 1351 0 l 1351 972 l 981 972 l 981 503 m 479 1133 q 618 1188 543 1193 q 675 1175 646 1188 q 743 1156 690 1174 q 854 1128 824 1133 q 954 1132 897 1122 q 1057 1182 1011 1143 l 989 1408 q 901 1358 951 1372 q 847 1354 892 1354 q 817 1360 840 1354 q 790 1365 794 1365 q 758 1375 769 1372 q 724 1386 726 1386 q 613 1413 647 1407 q 513 1410 571 1421 q 411 1360 454 1399 l 479 1133 "},"Ò":{"ha":1417,"x_min":32,"x_max":1385,"o":"m 708 242 q 499 306 576 242 q 422 486 422 369 q 499 667 422 603 q 708 731 576 731 q 916 667 839 731 q 993 486 993 603 q 916 306 993 369 q 708 242 839 242 m 211 851 q 32 486 32 717 q 211 121 32 257 q 708 -14 389 -14 q 1206 121 1028 -14 q 1385 486 1385 256 q 1206 851 1385 717 q 708 986 1028 986 q 211 851 389 986 m 260 1313 l 589 1113 l 831 1113 l 664 1313 l 260 1313 "},"Ó":{"ha":1417,"x_min":32,"x_max":1385,"o":"m 708 242 q 499 306 576 242 q 422 486 422 369 q 499 667 422 603 q 708 731 576 731 q 916 667 839 731 q 993 486 993 603 q 916 306 993 369 q 708 242 839 242 m 211 851 q 32 486 32 717 q 211 121 32 257 q 708 -14 389 -14 q 1206 121 1028 -14 q 1385 486 1385 256 q 1206 851 1385 717 q 708 986 1028 986 q 211 851 389 986 m 801 1113 l 1131 1313 l 726 1313 l 560 1113 l 801 1113 "},"Ô":{"ha":1417,"x_min":32,"x_max":1385,"o":"m 708 242 q 499 306 576 242 q 422 486 422 369 q 499 667 422 603 q 708 731 576 731 q 916 667 839 731 q 993 486 993 603 q 916 306 993 369 q 708 242 839 242 m 211 851 q 32 486 32 717 q 211 121 32 257 q 708 -14 389 -14 q 1206 121 1028 -14 q 1385 486 1385 256 q 1206 851 1385 717 q 708 986 1028 986 q 211 851 389 986 m 621 1111 l 710 1188 l 799 1111 l 1119 1111 l 903 1311 l 514 1311 l 297 1111 l 621 1111 "},"Õ":{"ha":1417,"x_min":32,"x_max":1385,"o":"m 708 242 q 499 306 576 242 q 422 486 422 369 q 499 667 422 603 q 708 731 576 731 q 916 667 839 731 q 993 486 993 603 q 916 306 993 369 q 708 242 839 242 m 211 851 q 32 486 32 717 q 211 121 32 257 q 708 -14 389 -14 q 1206 121 1028 -14 q 1385 486 1385 256 q 1206 851 1385 717 q 708 986 1028 986 q 211 851 389 986 m 453 1133 q 592 1188 517 1193 q 649 1175 619 1188 q 717 1156 664 1174 q 828 1128 797 1133 q 928 1132 872 1122 q 1031 1182 985 1143 l 963 1408 q 875 1358 925 1372 q 821 1354 865 1354 q 791 1360 814 1354 q 764 1365 768 1365 q 732 1375 743 1372 q 697 1386 700 1386 q 586 1413 621 1407 q 486 1410 544 1421 q 385 1360 428 1399 l 453 1133 "},"Ö":{"ha":1417,"x_min":32,"x_max":1385,"o":"m 708 242 q 499 306 576 242 q 422 486 422 369 q 499 667 422 603 q 708 731 576 731 q 916 667 839 731 q 993 486 993 603 q 916 306 993 369 q 708 242 839 242 m 211 851 q 32 486 32 717 q 211 121 32 257 q 708 -14 389 -14 q 1206 121 1028 -14 q 1385 486 1385 256 q 1206 851 1385 717 q 708 986 1028 986 q 211 851 389 986 m 391 1335 q 346 1238 346 1300 q 391 1140 346 1175 q 513 1104 436 1104 q 634 1140 589 1104 q 679 1238 679 1175 q 634 1335 679 1300 q 513 1371 589 1371 q 414 1353 436 1371 q 391 1335 391 1335 m 783 1335 q 739 1238 739 1300 q 783 1140 738 1175 q 904 1104 828 1104 q 1026 1140 981 1104 q 1071 1238 1071 1175 q 1026 1335 1071 1300 q 904 1371 981 1371 q 806 1353 828 1371 q 783 1335 783 1335 "},"×":{"ha":851,"x_min":33,"x_max":818,"o":"m 625 856 l 428 669 l 422 669 l 225 856 l 33 674 l 231 489 l 231 483 l 33 299 l 225 117 l 422 303 l 428 303 l 625 117 l 818 299 l 621 483 l 621 489 l 818 674 l 625 856 "},"Ø":{"ha":1417,"x_min":53,"x_max":1364,"o":"m 981 486 q 909 305 981 368 q 708 242 838 242 q 575 264 628 242 l 942 631 q 981 486 981 574 m 708 731 q 842 708 788 731 l 474 342 q 435 486 435 399 q 506 667 435 604 q 708 731 578 731 m 708 -14 q 1193 119 1025 -14 q 1364 486 1364 256 q 1176 865 1364 732 l 1306 994 l 1217 1083 l 1061 928 q 708 986 914 986 q 222 851 392 986 q 53 486 53 718 q 240 107 53 240 l 111 -22 l 200 -111 l 356 44 q 708 -14 503 -14 "},"Ù":{"ha":1440,"x_min":100,"x_max":1340,"o":"m 1178 112 q 1340 460 1340 238 l 1340 972 l 953 972 l 953 472 q 892 301 953 361 q 721 242 831 242 q 549 301 610 242 q 488 472 488 361 l 488 972 l 100 972 l 100 456 q 263 111 101 239 q 719 -14 422 -14 q 1098 49 1017 -14 q 1178 112 1178 112 m 282 1313 l 611 1113 l 853 1113 l 686 1313 l 282 1313 "},"Ú":{"ha":1440,"x_min":100,"x_max":1340,"o":"m 1178 112 q 1340 460 1340 238 l 1340 972 l 953 972 l 953 472 q 892 301 953 361 q 721 242 831 242 q 549 301 610 242 q 488 472 488 361 l 488 972 l 100 972 l 100 456 q 263 111 101 239 q 719 -14 422 -14 q 1098 49 1017 -14 q 1178 112 1178 112 m 819 1113 l 1149 1313 l 744 1313 l 578 1113 l 819 1113 "},"Û":{"ha":1440,"x_min":100,"x_max":1340,"o":"m 1178 112 q 1340 460 1340 238 l 1340 972 l 953 972 l 953 472 q 892 301 953 361 q 721 242 831 242 q 549 301 610 242 q 488 472 488 361 l 488 972 l 100 972 l 100 456 q 263 111 101 239 q 719 -14 422 -14 q 1098 49 1017 -14 q 1178 112 1178 112 m 632 1111 l 721 1188 l 810 1111 l 1131 1111 l 914 1311 l 525 1311 l 308 1111 l 632 1111 "},"Ü":{"ha":1440,"x_min":100,"x_max":1340,"o":"m 1178 112 q 1340 460 1340 238 l 1340 972 l 953 972 l 953 472 q 892 301 953 361 q 721 242 831 242 q 549 301 610 242 q 488 472 488 361 l 488 972 l 100 972 l 100 456 q 263 111 101 239 q 719 -14 422 -14 q 1098 49 1017 -14 q 1178 112 1178 112 m 402 1335 q 357 1238 357 1300 q 402 1140 357 1175 q 524 1104 447 1104 q 645 1140 600 1104 q 690 1238 690 1175 q 645 1335 690 1300 q 524 1371 600 1371 q 425 1353 447 1371 q 402 1335 402 1335 m 794 1335 q 750 1238 750 1300 q 794 1140 749 1175 q 915 1104 839 1104 q 1037 1140 992 1104 q 1082 1238 1082 1175 q 1037 1335 1082 1300 q 915 1371 992 1371 q 817 1353 839 1371 q 794 1335 794 1335 "},"Ý":{"ha":1438,"x_min":-3,"x_max":1440,"o":"m 421 972 l -3 972 l 525 326 l 525 0 l 913 0 l 913 325 l 1440 972 l 1015 972 l 722 606 l 715 606 l 421 972 m 814 1113 l 1143 1313 l 739 1313 l 572 1113 l 814 1113 "},"Þ":{"ha":1386,"x_min":117,"x_max":1360,"o":"m 117 972 l 117 0 l 504 0 l 504 122 l 815 122 q 1233 214 1106 122 q 1360 485 1360 307 q 1233 756 1360 664 q 815 849 1107 849 l 504 849 l 504 972 l 117 972 m 813 593 q 931 566 889 593 q 974 486 974 539 q 931 406 974 433 q 813 378 889 378 l 504 378 l 504 593 l 813 593 "},"ß":{"ha":1497,"x_min":100,"x_max":1460,"o":"m 483 567 q 561 776 483 700 q 772 853 639 853 q 875 833 819 853 q 931 789 931 815 l 592 585 l 592 461 q 823 474 732 476 q 967 448 914 471 q 1040 399 1019 425 q 1061 339 1061 372 q 1023 268 1061 297 q 933 228 985 239 q 840 219 888 219 q 563 261 699 219 l 563 33 q 767 1 649 17 q 965 -14 901 -14 q 1249 30 1140 -12 q 1404 140 1357 72 q 1460 296 1460 215 q 1322 526 1460 446 q 989 585 1208 593 q 988 593 989 590 l 1304 765 q 1261 899 1304 842 q 1141 990 1218 957 q 969 1040 1064 1024 q 760 1056 874 1056 q 288 932 476 1056 q 100 622 100 808 l 100 0 l 483 0 l 483 567 "},"à":{"ha":1163,"x_min":31,"x_max":1074,"o":"m 533 753 q 285 738 435 753 q 99 703 144 724 l 99 450 q 257 499 140 476 q 475 522 379 522 q 635 490 581 522 q 689 407 689 457 l 689 401 q 418 439 583 439 q 135 381 239 439 q 31 215 31 322 q 128 47 31 107 q 381 -14 226 -14 q 713 99 628 -14 l 719 99 l 750 0 l 1074 0 l 1074 454 q 533 753 1074 753 m 143 1079 l 472 879 l 714 879 l 547 1079 l 143 1079 m 686 281 q 528 165 683 165 q 404 235 404 165 q 558 308 404 308 q 686 283 625 308 l 686 281 "},"á":{"ha":1163,"x_min":31,"x_max":1074,"o":"m 533 753 q 285 738 435 753 q 99 703 144 724 l 99 450 q 257 499 140 476 q 475 522 379 522 q 635 490 581 522 q 689 407 689 457 l 689 401 q 418 439 583 439 q 135 381 239 439 q 31 215 31 322 q 128 47 31 107 q 381 -14 226 -14 q 713 99 628 -14 l 719 99 l 750 0 l 1074 0 l 1074 454 q 533 753 1074 753 m 649 879 l 978 1079 l 574 1079 l 407 879 l 649 879 m 686 281 q 528 165 683 165 q 404 235 404 165 q 558 308 404 308 q 686 283 625 308 l 686 281 "},"â":{"ha":1163,"x_min":31,"x_max":1074,"o":"m 533 753 q 285 738 435 753 q 99 703 144 724 l 99 450 q 257 499 140 476 q 475 522 379 522 q 635 490 581 522 q 689 407 689 457 l 689 401 q 418 439 583 439 q 135 381 239 439 q 31 215 31 322 q 128 47 31 107 q 381 -14 226 -14 q 713 99 628 -14 l 719 99 l 750 0 l 1074 0 l 1074 454 q 533 753 1074 753 m 493 878 l 582 954 l 671 878 l 992 878 l 775 1078 l 386 1078 l 169 878 l 493 878 m 686 281 q 528 165 683 165 q 404 235 404 165 q 558 308 404 308 q 686 283 625 308 l 686 281 "},"ã":{"ha":1163,"x_min":31,"x_max":1074,"o":"m 533 753 q 285 738 435 753 q 99 703 144 724 l 99 450 q 257 499 140 476 q 475 522 379 522 q 635 490 581 522 q 689 407 689 457 l 689 401 q 418 439 583 439 q 135 381 239 439 q 31 215 31 322 q 128 47 31 107 q 381 -14 226 -14 q 713 99 628 -14 l 719 99 l 750 0 l 1074 0 l 1074 454 q 533 753 1074 753 m 326 900 q 465 954 390 960 q 522 942 493 954 q 590 922 538 940 q 701 894 671 900 q 801 899 744 889 q 904 949 858 910 l 836 1175 q 749 1125 799 1139 q 694 1121 739 1121 q 665 1126 688 1121 q 638 1132 642 1132 q 606 1142 617 1139 q 571 1153 574 1153 q 460 1179 494 1174 q 360 1176 418 1188 q 258 1126 301 1165 l 326 900 m 686 281 q 528 165 683 165 q 404 235 404 165 q 558 308 404 308 q 686 283 625 308 l 686 281 "},"ä":{"ha":1163,"x_min":31,"x_max":1074,"o":"m 533 753 q 285 738 435 753 q 99 703 144 724 l 99 450 q 257 499 140 476 q 475 522 379 522 q 635 490 581 522 q 689 407 689 457 l 689 401 q 418 439 583 439 q 135 381 239 439 q 31 215 31 322 q 128 47 31 107 q 381 -14 226 -14 q 713 99 628 -14 l 719 99 l 750 0 l 1074 0 l 1074 454 q 533 753 1074 753 m 263 1102 q 218 1004 218 1067 q 263 906 218 942 q 385 871 308 871 q 506 906 461 871 q 551 1004 551 942 q 506 1102 551 1067 q 385 1138 461 1138 q 286 1120 308 1138 q 263 1102 263 1102 m 656 1102 q 611 1004 611 1067 q 655 906 610 942 q 776 871 700 871 q 898 906 853 871 q 943 1004 943 942 q 898 1102 943 1067 q 776 1138 853 1138 q 678 1120 700 1138 q 656 1102 656 1102 m 686 281 q 528 165 683 165 q 404 235 404 165 q 558 308 404 308 q 686 283 625 308 l 686 281 "},"å":{"ha":1163,"x_min":31,"x_max":1074,"o":"m 533 753 q 285 738 435 753 q 99 703 144 724 l 99 450 q 257 499 140 476 q 475 522 379 522 q 635 490 581 522 q 689 407 689 457 l 689 401 q 418 439 583 439 q 135 381 239 439 q 31 215 31 322 q 128 47 31 107 q 381 -14 226 -14 q 713 99 628 -14 l 719 99 l 750 0 l 1074 0 l 1074 454 q 533 753 1074 753 m 396 1181 q 328 1049 328 1133 q 396 916 328 964 q 581 868 464 868 q 765 917 697 868 q 833 1049 833 965 q 765 1181 833 1132 q 581 1229 697 1229 q 430 1205 464 1229 q 396 1181 396 1181 m 686 281 q 528 165 683 165 q 404 235 404 165 q 558 308 404 308 q 686 283 625 308 l 686 281 m 647 1047 q 614 994 647 1010 q 547 994 581 978 q 514 1047 514 1010 q 546 1100 511 1085 q 615 1100 581 1115 q 647 1047 650 1085 "},"æ":{"ha":1833,"x_min":31,"x_max":1796,"o":"m 1796 368 q 1663 643 1796 535 q 1306 753 1531 753 q 1099 717 1203 753 q 940 614 997 682 l 933 614 q 533 753 828 753 q 288 733 439 753 q 99 696 143 715 l 99 449 q 257 496 136 472 q 475 519 379 519 q 635 487 581 519 q 689 406 689 454 l 689 400 q 418 438 583 438 q 133 378 236 438 q 31 217 31 318 q 147 47 31 110 q 460 -14 265 -14 q 711 33 592 -14 q 888 158 831 81 l 893 158 q 1350 -14 1031 -14 q 1740 28 1581 -14 l 1740 257 q 1381 208 1578 208 q 1201 230 1263 208 q 1115 301 1140 251 l 1794 301 l 1796 368 m 694 279 q 644 199 694 232 q 513 165 593 165 q 431 183 461 165 q 400 233 400 200 q 445 287 400 267 q 558 307 490 307 q 694 282 625 307 l 694 279 m 1149 426 q 1203 502 1160 472 q 1301 532 1247 532 q 1446 426 1428 532 l 1149 426 "},"ç":{"ha":1067,"x_min":46,"x_max":1040,"o":"m 625 -256 l 758 -11 q 1040 17 964 -3 l 1040 279 q 901 238 1007 258 q 704 218 793 218 q 499 256 571 218 q 428 368 428 294 q 499 482 428 443 q 704 521 571 521 q 872 501 775 521 q 1011 460 965 483 l 1011 722 q 656 751 903 751 q 200 653 354 751 q 46 368 46 554 q 158 116 46 211 q 490 -4 269 21 l 431 -256 l 625 -256 "},"è":{"ha":1178,"x_min":46,"x_max":1140,"o":"m 1140 368 q 998 651 1140 550 q 594 753 856 753 q 189 649 332 753 q 46 368 46 547 q 194 88 46 190 q 611 -14 342 -14 q 1085 26 931 -14 l 1085 261 q 725 215 935 215 q 454 301 499 215 l 1139 301 l 1140 368 m 122 1079 l 451 879 l 693 879 l 526 1079 l 122 1079 m 449 426 q 498 506 458 476 q 593 535 538 535 q 738 426 722 535 l 449 426 "},"é":{"ha":1178,"x_min":46,"x_max":1140,"o":"m 1140 368 q 998 651 1140 550 q 594 753 856 753 q 189 649 332 753 q 46 368 46 547 q 194 88 46 190 q 611 -14 342 -14 q 1085 26 931 -14 l 1085 261 q 725 215 935 215 q 454 301 499 215 l 1139 301 l 1140 368 m 697 879 l 1026 1079 l 622 1079 l 456 879 l 697 879 m 449 426 q 498 506 458 476 q 593 535 538 535 q 738 426 722 535 l 449 426 "},"ê":{"ha":1178,"x_min":46,"x_max":1140,"o":"m 1140 368 q 998 651 1140 550 q 594 753 856 753 q 189 649 332 753 q 46 368 46 547 q 194 88 46 190 q 611 -14 342 -14 q 1085 26 931 -14 l 1085 261 q 725 215 935 215 q 454 301 499 215 l 1139 301 l 1140 368 m 501 878 l 590 954 l 679 878 l 1000 878 l 783 1078 l 394 1078 l 178 878 l 501 878 m 449 426 q 498 506 458 476 q 593 535 538 535 q 738 426 722 535 l 449 426 "},"ë":{"ha":1178,"x_min":46,"x_max":1140,"o":"m 1140 368 q 998 651 1140 550 q 594 753 856 753 q 189 649 332 753 q 46 368 46 547 q 194 88 46 190 q 611 -14 342 -14 q 1085 26 931 -14 l 1085 261 q 725 215 935 215 q 454 301 499 215 l 1139 301 l 1140 368 m 272 1102 q 226 1004 226 1067 q 272 906 226 942 q 393 871 317 871 q 515 906 469 871 q 560 1004 560 942 q 515 1102 560 1067 q 393 1138 469 1138 q 294 1120 317 1138 q 272 1102 272 1102 m 664 1102 q 619 1004 619 1067 q 663 906 618 942 q 785 871 708 871 q 906 906 861 871 q 951 1004 951 942 q 906 1102 951 1067 q 785 1138 861 1138 q 686 1120 708 1138 q 664 1102 664 1102 m 449 426 q 498 506 458 476 q 593 535 538 535 q 738 426 722 535 l 449 426 "},"ì":{"ha":583,"x_min":-167,"x_max":471,"o":"m 93 0 l 471 0 l 471 739 l 93 739 l 93 0 m -167 1079 l 163 879 l 404 879 l 238 1079 l -167 1079 "},"í":{"ha":583,"x_min":93,"x_max":729,"o":"m 93 0 l 471 0 l 471 739 l 93 739 l 93 0 m 400 879 l 729 1079 l 325 1079 l 158 879 l 400 879 "},"î":{"ha":583,"x_min":-119,"x_max":703,"o":"m 93 0 l 471 0 l 471 739 l 93 739 l 93 0 m 204 878 l 293 954 l 382 878 l 703 878 l 486 1078 l 97 1078 l -119 878 l 204 878 "},"ï":{"ha":583,"x_min":-71,"x_max":654,"o":"m 93 0 l 471 0 l 471 739 l 93 739 l 93 0 m -26 1102 q -71 1004 -71 1067 q -26 906 -71 942 q 96 871 19 871 q 217 906 172 871 q 263 1004 263 942 q 217 1102 263 1067 q 96 1138 172 1138 q -3 1120 19 1138 q -26 1102 -26 1102 m 367 1102 q 322 1004 322 1067 q 366 906 321 942 q 488 871 411 871 q 609 906 564 871 q 654 1004 654 942 q 609 1102 654 1067 q 488 1138 564 1138 q 389 1120 411 1138 q 367 1102 367 1102 "},"ð":{"ha":1143,"x_min":29,"x_max":1089,"o":"m 1089 490 q 1001 768 1089 639 q 756 974 917 896 l 756 981 l 876 1074 l 828 1139 l 663 1013 q 168 1058 444 1089 l 168 801 q 381 806 278 818 q 382 799 382 804 l 307 740 l 356 676 l 494 782 q 711 639 650 735 l 707 632 q 485 667 621 667 q 149 583 269 667 q 29 346 29 499 q 72 182 29 253 q 187 69 114 111 q 349 7 260 28 q 539 -14 438 -14 q 938 122 786 -14 q 1089 490 1089 257 m 361 365 q 412 438 361 413 q 549 464 463 464 q 688 437 633 464 q 742 365 742 410 q 690 287 742 318 q 551 256 638 256 q 411 285 461 256 q 361 365 361 314 "},"ñ":{"ha":1331,"x_min":96,"x_max":1242,"o":"m 818 753 q 465 610 571 753 l 458 610 l 432 739 l 96 739 l 96 0 l 474 0 l 474 379 q 526 484 475 447 q 668 521 578 521 q 813 483 761 521 q 864 374 864 446 l 864 0 l 1242 0 l 1242 374 q 1131 653 1242 553 q 818 753 1021 753 m 410 900 q 549 954 474 960 q 606 942 576 954 q 674 922 621 940 q 785 894 754 900 q 885 899 828 889 q 988 949 942 910 l 919 1175 q 832 1125 882 1139 q 778 1121 822 1121 q 748 1126 771 1121 q 721 1132 725 1132 q 689 1142 700 1139 q 654 1153 657 1153 q 543 1179 578 1174 q 443 1176 501 1188 q 342 1126 385 1165 l 410 900 "},"ò":{"ha":1200,"x_min":46,"x_max":1154,"o":"m 775 369 q 728 258 775 297 q 600 218 682 218 q 470 257 517 218 q 424 369 424 296 q 470 483 424 443 q 600 522 517 522 q 728 483 682 522 q 775 369 775 443 m 191 88 q 600 -14 336 -14 q 1008 88 863 -14 q 1154 369 1154 189 q 1009 651 1154 550 q 600 753 864 753 q 191 651 336 753 q 46 369 46 550 q 118 138 46 189 q 191 88 191 88 m 551 1079 l 147 1079 l 476 879 l 718 879 l 551 1079 "},"ó":{"ha":1200,"x_min":46,"x_max":1154,"o":"m 775 369 q 728 258 775 297 q 600 218 682 218 q 470 257 517 218 q 424 369 424 296 q 470 483 424 443 q 600 522 517 522 q 728 483 682 522 q 775 369 775 443 m 191 88 q 600 -14 336 -14 q 1008 88 863 -14 q 1154 369 1154 189 q 1009 651 1154 550 q 600 753 864 753 q 191 651 336 753 q 46 369 46 550 q 118 138 46 189 q 191 88 191 88 m 461 879 l 703 879 l 1032 1079 l 628 1079 l 461 879 "},"ô":{"ha":1200,"x_min":46,"x_max":1154,"o":"m 775 369 q 728 258 775 297 q 600 218 682 218 q 470 257 517 218 q 424 369 424 296 q 470 483 424 443 q 600 522 517 522 q 728 483 682 522 q 775 369 775 443 m 191 88 q 600 -14 336 -14 q 1008 88 863 -14 q 1154 369 1154 189 q 1009 651 1154 550 q 600 753 864 753 q 191 651 336 753 q 46 369 46 550 q 118 138 46 189 q 191 88 191 88 m 513 878 l 601 954 l 690 878 l 1011 878 l 794 1078 l 406 1078 l 189 878 l 513 878 "},"õ":{"ha":1200,"x_min":46,"x_max":1154,"o":"m 775 369 q 728 258 775 297 q 600 218 682 218 q 470 257 517 218 q 424 369 424 296 q 470 483 424 443 q 600 522 517 522 q 728 483 682 522 q 775 369 775 443 m 191 88 q 600 -14 336 -14 q 1008 88 863 -14 q 1154 369 1154 189 q 1009 651 1154 550 q 600 753 864 753 q 191 651 336 753 q 46 369 46 550 q 118 138 46 189 q 191 88 191 88 m 344 900 q 410 943 361 915 q 428 949 417 947 q 456 953 440 951 l 469 954 q 503 951 481 957 l 533 944 l 569 933 q 588 928 579 931 q 601 924 596 925 q 608 922 607 922 q 719 894 689 900 q 819 899 764 889 q 922 949 876 910 l 854 1175 q 788 1132 840 1163 q 754 1124 779 1126 q 726 1119 729 1121 q 694 1124 719 1117 l 664 1131 q 658 1132 663 1131 q 644 1136 653 1133 q 626 1142 636 1139 q 608 1147 617 1144 q 595 1151 600 1150 q 589 1153 590 1153 q 478 1179 513 1174 q 378 1176 436 1188 q 276 1126 319 1165 l 344 900 "},"ö":{"ha":1200,"x_min":46,"x_max":1154,"o":"m 775 369 q 728 258 775 297 q 600 218 682 218 q 470 257 517 218 q 424 369 424 296 q 470 483 424 443 q 600 522 517 522 q 728 483 682 522 q 775 369 775 443 m 191 88 q 600 -14 336 -14 q 1008 88 863 -14 q 1154 369 1154 189 q 1009 651 1154 550 q 600 753 864 753 q 191 651 336 753 q 46 369 46 550 q 118 138 46 189 q 191 88 191 88 m 283 1102 q 238 1004 238 1067 q 283 906 238 942 q 404 871 328 871 q 526 906 481 871 q 571 1004 571 942 q 526 1102 571 1067 q 404 1138 481 1138 q 305 1120 328 1138 q 283 1102 283 1102 m 675 1102 q 631 1004 631 1067 q 674 906 629 942 q 796 871 719 871 q 917 906 872 871 q 963 1004 963 942 q 917 1102 963 1067 q 796 1138 872 1138 q 697 1120 719 1138 q 675 1102 675 1102 "},"÷":{"ha":1024,"x_min":33,"x_max":990,"o":"m 990 376 l 990 596 l 33 596 l 33 376 l 990 376 m 511 336 q 357 290 415 336 q 299 161 299 243 q 356 34 299 81 q 511 -14 414 -12 q 667 33 608 -14 q 725 161 725 79 q 667 288 725 242 q 511 336 608 335 m 511 986 q 357 940 415 986 q 299 811 299 893 q 356 684 299 731 q 511 636 414 638 q 667 683 608 636 q 725 811 725 729 q 667 938 725 892 q 511 986 608 985 "},"ø":{"ha":1200,"x_min":46,"x_max":1154,"o":"m 599 217 q 538 228 579 217 l 757 446 q 775 369 775 414 q 728 256 775 296 q 599 217 682 217 m 424 369 q 470 483 424 443 q 599 522 517 522 q 661 511 610 522 l 442 292 q 424 369 424 322 m 1081 769 l 1000 850 l 865 715 q 600 753 739 753 q 191 651 336 753 q 46 369 46 550 q 221 71 46 169 l 117 -33 l 197 -114 l 335 24 q 600 -14 461 -14 q 1009 88 864 -14 q 1154 369 1154 189 q 979 668 1154 568 l 1081 769 "},"ù":{"ha":1331,"x_min":89,"x_max":1235,"o":"m 513 -14 q 865 129 760 -14 l 872 129 l 899 0 l 1235 0 l 1235 739 l 857 739 l 857 360 q 804 255 856 292 q 663 218 753 218 q 518 256 569 218 q 467 365 467 293 l 467 739 l 89 739 l 89 365 q 199 86 89 186 q 513 -14 310 -14 m 246 1079 l 575 879 l 817 879 l 650 1079 l 246 1079 "},"ú":{"ha":1331,"x_min":89,"x_max":1235,"o":"m 513 -14 q 865 129 760 -14 l 872 129 l 899 0 l 1235 0 l 1235 739 l 857 739 l 857 360 q 804 255 856 292 q 663 218 753 218 q 518 256 569 218 q 467 365 467 293 l 467 739 l 89 739 l 89 365 q 199 86 89 186 q 513 -14 310 -14 m 788 879 l 1117 1079 l 713 1079 l 546 879 l 788 879 "},"û":{"ha":1331,"x_min":89,"x_max":1235,"o":"m 513 -14 q 865 129 760 -14 l 872 129 l 899 0 l 1235 0 l 1235 739 l 857 739 l 857 360 q 804 255 856 292 q 663 218 753 218 q 518 256 569 218 q 467 365 467 293 l 467 739 l 89 739 l 89 365 q 199 86 89 186 q 513 -14 310 -14 m 578 878 l 667 954 l 756 878 l 1076 878 l 860 1078 l 471 1078 l 254 878 l 578 878 "},"ü":{"ha":1331,"x_min":89,"x_max":1235,"o":"m 513 -14 q 865 129 760 -14 l 872 129 l 899 0 l 1235 0 l 1235 739 l 857 739 l 857 360 q 804 255 856 292 q 663 218 753 218 q 518 256 569 218 q 467 365 467 293 l 467 739 l 89 739 l 89 365 q 199 86 89 186 q 513 -14 310 -14 m 348 1102 q 303 1004 303 1067 q 348 906 303 942 q 469 871 393 871 q 591 906 546 871 q 636 1004 636 942 q 591 1102 636 1067 q 469 1138 546 1138 q 370 1120 393 1138 q 348 1102 348 1102 m 740 1102 q 696 1004 696 1067 q 740 906 694 942 q 861 871 785 871 q 983 906 938 871 q 1028 1004 1028 942 q 983 1102 1028 1067 q 861 1138 938 1138 q 763 1120 785 1138 q 740 1102 740 1102 "},"ý":{"ha":1249,"x_min":1,"x_max":1247,"o":"m 642 382 l 636 382 l 425 739 l 1 739 l 469 47 l 310 -279 l 682 -279 l 1247 739 l 824 739 l 642 382 m 742 879 l 1071 1079 l 667 1079 l 500 879 l 742 879 "},"þ":{"ha":1292,"x_min":96,"x_max":1246,"o":"m 822 -14 q 1134 90 1022 -14 q 1246 374 1246 193 q 1135 653 1246 554 q 822 753 1025 753 q 481 611 586 753 l 474 611 l 474 1014 l 96 1014 l 96 -279 l 474 -279 l 474 122 l 481 122 q 822 -14 596 -14 m 816 261 q 672 222 764 222 q 529 261 581 222 q 478 374 478 300 q 529 487 478 447 q 672 526 581 526 q 816 487 764 526 q 868 374 868 447 q 842 281 868 300 q 816 261 816 261 "},"ÿ":{"ha":1249,"x_min":1,"x_max":1247,"o":"m 642 382 l 636 382 l 425 739 l 1 739 l 469 47 l 310 -279 l 682 -279 l 1247 739 l 824 739 l 642 382 m 306 1102 q 261 1004 261 1067 q 306 906 261 942 q 428 871 351 871 q 549 906 504 871 q 594 1004 594 942 q 549 1102 594 1067 q 428 1138 504 1138 q 329 1120 351 1138 q 306 1102 306 1102 m 699 1102 q 654 1004 654 1067 q 698 906 653 942 q 819 871 743 871 q 941 906 896 871 q 986 1004 986 942 q 941 1102 986 1067 q 819 1138 896 1138 q 721 1120 743 1138 q 699 1102 699 1102 "},"Ā":{"ha":1432,"x_min":-6,"x_max":1438,"o":"m 438 972 l -6 0 l 408 0 l 471 149 l 960 149 l 1022 0 l 1438 0 l 993 972 l 438 972 m 357 1111 l 1074 1111 l 1074 1314 l 357 1314 l 357 1111 m 711 714 l 719 714 l 857 389 l 574 389 l 711 714 "},"ā":{"ha":1163,"x_min":31,"x_max":1074,"o":"m 533 753 q 285 738 435 753 q 99 703 144 724 l 99 450 q 257 499 140 476 q 475 522 379 522 q 635 490 581 522 q 689 407 689 457 l 689 401 q 418 439 583 439 q 135 381 239 439 q 31 215 31 322 q 128 47 31 107 q 381 -14 226 -14 q 713 99 628 -14 l 719 99 l 750 0 l 1074 0 l 1074 454 q 533 753 1074 753 m 222 878 l 939 878 l 939 1081 l 222 1081 l 222 878 m 686 281 q 528 165 683 165 q 404 235 404 165 q 558 308 404 308 q 686 283 625 308 l 686 281 "},"Ă":{"ha":1432,"x_min":-6,"x_max":1438,"o":"m 438 972 l -6 0 l 408 0 l 471 149 l 960 149 l 1022 0 l 1438 0 l 993 972 l 438 972 m 811 1303 q 778 1274 806 1288 q 715 1260 751 1260 q 672 1266 692 1260 q 642 1280 653 1272 q 624 1297 632 1288 q 615 1310 617 1307 q 613 1317 614 1314 l 410 1317 q 504 1167 429 1229 q 715 1103 581 1103 q 925 1167 849 1103 q 1021 1317 1003 1231 l 818 1317 l 811 1303 m 711 714 l 719 714 l 857 389 l 574 389 l 711 714 "},"ă":{"ha":1163,"x_min":31,"x_max":1074,"o":"m 533 753 q 285 738 435 753 q 99 703 144 724 l 99 450 q 257 499 140 476 q 475 522 379 522 q 635 490 581 522 q 689 407 689 457 l 689 401 q 418 439 583 439 q 135 381 239 439 q 31 215 31 322 q 128 47 31 107 q 381 -14 226 -14 q 713 99 628 -14 l 719 99 l 750 0 l 1074 0 l 1074 454 q 533 753 1074 753 m 678 1069 q 642 1040 669 1054 q 581 1026 615 1026 q 538 1033 557 1026 q 508 1047 518 1039 q 490 1064 497 1054 q 481 1077 482 1074 q 478 1083 479 1081 l 275 1083 q 369 933 294 996 q 581 869 446 869 q 790 933 714 869 q 886 1083 867 997 l 683 1083 l 678 1069 m 686 281 q 528 165 683 165 q 404 235 404 165 q 558 308 404 308 q 686 283 625 308 l 686 281 "},"Ą":{"ha":1432,"x_min":-6,"x_max":1438,"o":"m 1425 -204 q 1346 -226 1390 -226 q 1274 -207 1300 -226 q 1249 -154 1249 -187 q 1293 -65 1249 -110 q 1396 0 1340 -22 l 1438 0 l 993 972 l 438 972 l -6 0 l 408 0 l 471 149 l 960 149 l 1022 0 l 1143 0 q 1040 -72 1075 -24 q 1004 -178 1004 -121 q 1072 -310 1004 -265 q 1250 -356 1140 -356 q 1438 -314 1369 -356 l 1438 -197 l 1425 -204 m 711 714 l 719 714 l 857 389 l 574 389 l 711 714 "},"ą":{"ha":1163,"x_min":31,"x_max":1074,"o":"m 1028 -204 q 949 -226 993 -226 q 877 -207 903 -226 q 851 -154 851 -187 q 896 -65 851 -110 q 999 0 943 -22 l 1074 0 l 1074 454 q 533 753 1074 753 q 285 738 435 753 q 99 703 144 724 l 99 450 q 257 499 140 476 q 475 522 379 522 q 635 490 581 522 q 689 407 689 457 l 689 401 q 418 439 583 439 q 135 381 239 439 q 31 215 31 322 q 128 47 31 107 q 381 -14 226 -14 q 713 99 628 -14 l 719 99 l 749 1 q 643 -71 679 -24 q 607 -178 607 -118 q 675 -310 607 -265 q 853 -356 743 -356 q 1040 -314 972 -356 l 1040 -197 l 1028 -204 m 686 281 q 528 165 683 165 q 404 235 404 165 q 558 308 404 308 q 686 283 625 308 l 686 281 "},"Ć":{"ha":1288,"x_min":53,"x_max":1258,"o":"m 1257 350 q 1088 272 1217 303 q 844 242 961 242 q 549 305 657 242 q 442 486 442 368 q 548 669 442 607 q 844 731 654 731 q 1074 700 953 731 q 1232 628 1197 668 l 1232 936 q 803 986 1074 986 q 240 857 426 986 q 53 486 53 728 q 240 115 53 244 q 803 -14 426 -14 q 1050 0 924 -14 q 1258 39 1179 14 l 1257 350 m 779 1113 l 1108 1313 l 704 1313 l 538 1113 l 779 1113 "},"ć":{"ha":1067,"x_min":46,"x_max":1040,"o":"m 1040 279 q 901 238 1007 258 q 704 218 793 218 q 499 256 571 218 q 428 368 428 294 q 499 482 428 443 q 704 521 571 521 q 872 501 775 521 q 1011 460 965 483 l 1011 722 q 656 751 903 751 q 200 653 354 751 q 46 368 46 554 q 200 85 46 183 q 656 -14 354 -14 q 867 -6 742 -14 q 1040 17 996 3 l 1040 279 m 675 879 l 1004 1079 l 600 1079 l 433 879 l 675 879 "},"Ĉ":{"ha":1288,"x_min":53,"x_max":1258,"o":"m 1257 350 q 1088 272 1217 303 q 844 242 961 242 q 549 305 657 242 q 442 486 442 368 q 548 669 442 607 q 844 731 654 731 q 1074 700 953 731 q 1232 628 1197 668 l 1232 936 q 803 986 1074 986 q 240 857 426 986 q 53 486 53 728 q 240 115 53 244 q 803 -14 426 -14 q 1050 0 924 -14 q 1258 39 1179 14 l 1257 350 m 556 1111 l 644 1188 l 733 1111 l 1054 1111 l 838 1311 l 449 1311 l 232 1111 l 556 1111 "},"ĉ":{"ha":1067,"x_min":46,"x_max":1040,"o":"m 1040 279 q 901 238 1007 258 q 704 218 793 218 q 499 256 571 218 q 428 368 428 294 q 499 482 428 443 q 704 521 571 521 q 872 501 775 521 q 1011 460 965 483 l 1011 722 q 656 751 903 751 q 200 653 354 751 q 46 368 46 554 q 200 85 46 183 q 656 -14 354 -14 q 867 -6 742 -14 q 1040 17 996 3 l 1040 279 m 446 878 l 535 954 l 624 878 l 944 878 l 728 1078 l 339 1078 l 122 878 l 446 878 "},"Ċ":{"ha":1288,"x_min":53,"x_max":1258,"o":"m 1257 350 q 1088 272 1217 303 q 844 242 961 242 q 549 305 657 242 q 442 486 442 368 q 548 669 442 607 q 844 731 654 731 q 1074 700 953 731 q 1232 628 1197 668 l 1232 936 q 803 986 1074 986 q 240 857 426 986 q 53 486 53 728 q 240 115 53 244 q 803 -14 426 -14 q 1050 0 924 -14 q 1258 39 1179 14 l 1257 350 m 765 1141 q 810 1239 810 1176 q 765 1337 810 1301 q 643 1372 719 1372 q 522 1337 567 1372 q 476 1239 476 1301 q 522 1141 476 1176 q 643 1106 567 1106 q 742 1123 719 1106 q 765 1141 765 1141 "},"ċ":{"ha":1067,"x_min":46,"x_max":1040,"o":"m 1040 279 q 901 238 1007 258 q 704 218 793 218 q 499 256 571 218 q 428 368 428 294 q 499 482 428 443 q 704 521 571 521 q 872 501 775 521 q 1011 460 965 483 l 1011 722 q 656 751 903 751 q 200 653 354 751 q 46 368 46 554 q 200 85 46 183 q 656 -14 354 -14 q 867 -6 742 -14 q 1040 17 996 3 l 1040 279 m 655 908 q 700 1006 700 943 q 655 1103 700 1068 q 533 1139 610 1139 q 412 1103 457 1139 q 367 1006 367 1068 q 412 908 367 943 q 533 872 457 872 q 632 890 610 872 q 655 908 655 908 "},"Č":{"ha":1288,"x_min":53,"x_max":1258,"o":"m 1257 350 q 1088 272 1217 303 q 844 242 961 242 q 549 305 657 242 q 442 486 442 368 q 548 669 442 607 q 844 731 654 731 q 1074 700 953 731 q 1232 628 1197 668 l 1232 936 q 803 986 1074 986 q 240 857 426 986 q 53 486 53 728 q 240 115 53 244 q 803 -14 426 -14 q 1050 0 924 -14 q 1258 39 1179 14 l 1257 350 m 838 1111 l 1054 1311 l 733 1311 l 644 1235 l 556 1311 l 232 1311 l 449 1111 l 838 1111 "},"č":{"ha":1067,"x_min":46,"x_max":1040,"o":"m 1040 279 q 901 238 1007 258 q 704 218 793 218 q 499 256 571 218 q 428 368 428 294 q 499 482 428 443 q 704 521 571 521 q 872 501 775 521 q 1011 460 965 483 l 1011 722 q 656 751 903 751 q 200 653 354 751 q 46 368 46 554 q 200 85 46 183 q 656 -14 354 -14 q 867 -6 742 -14 q 1040 17 996 3 l 1040 279 m 728 878 l 944 1078 l 624 1078 l 535 1001 l 446 1078 l 122 1078 l 339 878 l 728 878 "},"Ď":{"ha":1475,"x_min":117,"x_max":1422,"o":"m 117 0 l 788 0 q 1257 129 1092 0 q 1422 486 1422 261 q 1257 842 1422 713 q 788 972 1093 972 l 117 972 l 117 0 m 768 717 q 960 657 892 717 q 1029 486 1029 597 q 960 315 1029 375 q 768 256 892 256 l 504 256 l 504 717 l 768 717 m 932 1111 l 1149 1311 l 828 1311 l 739 1235 l 650 1311 l 326 1311 l 543 1111 l 932 1111 "},"ď":{"ha":1819,"x_min":46,"x_max":1786,"o":"m 469 753 q 158 649 269 753 q 46 365 46 546 q 156 85 46 185 q 469 -14 267 -14 q 822 128 717 -14 l 829 128 l 860 0 l 1196 0 l 1196 1014 l 818 1014 l 818 617 l 811 617 q 469 753 696 753 m 476 478 q 619 517 528 517 q 763 478 711 517 q 814 365 814 439 q 763 252 814 292 q 619 213 711 213 q 476 252 528 213 q 424 365 424 292 q 450 458 424 439 q 476 478 476 478 m 1419 938 q 1361 807 1361 890 q 1415 678 1361 728 q 1544 629 1472 629 l 1539 615 q 1456 544 1514 569 l 1554 422 q 1715 557 1646 457 q 1786 779 1786 654 q 1728 931 1786 875 q 1574 986 1669 986 q 1449 962 1478 986 q 1419 938 1419 938 "},"Đ":{"ha":1569,"x_min":-14,"x_max":1517,"o":"m 883 0 q 1353 129 1189 0 q 1517 486 1517 260 q 1353 842 1517 713 q 883 972 1189 972 l 213 972 l 213 549 l -14 549 l -14 424 l 213 424 l 213 0 l 883 0 m 883 424 l 883 549 l 600 549 l 600 717 l 864 717 q 1056 657 988 717 q 1125 486 1125 597 q 1056 315 1125 375 q 864 256 988 256 l 600 256 l 600 424 l 883 424 "},"đ":{"ha":1503,"x_min":46,"x_max":1450,"o":"m 1196 929 l 1196 1014 l 818 1014 l 818 929 l 553 929 l 553 804 l 818 804 l 818 619 l 811 619 q 469 753 697 753 q 156 651 267 753 q 46 369 46 550 q 157 88 46 189 q 469 -14 268 -14 q 822 140 706 -14 l 829 140 l 860 0 l 1196 0 l 1196 804 l 1450 804 l 1450 929 l 1196 929 m 619 217 q 476 256 528 217 q 424 369 424 296 q 476 483 424 443 q 619 522 528 522 q 763 483 711 522 q 814 369 814 443 q 762 257 814 297 q 619 217 710 217 "},"Ē":{"ha":1371,"x_min":117,"x_max":1328,"o":"m 504 256 l 504 382 l 1218 382 l 1218 601 l 504 601 l 504 717 l 1313 717 l 1313 972 l 117 972 l 117 0 l 1328 0 l 1328 256 l 504 256 m 326 1111 l 1043 1111 l 1043 1314 l 326 1314 l 326 1111 "},"ē":{"ha":1178,"x_min":46,"x_max":1140,"o":"m 1140 368 q 998 651 1140 550 q 594 753 856 753 q 189 649 332 753 q 46 368 46 547 q 194 88 46 190 q 611 -14 342 -14 q 1085 26 931 -14 l 1085 261 q 725 215 935 215 q 454 301 499 215 l 1139 301 l 1140 368 m 231 878 l 947 878 l 947 1081 l 231 1081 l 231 878 m 449 426 q 498 506 458 476 q 593 535 538 535 q 738 426 722 535 l 449 426 "},"Ĕ":{"ha":1371,"x_min":117,"x_max":1328,"o":"m 504 256 l 504 382 l 1218 382 l 1218 601 l 504 601 l 504 717 l 1313 717 l 1313 972 l 117 972 l 117 0 l 1328 0 l 1328 256 l 504 256 m 781 1303 q 748 1274 775 1288 q 685 1260 721 1260 q 642 1266 661 1260 q 612 1280 622 1272 q 594 1297 601 1288 q 585 1310 586 1307 q 582 1317 583 1314 l 379 1317 q 474 1167 399 1229 q 685 1103 550 1103 q 894 1167 818 1103 q 990 1317 972 1231 l 788 1317 l 781 1303 "},"ĕ":{"ha":1178,"x_min":46,"x_max":1140,"o":"m 1140 368 q 998 651 1140 550 q 594 753 856 753 q 189 649 332 753 q 46 368 46 547 q 194 88 46 190 q 611 -14 342 -14 q 1085 26 931 -14 l 1085 261 q 725 215 935 215 q 454 301 499 215 l 1139 301 l 1140 368 m 686 1069 q 651 1040 678 1054 q 589 1026 624 1026 q 546 1033 565 1026 q 516 1047 526 1039 q 498 1064 506 1054 q 489 1077 490 1074 q 486 1083 488 1081 l 283 1083 q 378 933 303 996 q 589 869 454 869 q 799 933 722 869 q 894 1083 875 997 l 692 1083 l 686 1069 m 449 426 q 498 506 458 476 q 593 535 538 535 q 738 426 722 535 l 449 426 "},"Ė":{"ha":1371,"x_min":117,"x_max":1328,"o":"m 504 256 l 504 382 l 1218 382 l 1218 601 l 504 601 l 504 717 l 1313 717 l 1313 972 l 117 972 l 117 0 l 1328 0 l 1328 256 l 504 256 m 806 1141 q 851 1239 851 1176 q 806 1337 851 1301 q 685 1372 761 1372 q 563 1337 608 1372 q 518 1239 518 1301 q 563 1141 518 1176 q 685 1106 608 1106 q 784 1123 761 1106 q 806 1141 806 1141 "},"ė":{"ha":1178,"x_min":46,"x_max":1140,"o":"m 1140 368 q 998 651 1140 550 q 594 753 856 753 q 189 649 332 753 q 46 368 46 547 q 194 88 46 190 q 611 -14 342 -14 q 1085 26 931 -14 l 1085 261 q 725 215 935 215 q 454 301 499 215 l 1139 301 l 1140 368 m 710 908 q 756 1006 756 943 q 710 1103 756 1068 q 589 1139 665 1139 q 467 1103 513 1139 q 422 1006 422 1068 q 467 908 422 943 q 589 872 513 872 q 688 890 665 872 q 710 908 710 908 m 449 426 q 498 506 458 476 q 593 535 538 535 q 738 426 722 535 l 449 426 "},"Ę":{"ha":1371,"x_min":117,"x_max":1369,"o":"m 1358 -204 q 1278 -226 1321 -226 q 1206 -207 1232 -226 q 1181 -154 1181 -187 q 1225 -65 1181 -110 q 1328 0 1272 -22 l 1328 256 l 504 256 l 504 382 l 1218 382 l 1218 601 l 504 601 l 504 717 l 1313 717 l 1313 972 l 117 972 l 117 0 l 1075 0 q 972 -72 1007 -24 q 936 -178 936 -121 q 1004 -310 936 -265 q 1182 -356 1072 -356 q 1369 -314 1300 -356 l 1369 -197 l 1358 -204 "},"ę":{"ha":1178,"x_min":46,"x_max":1140,"o":"m 794 -204 q 714 -226 757 -226 q 642 -207 668 -226 q 617 -154 617 -187 q 651 -76 617 -115 q 739 -11 686 -37 q 1085 26 986 0 l 1085 261 q 725 215 935 215 q 454 301 499 215 l 1139 301 l 1140 368 q 998 651 1140 550 q 594 753 856 753 q 189 649 332 753 q 46 368 46 547 q 162 112 46 210 q 492 -7 278 14 q 372 -178 372 -61 q 440 -310 372 -265 q 618 -356 508 -356 q 806 -314 736 -356 l 806 -197 l 794 -204 m 449 426 q 498 506 458 476 q 593 535 538 535 q 738 426 722 535 l 449 426 "},"Ě":{"ha":1371,"x_min":117,"x_max":1328,"o":"m 504 256 l 504 382 l 1218 382 l 1218 601 l 504 601 l 504 717 l 1313 717 l 1313 972 l 117 972 l 117 0 l 1328 0 l 1328 256 l 504 256 m 879 1111 l 1096 1311 l 775 1311 l 686 1235 l 597 1311 l 274 1311 l 490 1111 l 879 1111 "},"ě":{"ha":1178,"x_min":46,"x_max":1140,"o":"m 1140 368 q 998 651 1140 550 q 594 753 856 753 q 189 649 332 753 q 46 368 46 547 q 194 88 46 190 q 611 -14 342 -14 q 1085 26 931 -14 l 1085 261 q 725 215 935 215 q 454 301 499 215 l 1139 301 l 1140 368 m 783 878 l 1000 1078 l 679 1078 l 590 1001 l 501 1078 l 178 1078 l 394 878 l 783 878 m 449 426 q 498 506 458 476 q 593 535 538 535 q 738 426 722 535 l 449 426 "},"Ĝ":{"ha":1361,"x_min":46,"x_max":1314,"o":"m 803 -14 q 1075 15 914 -14 q 1314 82 1235 46 l 1314 563 l 688 563 l 688 369 l 928 369 l 928 244 q 839 236 875 236 q 546 299 647 236 q 444 486 444 363 q 844 731 444 731 q 1244 665 1082 731 l 1244 929 q 803 986 1019 986 q 236 856 426 986 q 46 486 46 726 q 236 116 46 246 q 803 -14 426 -14 m 593 1111 l 682 1188 l 771 1111 l 1092 1111 l 875 1311 l 486 1311 l 269 1111 l 593 1111 "},"ĝ":{"ha":1292,"x_min":46,"x_max":1196,"o":"m 832 607 l 825 607 q 469 753 719 753 q 156 653 267 753 q 46 374 46 554 q 158 90 46 193 q 469 -14 269 -14 q 819 125 710 -14 l 826 125 l 826 100 q 560 -71 826 -71 q 114 0 294 -71 l 114 -244 q 333 -278 185 -262 q 618 -293 490 -293 q 1040 -210 886 -293 q 1196 49 1196 -126 l 1196 739 l 860 739 l 832 607 m 558 878 l 647 954 l 736 878 l 1057 878 l 840 1078 l 451 1078 l 235 878 l 558 878 m 763 257 q 619 218 711 218 q 476 257 528 218 q 424 369 424 296 q 476 483 424 443 q 619 522 528 522 q 763 483 711 522 q 814 369 814 443 q 788 276 814 296 q 763 257 763 257 "},"Ğ":{"ha":1361,"x_min":46,"x_max":1314,"o":"m 803 -14 q 1075 15 914 -14 q 1314 82 1235 46 l 1314 563 l 688 563 l 688 369 l 928 369 l 928 244 q 839 236 875 236 q 546 299 647 236 q 444 486 444 363 q 844 731 444 731 q 1244 665 1082 731 l 1244 929 q 803 986 1019 986 q 236 856 426 986 q 46 486 46 726 q 236 116 46 246 q 803 -14 426 -14 m 778 1303 q 742 1274 769 1288 q 681 1260 715 1260 q 638 1266 657 1260 q 608 1280 618 1272 q 590 1297 597 1288 q 581 1310 582 1307 q 578 1317 579 1314 l 375 1317 q 469 1167 394 1229 q 681 1103 546 1103 q 890 1167 814 1103 q 986 1317 967 1231 l 783 1317 l 778 1303 "},"ğ":{"ha":1292,"x_min":46,"x_max":1196,"o":"m 832 607 l 825 607 q 469 753 719 753 q 156 653 267 753 q 46 374 46 554 q 158 90 46 193 q 469 -14 269 -14 q 819 125 710 -14 l 826 125 l 826 100 q 560 -71 826 -71 q 114 0 294 -71 l 114 -244 q 333 -278 185 -262 q 618 -293 490 -293 q 1040 -210 886 -293 q 1196 49 1196 -126 l 1196 739 l 860 739 l 832 607 m 763 257 q 619 218 711 218 q 476 257 528 218 q 424 369 424 296 q 476 483 424 443 q 619 522 528 522 q 763 483 711 522 q 814 369 814 443 q 788 276 814 296 q 763 257 763 257 m 742 1069 q 709 1040 736 1054 q 646 1026 682 1026 q 603 1033 622 1026 q 573 1047 583 1039 q 555 1064 563 1054 q 546 1077 547 1074 q 543 1083 544 1081 l 340 1083 q 435 933 360 996 q 646 869 511 869 q 856 933 779 869 q 951 1083 933 997 l 749 1083 l 742 1069 "},"Ġ":{"ha":1361,"x_min":46,"x_max":1314,"o":"m 803 -14 q 1075 15 914 -14 q 1314 82 1235 46 l 1314 563 l 688 563 l 688 369 l 928 369 l 928 244 q 839 236 875 236 q 546 299 647 236 q 444 486 444 363 q 844 731 444 731 q 1244 665 1082 731 l 1244 929 q 803 986 1019 986 q 236 856 426 986 q 46 486 46 726 q 236 116 46 246 q 803 -14 426 -14 m 802 1141 q 847 1239 847 1176 q 802 1337 847 1301 q 681 1372 757 1372 q 559 1337 604 1372 q 514 1239 514 1301 q 559 1141 514 1176 q 681 1106 604 1106 q 780 1123 757 1106 q 802 1141 802 1141 "},"ġ":{"ha":1292,"x_min":46,"x_max":1196,"o":"m 832 607 l 825 607 q 469 753 719 753 q 156 653 267 753 q 46 374 46 554 q 158 90 46 193 q 469 -14 269 -14 q 819 125 710 -14 l 826 125 l 826 100 q 560 -71 826 -71 q 114 0 294 -71 l 114 -244 q 333 -278 185 -262 q 618 -293 490 -293 q 1040 -210 886 -293 q 1196 49 1196 -126 l 1196 739 l 860 739 l 832 607 m 763 257 q 619 218 711 218 q 476 257 528 218 q 424 369 424 296 q 476 483 424 443 q 619 522 528 522 q 763 483 711 522 q 814 369 814 443 q 788 276 814 296 q 763 257 763 257 m 767 908 q 813 1006 813 943 q 767 1103 813 1068 q 646 1139 722 1139 q 524 1103 569 1139 q 479 1006 479 1068 q 524 908 479 943 q 646 872 569 872 q 745 890 722 872 q 767 908 767 908 "},"Ģ":{"ha":1365,"x_min":46,"x_max":1314,"o":"m 803 -14 q 1075 15 914 -14 q 1314 82 1235 46 l 1314 563 l 688 563 l 688 369 l 928 369 l 928 244 q 839 236 875 236 q 546 299 647 236 q 444 486 444 363 q 844 731 444 731 q 1244 665 1082 731 l 1244 929 q 803 986 1019 986 q 236 856 426 986 q 46 486 46 726 q 236 116 46 246 q 803 -14 426 -14 m 528 -142 q 469 -274 469 -190 q 524 -401 469 -353 q 653 -451 581 -451 l 647 -465 q 564 -536 622 -511 l 663 -658 q 824 -524 754 -624 q 894 -301 894 -425 q 836 -150 894 -206 q 682 -94 778 -94 q 557 -118 586 -94 q 528 -142 528 -142 "},"ģ":{"ha":1292,"x_min":46,"x_max":1196,"o":"m 832 607 l 825 607 q 469 753 719 753 q 156 653 267 753 q 46 374 46 554 q 158 90 46 193 q 469 -14 269 -14 q 819 125 710 -14 l 826 125 l 826 100 q 560 -71 826 -71 q 114 0 294 -71 l 114 -244 q 333 -278 185 -262 q 618 -293 490 -293 q 1040 -210 886 -293 q 1196 49 1196 -126 l 1196 739 l 860 739 l 832 607 m 861 915 q 919 1046 919 963 q 864 1174 919 1126 q 736 1224 810 1224 l 742 1238 q 825 1308 767 1283 l 726 1431 q 564 1296 636 1396 q 494 1074 494 1197 q 553 922 494 978 q 707 867 611 867 q 832 891 803 867 q 861 915 861 915 m 763 257 q 619 218 711 218 q 476 257 528 218 q 424 369 424 296 q 476 483 424 443 q 619 522 528 522 q 763 483 711 522 q 814 369 814 443 q 788 276 814 296 q 763 257 763 257 "},"Ĥ":{"ha":1474,"x_min":117,"x_max":1357,"o":"m 969 344 l 969 0 l 1357 0 l 1357 972 l 969 972 l 969 628 l 504 628 l 504 972 l 117 972 l 117 0 l 504 0 l 504 344 l 969 344 m 649 1111 l 738 1188 l 826 1111 l 1147 1111 l 931 1311 l 542 1311 l 325 1111 l 649 1111 "},"ĥ":{"ha":1331,"x_min":-124,"x_max":1242,"o":"m 818 753 q 481 631 590 753 l 474 631 l 474 1014 l 96 1014 l 96 0 l 474 0 l 474 381 q 526 485 474 449 q 668 522 578 522 q 812 485 761 522 q 863 374 863 447 l 863 0 l 1242 0 l 1242 374 q 1131 653 1242 554 q 818 753 1021 753 m 200 1111 l 289 1188 l 378 1111 l 699 1111 l 482 1311 l 93 1311 l -124 1111 l 200 1111 "},"Ħ":{"ha":1671,"x_min":-17,"x_max":1672,"o":"m 596 628 l 596 736 l 1061 736 l 1061 628 l 596 628 m 1449 972 l 1061 972 l 1061 847 l 596 847 l 596 972 l 208 972 l 208 847 l -17 847 l -17 736 l 208 736 l 208 0 l 596 0 l 596 344 l 1061 344 l 1061 0 l 1449 0 l 1449 736 l 1672 736 l 1672 847 l 1449 847 l 1449 972 "},"ħ":{"ha":1465,"x_min":-17,"x_max":1376,"o":"m 953 753 q 615 631 725 753 l 608 631 l 608 792 l 881 792 l 881 918 l 608 918 l 608 1014 l 231 1014 l 231 918 l -17 918 l -17 792 l 231 792 l 231 0 l 608 0 l 608 383 q 660 488 608 451 q 803 525 713 525 q 946 487 894 525 q 997 376 997 449 l 997 0 l 1376 0 l 1376 376 q 1267 654 1376 556 q 953 753 1157 753 "},"Ĩ":{"ha":621,"x_min":-12,"x_max":633,"o":"m 117 972 l 117 0 l 504 0 l 504 972 l 117 972 m 56 1133 q 194 1188 119 1193 q 251 1175 222 1188 q 319 1156 267 1174 q 431 1128 400 1133 q 531 1132 475 1122 q 633 1182 588 1143 l 565 1408 q 478 1358 528 1372 q 424 1354 468 1354 q 394 1360 417 1354 q 367 1365 371 1365 q 335 1375 346 1372 q 300 1386 303 1386 q 189 1413 224 1407 q 89 1410 147 1421 q -12 1360 31 1399 l 56 1133 "},"ĩ":{"ha":583,"x_min":-31,"x_max":615,"o":"m 93 0 l 471 0 l 471 739 l 93 739 l 93 0 m 38 900 q 176 954 101 960 q 233 942 204 954 q 301 922 249 940 q 413 894 382 900 q 513 899 456 889 q 615 949 569 910 l 547 1175 q 460 1125 510 1139 q 406 1121 450 1121 q 376 1126 399 1121 q 349 1132 353 1132 q 317 1142 328 1139 q 282 1153 285 1153 q 171 1179 206 1174 q 71 1176 129 1188 q -31 1126 13 1165 l 38 900 "},"Ī":{"ha":621,"x_min":-47,"x_max":669,"o":"m 117 972 l 117 0 l 504 0 l 504 972 l 117 972 m -47 1111 l 669 1111 l 669 1314 l -47 1314 l -47 1111 "},"ī":{"ha":583,"x_min":-67,"x_max":650,"o":"m 93 0 l 471 0 l 471 739 l 93 739 l 93 0 m -67 878 l 650 878 l 650 1081 l -67 1081 l -67 878 "},"Į":{"ha":621,"x_min":71,"x_max":504,"o":"m 492 -204 q 413 -226 457 -226 q 341 -207 367 -226 q 315 -154 315 -187 q 360 -65 315 -110 q 463 0 407 -22 l 504 0 l 504 972 l 117 972 l 117 0 l 210 0 q 106 -72 142 -24 q 71 -178 71 -121 q 139 -310 71 -265 q 317 -356 207 -356 q 504 -314 436 -356 l 504 -197 l 492 -204 "},"į":{"ha":583,"x_min":44,"x_max":483,"o":"m 467 -204 q 386 -226 429 -226 q 315 -207 340 -226 q 289 -154 289 -187 q 333 -65 289 -110 q 436 0 381 -22 l 471 0 l 471 739 l 93 739 l 93 0 l 183 0 q 80 -72 115 -24 q 44 -178 44 -121 q 113 -310 44 -265 q 290 -356 181 -356 q 478 -314 408 -356 l 478 -197 l 467 -204 m 281 807 q 428 851 374 806 q 483 976 483 897 q 429 1101 483 1056 q 282 1147 375 1147 q 134 1101 189 1147 q 79 976 79 1056 q 133 852 79 897 q 281 807 188 807 "},"İ":{"ha":621,"x_min":117,"x_max":504,"o":"m 117 972 l 117 0 l 504 0 l 504 972 l 117 972 m 431 1141 q 476 1239 476 1176 q 431 1337 476 1301 q 310 1372 386 1372 q 188 1337 233 1372 q 143 1239 143 1301 q 188 1141 143 1176 q 310 1106 233 1106 q 409 1123 386 1106 q 431 1141 431 1141 "},"ı":{"ha":583,"x_min":93,"x_max":471,"o":"m 93 0 l 471 0 l 471 739 l 93 739 l 93 0 "},"Ĳ":{"ha":1201,"x_min":117,"x_max":1103,"o":"m 713 75 q 499 -60 713 -60 l 499 -293 l 532 -293 q 668 -292 639 -293 q 786 -285 706 -292 q 896 -264 860 -279 q 979 -222 931 -250 q 1046 -161 1025 -199 q 1086 -54 1067 -124 q 1103 86 1103 6 l 1103 972 l 713 972 l 713 75 m 117 972 l 117 0 l 504 0 l 504 972 l 117 972 "},"ĳ":{"ha":1238,"x_min":79,"x_max":1138,"o":"m 735 76 q 519 -58 735 -58 l 519 -292 l 553 -292 q 689 -290 660 -292 q 804 -283 724 -290 q 911 -262 878 -276 q 993 -221 942 -250 q 1057 -160 1036 -197 q 1096 -53 1078 -122 q 1113 88 1113 8 l 1113 738 l 735 738 l 735 76 m 93 0 l 471 0 l 471 739 l 93 739 l 93 0 m 924 804 q 1080 852 1022 804 q 1138 976 1138 900 q 1080 1101 1138 1053 q 924 1150 1022 1150 q 765 1101 822 1150 q 708 976 708 1053 q 765 852 708 900 q 924 804 822 804 m 281 807 q 428 851 374 806 q 483 976 483 897 q 429 1101 483 1056 q 282 1147 375 1147 q 134 1101 189 1147 q 79 976 79 1056 q 133 852 79 897 q 281 807 188 807 "},"Ĵ":{"ha":517,"x_min":-186,"x_max":669,"o":"m 28 75 q -186 -60 28 -60 l -186 -293 l -153 -293 q -15 -292 -44 -293 q 101 -285 21 -292 q 211 -264 175 -279 q 294 -222 247 -250 q 361 -161 340 -199 q 401 -54 382 -124 q 418 86 418 6 l 418 972 l 28 972 l 28 75 m 171 1111 l 260 1188 l 349 1111 l 669 1111 l 453 1311 l 64 1311 l -153 1111 l 171 1111 "},"ĵ":{"ha":590,"x_min":-128,"x_max":703,"o":"m 88 76 q -128 -58 88 -58 l -128 -292 l -94 -292 q 42 -290 13 -292 q 157 -283 76 -290 q 264 -262 231 -276 q 346 -221 294 -250 q 410 -160 389 -197 q 449 -53 431 -122 q 465 88 465 8 l 465 738 l 88 738 l 88 76 m 204 878 l 293 954 l 382 878 l 703 878 l 486 1078 l 97 1078 l -119 878 l 204 878 "},"Ķ":{"ha":1446,"x_min":117,"x_max":1460,"o":"m 672 340 l 982 0 l 1460 0 l 964 564 l 1418 972 l 894 972 l 511 625 l 504 625 l 504 972 l 117 972 l 117 0 l 504 0 l 504 183 l 672 340 m 568 -142 q 510 -274 510 -190 q 564 -401 510 -353 q 693 -451 619 -451 l 686 -465 q 657 -502 681 -481 q 604 -536 633 -524 l 703 -658 q 864 -524 794 -624 q 935 -301 935 -425 q 876 -150 935 -206 q 722 -94 818 -94 q 597 -118 626 -94 q 568 -142 568 -142 "},"ķ":{"ha":1267,"x_min":96,"x_max":1282,"o":"m 1282 0 l 878 463 l 1254 739 l 781 739 l 474 479 l 474 1014 l 96 1014 l 96 0 l 474 0 l 474 138 l 603 254 l 817 0 l 1282 0 m 479 -142 q 421 -274 421 -190 q 475 -401 421 -353 q 604 -451 531 -451 l 597 -465 q 568 -502 592 -481 q 515 -536 544 -524 l 614 -658 q 775 -524 706 -624 q 846 -301 846 -425 q 788 -150 846 -206 q 633 -94 729 -94 q 508 -118 538 -94 q 479 -142 479 -142 "},"ĸ":{"ha":1267,"x_min":96,"x_max":1282,"o":"m 1282 0 l 878 463 l 1254 739 l 781 739 l 474 479 l 474 739 l 96 739 l 96 0 l 474 0 l 474 138 l 603 254 l 817 0 l 1282 0 "},"Ĺ":{"ha":1274,"x_min":117,"x_max":1274,"o":"m 504 256 l 504 972 l 117 972 l 117 0 l 1274 0 l 1274 256 l 504 256 m 417 1113 l 746 1313 l 342 1313 l 175 1113 l 417 1113 "},"ĺ":{"ha":578,"x_min":100,"x_max":740,"o":"m 100 0 l 478 0 l 478 1014 l 100 1014 l 100 0 m 411 1113 l 740 1313 l 336 1313 l 169 1113 l 411 1113 "},"Ļ":{"ha":1274,"x_min":117,"x_max":1274,"o":"m 504 256 l 504 972 l 117 972 l 117 0 l 1274 0 l 1274 256 l 504 256 m 482 -142 q 424 -274 424 -190 q 478 -401 424 -353 q 607 -451 533 -451 l 600 -465 q 571 -502 594 -481 q 518 -536 547 -524 l 617 -658 q 778 -524 708 -624 q 849 -301 849 -425 q 790 -150 849 -206 q 636 -94 732 -94 q 511 -118 540 -94 q 482 -142 482 -142 "},"ļ":{"ha":578,"x_min":76,"x_max":501,"o":"m 100 0 l 478 0 l 478 1014 l 100 1014 l 100 0 m 135 -142 q 76 -274 76 -190 q 131 -401 76 -353 q 260 -451 186 -451 l 253 -465 q 224 -502 247 -481 q 171 -536 200 -524 l 269 -658 q 431 -524 361 -624 q 501 -301 501 -425 q 443 -150 501 -206 q 289 -94 385 -94 q 164 -118 193 -94 q 135 -142 135 -142 "},"Ľ":{"ha":1274,"x_min":117,"x_max":1274,"o":"m 504 256 l 504 972 l 117 972 l 117 0 l 1274 0 l 1274 256 l 504 256 m 779 938 q 721 807 721 890 q 775 678 721 728 q 904 629 832 629 l 897 615 q 868 578 892 600 q 815 544 844 557 l 914 422 q 1075 557 1006 457 q 1146 779 1146 654 q 1088 931 1146 875 q 933 986 1029 986 q 808 962 838 986 q 779 938 779 938 "},"ľ":{"ha":1133,"x_min":100,"x_max":1100,"o":"m 100 0 l 478 0 l 478 1014 l 100 1014 l 100 0 m 733 938 q 675 807 675 890 q 729 678 675 728 q 858 629 786 629 l 853 615 q 769 544 828 569 l 868 422 q 1029 557 960 457 q 1100 779 1100 654 q 1042 931 1100 875 q 888 986 983 986 q 763 962 792 986 q 733 938 733 938 "},"Ŀ":{"ha":1274,"x_min":117,"x_max":1274,"o":"m 504 256 l 504 972 l 117 972 l 117 0 l 1274 0 l 1274 256 l 504 256 m 1136 554 q 1076 697 1136 642 q 924 753 1017 753 q 769 697 829 753 q 710 556 710 642 q 769 411 710 467 q 924 356 829 356 q 1075 411 1015 356 q 1136 554 1136 468 "},"ŀ":{"ha":1135,"x_min":100,"x_max":1101,"o":"m 100 0 l 478 0 l 478 1014 l 100 1014 l 100 0 m 1101 553 q 1042 696 1101 640 q 889 751 982 751 q 735 696 794 751 q 675 554 675 640 q 735 410 675 465 q 889 354 794 354 q 1040 410 981 354 q 1101 553 1101 467 "},"Ł":{"ha":1354,"x_min":-17,"x_max":1354,"o":"m 1353 256 l 585 256 l 585 511 l 822 618 l 771 732 l 589 651 l 585 654 l 585 972 l 196 972 l 196 476 l -17 382 l 35 267 l 190 336 l 196 333 l 196 0 l 1354 0 l 1353 256 "},"ł":{"ha":761,"x_min":-17,"x_max":778,"o":"m 556 1014 l 178 1014 l 178 489 l -17 403 l 35 289 l 172 350 l 178 346 l 178 0 l 556 0 l 556 521 l 778 619 l 726 733 l 561 660 l 556 664 l 556 1014 "},"Ń":{"ha":1468,"x_min":117,"x_max":1351,"o":"m 981 503 l 974 503 l 489 972 l 117 972 l 117 0 l 489 0 l 489 465 l 496 465 l 974 0 l 1351 0 l 1351 972 l 981 972 l 981 503 m 814 1113 l 1143 1313 l 739 1313 l 572 1113 l 814 1113 "},"ń":{"ha":1331,"x_min":96,"x_max":1242,"o":"m 818 753 q 465 610 571 753 l 458 610 l 432 739 l 96 739 l 96 0 l 474 0 l 474 379 q 526 484 475 447 q 668 521 578 521 q 813 483 761 521 q 864 374 864 446 l 864 0 l 1242 0 l 1242 374 q 1131 653 1242 553 q 818 753 1021 753 m 743 879 l 1072 1079 l 668 1079 l 501 879 l 743 879 "},"Ņ":{"ha":1468,"x_min":117,"x_max":1351,"o":"m 981 503 l 974 503 l 489 972 l 117 972 l 117 0 l 489 0 l 489 465 l 496 465 l 974 0 l 1351 0 l 1351 972 l 981 972 l 981 503 m 579 -142 q 521 -274 521 -190 q 575 -401 521 -353 q 704 -451 631 -451 l 697 -465 q 668 -502 692 -481 q 615 -536 644 -524 l 714 -658 q 875 -524 806 -624 q 946 -301 946 -425 q 888 -150 946 -206 q 733 -94 829 -94 q 608 -118 638 -94 q 579 -142 579 -142 "},"ņ":{"ha":1331,"x_min":96,"x_max":1242,"o":"m 818 753 q 465 610 571 753 l 458 610 l 432 739 l 96 739 l 96 0 l 474 0 l 474 379 q 526 484 475 447 q 668 521 578 521 q 813 483 761 521 q 864 374 864 446 l 864 0 l 1242 0 l 1242 374 q 1131 653 1242 553 q 818 753 1021 753 m 511 -142 q 453 -274 453 -190 q 507 -401 453 -353 q 636 -451 564 -451 l 631 -465 q 547 -536 606 -511 l 646 -658 q 807 -524 738 -624 q 878 -301 878 -425 q 819 -150 878 -206 q 665 -94 761 -94 q 540 -118 569 -94 q 511 -142 511 -142 "},"Ň":{"ha":1468,"x_min":117,"x_max":1351,"o":"m 981 503 l 974 503 l 489 972 l 117 972 l 117 0 l 489 0 l 489 465 l 496 465 l 974 0 l 1351 0 l 1351 972 l 981 972 l 981 503 m 928 1111 l 1144 1311 l 824 1311 l 735 1235 l 646 1311 l 322 1311 l 539 1111 l 928 1111 "},"ň":{"ha":1331,"x_min":96,"x_max":1242,"o":"m 818 753 q 465 610 571 753 l 458 610 l 432 739 l 96 739 l 96 0 l 474 0 l 474 379 q 526 484 475 447 q 668 521 578 521 q 813 483 761 521 q 864 374 864 446 l 864 0 l 1242 0 l 1242 374 q 1131 653 1242 553 q 818 753 1021 753 m 860 878 l 1076 1078 l 756 1078 l 667 1001 l 578 1078 l 254 1078 l 471 878 l 860 878 "},"ŉ":{"ha":1793,"x_min":43,"x_max":1704,"o":"m 1281 753 q 928 610 1033 753 l 921 610 l 894 739 l 558 739 l 558 0 l 936 0 l 936 379 q 989 484 938 447 q 1131 521 1040 521 q 1275 483 1224 521 q 1326 374 1326 446 l 1326 0 l 1704 0 l 1704 374 q 1594 653 1704 553 q 1281 753 1483 753 m 101 938 q 43 807 43 890 q 97 678 43 728 q 226 629 154 629 l 219 615 q 190 578 214 600 q 138 544 167 557 l 236 422 q 397 557 328 457 q 468 779 468 654 q 410 931 468 875 q 256 986 351 986 q 131 962 160 986 q 101 938 101 938 "},"Ŋ":{"ha":1482,"x_min":117,"x_max":1365,"o":"m 976 507 l 969 507 l 489 972 l 117 972 l 117 0 l 489 0 l 489 465 l 496 465 l 965 7 q 901 -47 949 -32 q 761 -61 853 -61 l 763 -293 l 826 -293 q 974 -294 904 -297 q 1104 -282 1044 -290 q 1212 -249 1164 -274 q 1294 -186 1260 -225 q 1347 -82 1328 -147 q 1365 72 1365 -17 l 1365 972 l 976 972 l 976 507 "},"ŋ":{"ha":1338,"x_min":96,"x_max":1242,"o":"m 1242 378 q 1131 655 1242 557 q 818 753 1021 753 q 464 611 569 753 l 458 611 l 432 739 l 96 739 l 96 0 l 474 0 l 474 381 q 526 487 475 450 q 668 524 578 524 q 811 485 760 524 q 863 375 863 447 l 863 75 q 647 -60 863 -60 l 649 -293 l 682 -293 q 868 -290 790 -293 q 1015 -268 919 -289 q 1142 -211 1104 -249 q 1242 88 1242 -114 l 1242 378 "},"Ō":{"ha":1417,"x_min":32,"x_max":1385,"o":"m 708 242 q 499 306 576 242 q 422 486 422 369 q 499 667 422 603 q 708 731 576 731 q 916 667 839 731 q 993 486 993 603 q 916 306 993 369 q 708 242 839 242 m 211 851 q 32 486 32 717 q 211 121 32 257 q 708 -14 389 -14 q 1206 121 1028 -14 q 1385 486 1385 256 q 1206 851 1385 717 q 708 986 1028 986 q 211 851 389 986 m 350 1111 l 1067 1111 l 1067 1314 l 350 1314 l 350 1111 "},"ō":{"ha":1200,"x_min":46,"x_max":1154,"o":"m 775 369 q 728 258 775 297 q 600 218 682 218 q 470 257 517 218 q 424 369 424 296 q 470 483 424 443 q 600 522 517 522 q 728 483 682 522 q 775 369 775 443 m 191 88 q 600 -14 336 -14 q 1008 88 863 -14 q 1154 369 1154 189 q 1009 651 1154 550 q 600 753 864 753 q 191 651 336 753 q 46 369 46 550 q 118 138 46 189 q 191 88 191 88 m 242 878 l 958 878 l 958 1081 l 242 1081 l 242 878 "},"Ŏ":{"ha":1417,"x_min":32,"x_max":1385,"o":"m 708 242 q 499 306 576 242 q 422 486 422 369 q 499 667 422 603 q 708 731 576 731 q 916 667 839 731 q 993 486 993 603 q 916 306 993 369 q 708 242 839 242 m 211 851 q 32 486 32 717 q 211 121 32 257 q 708 -14 389 -14 q 1206 121 1028 -14 q 1385 486 1385 256 q 1206 851 1385 717 q 708 986 1028 986 q 211 851 389 986 m 806 1303 q 770 1274 797 1288 q 708 1260 743 1260 q 665 1266 685 1260 q 635 1280 646 1272 q 617 1297 625 1288 q 608 1310 610 1307 q 606 1317 607 1314 l 403 1317 q 497 1167 422 1229 q 708 1103 574 1103 q 918 1167 842 1103 q 1014 1317 994 1231 l 811 1317 l 806 1303 "},"ŏ":{"ha":1200,"x_min":46,"x_max":1154,"o":"m 775 369 q 728 258 775 297 q 600 218 682 218 q 470 257 517 218 q 424 369 424 296 q 470 483 424 443 q 600 522 517 522 q 728 483 682 522 q 775 369 775 443 m 191 88 q 600 -14 336 -14 q 1008 88 863 -14 q 1154 369 1154 189 q 1009 651 1154 550 q 600 753 864 753 q 191 651 336 753 q 46 369 46 550 q 118 138 46 189 q 191 88 191 88 m 703 1083 l 697 1069 q 665 1041 690 1056 q 600 1026 639 1026 q 539 1040 565 1026 q 504 1069 513 1054 l 497 1083 l 294 1083 q 389 933 314 996 q 600 869 465 869 q 810 933 733 869 q 906 1083 886 997 l 703 1083 "},"Ő":{"ha":1417,"x_min":32,"x_max":1385,"o":"m 708 242 q 499 306 576 242 q 422 486 422 369 q 499 667 422 603 q 708 731 576 731 q 916 667 839 731 q 993 486 993 603 q 916 306 993 369 q 708 242 839 242 m 211 851 q 32 486 32 717 q 211 121 32 257 q 708 -14 389 -14 q 1206 121 1028 -14 q 1385 486 1385 256 q 1206 851 1385 717 q 708 986 1028 986 q 211 851 389 986 m 919 1311 l 735 1111 l 1049 1111 l 1233 1311 l 919 1311 m 532 1311 l 347 1111 l 661 1111 l 846 1311 l 532 1311 "},"ő":{"ha":1200,"x_min":46,"x_max":1154,"o":"m 775 369 q 728 258 775 297 q 600 218 682 218 q 470 257 517 218 q 424 369 424 296 q 470 483 424 443 q 600 522 517 522 q 728 483 682 522 q 775 369 775 443 m 191 88 q 600 -14 336 -14 q 1008 88 863 -14 q 1154 369 1154 189 q 1009 651 1154 550 q 600 753 864 753 q 191 651 336 753 q 46 369 46 550 q 118 138 46 189 q 191 88 191 88 m 815 1078 l 631 878 l 944 878 l 1129 1078 l 815 1078 m 428 1078 l 243 878 l 557 878 l 742 1078 l 428 1078 "},"Œ":{"ha":2292,"x_min":53,"x_max":2239,"o":"m 2239 254 l 1415 254 l 1415 381 l 2129 381 l 2129 601 l 1415 601 l 1415 717 l 2224 717 l 2224 972 l 1039 972 q 826 986 936 986 q 253 851 454 986 q 53 485 53 717 q 253 119 53 253 q 826 -14 456 -14 q 1050 0 957 -14 l 2239 0 l 2239 254 m 793 242 q 529 304 624 242 q 435 485 435 367 q 529 667 435 603 q 793 731 624 731 q 1028 683 938 731 l 1028 286 q 793 242 939 242 "},"œ":{"ha":1914,"x_min":46,"x_max":1876,"o":"m 1876 369 q 1741 651 1876 550 q 1361 753 1606 753 q 963 626 1115 753 l 957 626 q 557 753 817 753 q 185 650 325 753 q 46 369 46 549 q 185 89 46 190 q 557 -14 325 -14 q 960 113 821 -14 l 964 113 q 1390 -14 1119 -14 q 1822 25 1668 -14 l 1822 257 q 1461 211 1672 211 q 1190 303 1233 211 l 1875 303 l 1876 369 m 596 217 q 467 256 514 217 q 421 369 421 296 q 467 483 421 443 q 596 522 514 522 q 726 483 679 522 q 772 369 772 443 q 726 256 772 296 q 596 217 679 217 m 1186 428 q 1249 504 1204 476 q 1353 532 1294 532 q 1519 428 1500 532 l 1186 428 "},"Ŕ":{"ha":1439,"x_min":117,"x_max":1410,"o":"m 504 521 l 504 718 l 813 718 q 931 693 889 718 q 974 619 974 668 q 931 546 974 571 q 813 521 889 521 l 504 521 m 1356 181 q 1310 342 1340 294 q 1160 422 1272 404 l 1160 429 q 1360 676 1360 503 q 1230 899 1360 825 q 814 972 1100 972 l 117 972 l 117 0 l 504 0 l 504 290 l 796 290 q 906 263 869 290 q 950 178 943 235 q 992 0 960 49 l 1410 0 q 1375 64 1385 29 q 1356 181 1367 92 m 754 1113 l 1083 1313 l 679 1313 l 513 1113 l 754 1113 "},"ŕ":{"ha":807,"x_min":96,"x_max":817,"o":"m 461 597 l 432 739 l 96 739 l 96 0 l 474 0 l 474 293 q 503 378 475 342 q 574 432 532 414 q 665 461 617 450 q 752 469 713 472 q 817 463 792 467 l 817 753 q 468 597 569 753 l 461 597 m 406 879 l 735 1079 l 331 1079 l 164 879 l 406 879 "},"Ŗ":{"ha":1439,"x_min":117,"x_max":1406,"o":"m 504 521 l 504 718 l 813 718 q 931 693 889 718 q 974 619 974 668 q 931 546 974 571 q 813 521 889 521 l 504 521 m 1363 181 q 1307 350 1349 293 q 1160 422 1268 404 l 1160 429 q 1360 676 1360 503 q 1230 899 1360 825 q 814 972 1100 972 l 117 972 l 117 0 l 504 0 l 504 290 l 714 290 q 888 272 833 290 q 963 181 957 250 q 1000 0 975 47 l 1406 0 q 1393 16 1399 6 q 1385 35 1388 26 q 1378 61 1382 44 q 1374 82 1375 78 l 1368 128 q 1363 181 1367 143 m 565 -142 q 507 -274 507 -190 q 561 -401 507 -353 q 690 -451 617 -451 l 683 -465 q 654 -502 678 -481 q 601 -536 631 -524 l 700 -658 q 861 -524 792 -624 q 932 -301 932 -425 q 874 -150 932 -206 q 719 -94 815 -94 q 594 -118 624 -94 q 565 -142 565 -142 "},"ŗ":{"ha":807,"x_min":71,"x_max":817,"o":"m 461 597 l 432 739 l 96 739 l 96 0 l 474 0 l 474 293 q 503 378 475 342 q 574 432 532 414 q 665 461 617 450 q 752 469 713 472 q 817 463 792 467 l 817 753 q 468 597 569 753 l 461 597 m 129 -142 q 71 -274 71 -190 q 125 -401 71 -353 q 254 -451 181 -451 l 247 -465 q 218 -502 242 -481 q 165 -536 194 -524 l 264 -658 q 425 -524 356 -624 q 496 -301 496 -425 q 438 -150 496 -206 q 283 -94 379 -94 q 158 -118 188 -94 q 129 -142 129 -142 "},"Ř":{"ha":1439,"x_min":117,"x_max":1410,"o":"m 504 521 l 504 718 l 813 718 q 931 693 889 718 q 974 619 974 668 q 931 546 974 571 q 813 521 889 521 l 504 521 m 1356 181 q 1310 342 1340 294 q 1160 422 1272 404 l 1160 429 q 1360 676 1360 503 q 1230 899 1360 825 q 814 972 1100 972 l 117 972 l 117 0 l 504 0 l 504 290 l 796 290 q 906 263 869 290 q 950 178 943 235 q 992 0 960 49 l 1410 0 q 1375 64 1385 29 q 1356 181 1367 92 m 914 1111 l 1131 1311 l 810 1311 l 721 1235 l 632 1311 l 308 1311 l 525 1111 l 914 1111 "},"ř":{"ha":807,"x_min":-7,"x_max":817,"o":"m 461 597 l 432 739 l 96 739 l 96 0 l 474 0 l 474 293 q 503 378 475 342 q 574 432 532 414 q 665 461 617 450 q 752 469 713 472 q 817 463 792 467 l 817 753 q 468 597 569 753 l 461 597 m 599 878 l 815 1078 l 494 1078 l 406 1001 l 317 1078 l -7 1078 l 210 878 l 599 878 "},"Ś":{"ha":1321,"x_min":33,"x_max":1288,"o":"m 1288 328 q 1233 494 1288 431 q 1081 586 1188 553 q 842 629 1001 615 q 694 643 736 640 q 497 661 540 654 q 444 693 444 672 q 679 740 444 740 q 951 717 813 740 q 1131 681 1096 692 q 1199 658 1182 665 l 1199 919 l 1131 936 q 933 969 1061 953 q 683 986 804 986 q 232 921 408 986 q 42 661 42 850 q 104 489 47 551 q 279 394 161 426 q 438 363 367 372 q 629 344 503 354 q 842 324 792 332 q 892 290 892 315 q 628 239 892 239 q 311 276 490 239 q 33 360 133 314 l 33 81 q 336 14 143 43 q 683 -14 535 -14 q 1131 76 974 -14 q 1288 328 1288 167 m 764 1113 l 1093 1313 l 689 1313 l 522 1113 l 764 1113 "},"ś":{"ha":1058,"x_min":28,"x_max":1031,"o":"m 561 494 q 538 496 547 494 q 419 503 446 499 q 393 524 393 508 q 569 551 393 551 q 958 497 753 551 l 958 714 q 531 753 804 753 q 158 688 289 753 q 28 504 28 622 q 154 322 28 385 q 501 251 281 263 q 629 242 597 249 q 661 218 661 235 q 637 199 661 203 q 532 194 613 194 q 31 269 267 194 l 31 44 q 535 -14 297 -14 q 938 67 831 -14 q 1031 254 1031 138 q 913 427 1031 369 q 561 494 794 485 m 613 879 l 942 1079 l 538 1079 l 371 879 l 613 879 "},"Ŝ":{"ha":1321,"x_min":33,"x_max":1288,"o":"m 1288 328 q 1233 494 1288 431 q 1081 586 1188 553 q 842 629 1001 615 q 694 643 736 640 q 497 661 540 654 q 444 693 444 672 q 679 740 444 740 q 951 717 813 740 q 1131 681 1096 692 q 1199 658 1182 665 l 1199 919 l 1131 936 q 933 969 1061 953 q 683 986 804 986 q 232 921 408 986 q 42 661 42 850 q 104 489 47 551 q 279 394 161 426 q 438 363 367 372 q 629 344 503 354 q 842 324 792 332 q 892 290 892 315 q 628 239 892 239 q 311 276 490 239 q 33 360 133 314 l 33 81 q 336 14 143 43 q 683 -14 535 -14 q 1131 76 974 -14 q 1288 328 1288 167 m 572 1111 l 661 1188 l 750 1111 l 1071 1111 l 854 1311 l 465 1311 l 249 1111 l 572 1111 "},"ŝ":{"ha":1058,"x_min":28,"x_max":1031,"o":"m 561 494 q 538 496 547 494 q 419 503 446 499 q 393 524 393 508 q 569 551 393 551 q 958 497 753 551 l 958 714 q 531 753 804 753 q 158 688 289 753 q 28 504 28 622 q 154 322 28 385 q 501 251 281 263 q 629 242 597 249 q 661 218 661 235 q 637 199 661 203 q 532 194 613 194 q 31 269 267 194 l 31 44 q 535 -14 297 -14 q 938 67 831 -14 q 1031 254 1031 138 q 913 427 1031 369 q 561 494 794 485 m 442 878 l 531 954 l 619 878 l 940 878 l 724 1078 l 335 1078 l 118 878 l 442 878 "},"Ş":{"ha":1321,"x_min":33,"x_max":1288,"o":"m 688 -256 l 824 -7 q 1168 101 1049 14 q 1288 328 1288 189 q 1233 494 1288 431 q 1081 586 1188 553 q 842 629 1001 615 q 694 643 736 640 q 497 661 540 654 q 444 693 444 672 q 679 740 444 740 q 951 717 813 740 q 1131 681 1096 692 q 1199 658 1182 665 l 1199 919 l 1131 936 q 933 969 1061 953 q 683 986 804 986 q 232 921 408 986 q 42 661 42 850 q 104 489 47 551 q 279 394 161 426 q 438 363 367 372 q 629 344 503 354 q 842 324 792 332 q 892 290 892 315 q 628 239 892 239 q 311 276 490 239 q 33 360 133 314 l 33 81 q 551 -8 233 13 l 493 -256 l 688 -256 "},"ş":{"ha":1058,"x_min":28,"x_max":1031,"o":"m 556 -256 l 692 -6 q 957 81 883 13 q 1031 254 1031 150 q 913 427 1031 369 q 561 494 794 485 q 538 496 547 494 q 419 503 446 499 q 393 524 393 508 q 569 551 393 551 q 958 497 753 551 l 958 714 q 531 753 804 753 q 158 688 289 753 q 28 504 28 622 q 154 322 28 385 q 501 251 281 263 q 629 242 597 249 q 661 218 661 235 q 637 199 661 203 q 532 194 613 194 q 31 269 267 194 l 31 44 q 419 -11 240 -3 l 361 -256 l 556 -256 "},"Š":{"ha":1321,"x_min":33,"x_max":1288,"o":"m 1288 328 q 1233 494 1288 431 q 1081 586 1188 553 q 842 629 1001 615 q 694 643 736 640 q 497 661 540 654 q 444 693 444 672 q 679 740 444 740 q 951 717 813 740 q 1131 681 1096 692 q 1199 658 1182 665 l 1199 919 l 1131 936 q 933 969 1061 953 q 683 986 804 986 q 232 921 408 986 q 42 661 42 850 q 104 489 47 551 q 279 394 161 426 q 438 363 367 372 q 629 344 503 354 q 842 324 792 332 q 892 290 892 315 q 628 239 892 239 q 311 276 490 239 q 33 360 133 314 l 33 81 q 336 14 143 43 q 683 -14 535 -14 q 1131 76 974 -14 q 1288 328 1288 167 m 854 1111 l 1071 1311 l 750 1311 l 661 1235 l 572 1311 l 249 1311 l 465 1111 l 854 1111 "},"š":{"ha":1058,"x_min":28,"x_max":1031,"o":"m 561 494 q 538 496 547 494 q 419 503 446 499 q 393 524 393 508 q 569 551 393 551 q 958 497 753 551 l 958 714 q 531 753 804 753 q 158 688 289 753 q 28 504 28 622 q 154 322 28 385 q 501 251 281 263 q 629 242 597 249 q 661 218 661 235 q 637 199 661 203 q 532 194 613 194 q 31 269 267 194 l 31 44 q 535 -14 297 -14 q 938 67 831 -14 q 1031 254 1031 138 q 913 427 1031 369 q 561 494 794 485 m 724 878 l 940 1078 l 619 1078 l 531 1001 l 442 1078 l 118 1078 l 335 878 l 724 878 "},"Ţ":{"ha":1150,"x_min":-1,"x_max":1151,"o":"m -1 717 l 382 717 l 382 0 l 769 0 l 769 717 l 1151 717 l 1151 972 l -1 972 l -1 717 m 421 -142 q 363 -274 363 -190 q 417 -401 363 -353 q 546 -451 472 -451 l 539 -465 q 510 -502 533 -481 q 457 -536 486 -524 l 556 -658 q 717 -524 647 -624 q 788 -301 788 -425 q 729 -150 788 -206 q 575 -94 671 -94 q 450 -118 479 -94 q 421 -142 421 -142 "},"ţ":{"ha":913,"x_min":-6,"x_max":925,"o":"m 808 219 q 646 253 692 219 q 600 369 600 286 l 600 522 l 892 522 l 892 739 l 600 739 l 600 972 l 222 972 l 222 739 l -6 739 l -6 522 l 222 522 l 222 353 q 278 126 228 203 q 438 18 328 49 q 586 -8 511 -1 q 772 -14 651 -14 q 925 -1 842 -14 l 925 231 l 808 219 m 301 -142 q 243 -274 243 -190 q 297 -401 243 -353 q 426 -451 353 -451 l 419 -465 q 390 -502 414 -481 q 338 -536 367 -524 l 436 -658 q 597 -524 528 -624 q 668 -301 668 -425 q 610 -150 668 -206 q 456 -94 551 -94 q 331 -118 360 -94 q 301 -142 301 -142 "},"Ť":{"ha":1150,"x_min":-1,"x_max":1151,"o":"m -1 717 l 382 717 l 382 0 l 769 0 l 769 717 l 1151 717 l 1151 972 l -1 972 l -1 717 m 769 1111 l 986 1311 l 665 1311 l 576 1235 l 488 1311 l 164 1311 l 381 1111 l 769 1111 "},"ť":{"ha":1468,"x_min":-6,"x_max":1435,"o":"m 808 219 q 646 253 692 219 q 600 369 600 286 l 600 522 l 892 522 l 892 739 l 600 739 l 600 972 l 222 972 l 222 739 l -6 739 l -6 522 l 222 522 l 222 353 q 278 126 228 203 q 438 18 328 49 q 586 -8 511 -1 q 772 -14 651 -14 q 925 -1 842 -14 l 925 231 l 808 219 m 1068 938 q 1010 807 1010 890 q 1064 678 1010 728 q 1193 629 1121 629 l 1186 615 q 1157 578 1181 600 q 1104 544 1133 557 l 1203 422 q 1364 557 1294 457 q 1435 779 1435 654 q 1376 931 1435 875 q 1222 986 1318 986 q 1097 962 1126 986 q 1068 938 1068 938 "},"Ŧ":{"ha":1150,"x_min":-1,"x_max":1151,"o":"m 1151 972 l -1 972 l -1 717 l 382 717 l 382 549 l 43 549 l 43 424 l 382 424 l 382 0 l 769 0 l 769 424 l 1107 424 l 1107 549 l 769 549 l 769 717 l 1151 717 l 1151 972 "},"ŧ":{"ha":910,"x_min":-8,"x_max":922,"o":"m 889 219 q 688 242 756 219 q 603 319 619 264 l 889 319 l 889 444 l 597 444 l 597 522 l 889 522 l 889 739 l 597 739 l 597 972 l 219 972 l 219 739 l -8 739 l -8 522 l 219 522 l 219 444 l -8 444 l -8 319 l 221 319 q 251 186 228 240 q 532 1 315 36 q 888 -14 631 -14 l 922 -14 l 922 219 l 889 219 "},"Ũ":{"ha":1440,"x_min":100,"x_max":1340,"o":"m 1178 112 q 1340 460 1340 238 l 1340 972 l 953 972 l 953 472 q 892 301 953 361 q 721 242 831 242 q 549 301 610 242 q 488 472 488 361 l 488 972 l 100 972 l 100 456 q 263 111 101 239 q 719 -14 422 -14 q 1098 49 1017 -14 q 1178 112 1178 112 m 465 1133 q 604 1188 529 1193 q 661 1175 632 1188 q 729 1156 676 1174 q 840 1128 810 1133 q 940 1132 883 1122 q 1043 1182 997 1143 l 975 1408 q 888 1358 938 1372 q 833 1354 878 1354 q 803 1360 826 1354 q 776 1365 781 1365 q 744 1375 756 1372 q 710 1386 713 1386 q 599 1413 633 1407 q 499 1410 557 1421 q 397 1360 440 1399 l 465 1133 "},"ũ":{"ha":1331,"x_min":89,"x_max":1235,"o":"m 513 -14 q 865 129 760 -14 l 872 129 l 899 0 l 1235 0 l 1235 739 l 857 739 l 857 360 q 804 255 856 292 q 663 218 753 218 q 518 256 569 218 q 467 365 467 293 l 467 739 l 89 739 l 89 365 q 199 86 89 186 q 513 -14 310 -14 m 410 900 q 549 954 474 960 q 606 942 576 954 q 674 922 621 940 q 785 894 754 900 q 885 899 828 889 q 988 949 942 910 l 919 1175 q 832 1125 882 1139 q 778 1121 822 1121 q 748 1126 771 1121 q 721 1132 725 1132 q 689 1142 700 1139 q 654 1153 657 1153 q 543 1179 578 1174 q 443 1176 501 1188 q 342 1126 385 1165 l 410 900 "},"Ū":{"ha":1440,"x_min":100,"x_max":1340,"o":"m 1178 112 q 1340 460 1340 238 l 1340 972 l 953 972 l 953 472 q 892 301 953 361 q 721 242 831 242 q 549 301 610 242 q 488 472 488 361 l 488 972 l 100 972 l 100 456 q 263 111 101 239 q 719 -14 422 -14 q 1098 49 1017 -14 q 1178 112 1178 112 m 361 1111 l 1078 1111 l 1078 1314 l 361 1314 l 361 1111 "},"ū":{"ha":1331,"x_min":89,"x_max":1235,"o":"m 513 -14 q 865 129 760 -14 l 872 129 l 899 0 l 1235 0 l 1235 739 l 857 739 l 857 360 q 804 255 856 292 q 663 218 753 218 q 518 256 569 218 q 467 365 467 293 l 467 739 l 89 739 l 89 365 q 199 86 89 186 q 513 -14 310 -14 m 307 878 l 1024 878 l 1024 1081 l 307 1081 l 307 878 "},"Ŭ":{"ha":1440,"x_min":100,"x_max":1340,"o":"m 1178 112 q 1340 460 1340 238 l 1340 972 l 953 972 l 953 472 q 892 301 953 361 q 721 242 831 242 q 549 301 610 242 q 488 472 488 361 l 488 972 l 100 972 l 100 456 q 263 111 101 239 q 719 -14 422 -14 q 1098 49 1017 -14 q 1178 112 1178 112 m 817 1303 q 781 1274 808 1288 q 719 1260 754 1260 q 676 1266 696 1260 q 647 1280 657 1272 q 628 1297 636 1288 q 619 1310 621 1307 q 617 1317 618 1314 l 414 1317 q 508 1167 433 1229 q 719 1103 585 1103 q 929 1167 853 1103 q 1025 1317 1006 1231 l 822 1317 l 817 1303 "},"ŭ":{"ha":1331,"x_min":89,"x_max":1235,"o":"m 513 -14 q 865 129 760 -14 l 872 129 l 899 0 l 1235 0 l 1235 739 l 857 739 l 857 360 q 804 255 856 292 q 663 218 753 218 q 518 256 569 218 q 467 365 467 293 l 467 739 l 89 739 l 89 365 q 199 86 89 186 q 513 -14 310 -14 m 761 1069 q 728 1040 756 1054 q 665 1026 701 1026 q 622 1033 642 1026 q 592 1047 603 1039 q 574 1064 582 1054 q 565 1077 567 1074 q 563 1083 564 1081 l 360 1083 q 454 933 379 996 q 665 869 531 869 q 875 933 799 869 q 971 1083 953 997 l 768 1083 l 761 1069 "},"Ů":{"ha":1440,"x_min":100,"x_max":1340,"o":"m 1178 112 q 1340 460 1340 238 l 1340 972 l 953 972 l 953 472 q 892 301 953 361 q 721 242 831 242 q 549 301 610 242 q 488 472 488 361 l 488 972 l 100 972 l 100 456 q 263 111 101 239 q 719 -14 422 -14 q 1098 49 1017 -14 q 1178 112 1178 112 m 535 1415 q 467 1282 467 1367 q 535 1149 467 1197 q 719 1101 603 1101 q 904 1150 836 1101 q 972 1282 972 1199 q 904 1414 972 1365 q 719 1463 836 1463 q 569 1439 603 1463 q 535 1415 535 1415 m 786 1281 q 753 1227 786 1243 q 686 1227 719 1211 q 653 1281 653 1243 q 685 1333 650 1318 q 754 1333 719 1349 q 786 1281 789 1318 "},"ů":{"ha":1331,"x_min":89,"x_max":1235,"o":"m 513 -14 q 865 129 760 -14 l 872 129 l 899 0 l 1235 0 l 1235 739 l 857 739 l 857 360 q 804 255 856 292 q 663 218 753 218 q 518 256 569 218 q 467 365 467 293 l 467 739 l 89 739 l 89 365 q 199 86 89 186 q 513 -14 310 -14 m 481 1181 q 413 1049 413 1133 q 481 916 413 964 q 665 868 549 868 q 850 917 782 868 q 918 1049 918 965 q 850 1181 918 1132 q 665 1229 782 1229 q 515 1205 549 1229 q 481 1181 481 1181 m 732 1047 q 699 994 732 1010 q 632 994 665 978 q 599 1047 599 1010 q 631 1100 596 1085 q 700 1100 665 1115 q 732 1047 735 1085 "},"Ű":{"ha":1440,"x_min":100,"x_max":1340,"o":"m 1178 112 q 1340 460 1340 238 l 1340 972 l 953 972 l 953 472 q 892 301 953 361 q 721 242 831 242 q 549 301 610 242 q 488 472 488 361 l 488 972 l 100 972 l 100 456 q 263 111 101 239 q 719 -14 422 -14 q 1098 49 1017 -14 q 1178 112 1178 112 m 533 1311 l 349 1111 l 663 1111 l 847 1311 l 533 1311 m 921 1311 l 736 1111 l 1050 1111 l 1235 1311 l 921 1311 "},"ű":{"ha":1331,"x_min":89,"x_max":1235,"o":"m 513 -14 q 865 129 760 -14 l 872 129 l 899 0 l 1235 0 l 1235 739 l 857 739 l 857 360 q 804 255 856 292 q 663 218 753 218 q 518 256 569 218 q 467 365 467 293 l 467 739 l 89 739 l 89 365 q 199 86 89 186 q 513 -14 310 -14 m 876 1078 l 692 878 l 1006 878 l 1190 1078 l 876 1078 m 489 1078 l 304 878 l 618 878 l 803 1078 l 489 1078 "},"Ų":{"ha":1440,"x_min":100,"x_max":1340,"o":"m 925 -204 q 844 -226 888 -226 q 773 -207 799 -226 q 747 -154 747 -187 q 790 -65 747 -108 q 892 0 835 -24 q 1224 153 1108 33 q 1340 460 1340 272 l 1340 972 l 953 972 l 953 472 q 892 301 953 361 q 721 242 831 242 q 549 301 610 242 q 488 472 488 361 l 488 972 l 100 972 l 100 456 q 237 133 103 256 q 618 -10 371 11 q 503 -178 503 -64 q 571 -310 503 -265 q 749 -356 639 -356 q 936 -314 867 -356 l 936 -197 l 925 -204 "},"ų":{"ha":1331,"x_min":89,"x_max":1235,"o":"m 1181 -204 q 1100 -226 1143 -226 q 1028 -207 1054 -226 q 1003 -154 1003 -187 q 1047 -65 1003 -110 q 1150 0 1094 -22 l 1235 0 l 1235 739 l 857 739 l 857 360 q 804 255 856 292 q 663 218 753 218 q 518 256 569 218 q 467 365 467 293 l 467 739 l 89 739 l 89 365 q 199 86 89 186 q 513 -14 310 -14 q 865 129 760 -14 l 872 129 l 899 0 q 794 -72 829 -25 q 758 -178 758 -118 q 826 -310 758 -265 q 1004 -356 894 -356 q 1192 -314 1122 -356 l 1192 -197 l 1181 -204 "},"Ŵ":{"ha":1857,"x_min":21,"x_max":1836,"o":"m 1285 393 l 1278 393 l 1107 972 l 749 972 l 579 393 l 571 393 l 419 972 l 21 972 l 289 0 l 764 0 l 925 494 l 932 494 l 1092 0 l 1567 0 l 1836 972 l 1436 972 l 1285 393 m 840 1111 l 929 1188 l 1018 1111 l 1339 1111 l 1122 1311 l 733 1311 l 517 1111 l 840 1111 "},"ŵ":{"ha":1694,"x_min":14,"x_max":1681,"o":"m 1167 319 l 1158 319 l 1019 739 l 675 739 l 536 319 l 529 319 l 406 739 l 14 739 l 272 0 l 722 0 l 844 335 l 851 335 l 974 0 l 1422 0 l 1681 739 l 1289 739 l 1167 319 m 760 878 l 849 954 l 938 878 l 1258 878 l 1042 1078 l 653 1078 l 436 878 l 760 878 "},"Ŷ":{"ha":1438,"x_min":-3,"x_max":1440,"o":"m 421 972 l -3 972 l 525 326 l 525 0 l 913 0 l 913 325 l 1440 972 l 1015 972 l 722 606 l 715 606 l 421 972 m 631 1111 l 719 1188 l 808 1111 l 1129 1111 l 913 1311 l 524 1311 l 307 1111 l 631 1111 "},"ŷ":{"ha":1249,"x_min":1,"x_max":1247,"o":"m 642 382 l 636 382 l 425 739 l 1 739 l 469 47 l 310 -279 l 682 -279 l 1247 739 l 824 739 l 642 382 m 536 878 l 625 954 l 714 878 l 1035 878 l 818 1078 l 429 1078 l 213 878 l 536 878 "},"Ÿ":{"ha":1438,"x_min":-3,"x_max":1440,"o":"m 421 972 l -3 972 l 525 326 l 525 0 l 913 0 l 913 325 l 1440 972 l 1015 972 l 722 606 l 715 606 l 421 972 m 401 1335 q 356 1238 356 1300 q 401 1140 356 1175 q 522 1104 446 1104 q 644 1140 599 1104 q 689 1238 689 1175 q 644 1335 689 1300 q 522 1371 599 1371 q 423 1353 446 1371 q 401 1335 401 1335 m 793 1335 q 749 1238 749 1300 q 792 1140 747 1175 q 914 1104 838 1104 q 1035 1140 990 1104 q 1081 1238 1081 1175 q 1035 1335 1081 1300 q 914 1371 990 1371 q 815 1353 838 1371 q 793 1335 793 1335 "},"Ź":{"ha":1267,"x_min":26,"x_max":1238,"o":"m 611 256 l 611 263 l 1206 744 l 1206 972 l 68 972 l 68 717 l 610 717 l 610 710 l 26 228 l 26 0 l 1238 0 l 1238 256 l 611 256 m 708 1113 l 1038 1313 l 633 1313 l 467 1113 l 708 1113 "},"ź":{"ha":1072,"x_min":22,"x_max":1050,"o":"m 1004 550 l 1004 739 l 57 739 l 57 508 l 442 508 l 442 501 l 22 189 l 22 0 l 1050 0 l 1050 231 l 597 231 l 597 238 l 1004 550 m 642 879 l 971 1079 l 567 1079 l 400 879 l 642 879 "},"Ż":{"ha":1267,"x_min":26,"x_max":1238,"o":"m 611 256 l 611 263 l 1206 744 l 1206 972 l 68 972 l 68 717 l 610 717 l 610 710 l 26 228 l 26 0 l 1238 0 l 1238 256 l 611 256 m 755 1141 q 800 1239 800 1176 q 755 1337 800 1301 q 633 1372 710 1372 q 512 1337 557 1372 q 467 1239 467 1301 q 512 1141 467 1176 q 633 1106 557 1106 q 732 1123 710 1106 q 755 1141 755 1141 "},"ż":{"ha":1072,"x_min":22,"x_max":1050,"o":"m 1004 550 l 1004 739 l 57 739 l 57 508 l 442 508 l 442 501 l 22 189 l 22 0 l 1050 0 l 1050 231 l 597 231 l 597 238 l 1004 550 m 658 908 q 703 1006 703 943 q 658 1103 703 1068 q 536 1139 613 1139 q 415 1103 460 1139 q 369 1006 369 1068 q 415 908 369 943 q 536 872 460 872 q 635 890 613 872 q 658 908 658 908 "},"Ž":{"ha":1267,"x_min":26,"x_max":1238,"o":"m 611 256 l 611 263 l 1206 744 l 1206 972 l 68 972 l 68 717 l 610 717 l 610 710 l 26 228 l 26 0 l 1238 0 l 1238 256 l 611 256 m 828 1111 l 1044 1311 l 724 1311 l 635 1235 l 546 1311 l 222 1311 l 439 1111 l 828 1111 "},"ž":{"ha":1072,"x_min":22,"x_max":1050,"o":"m 1004 550 l 1004 739 l 57 739 l 57 508 l 442 508 l 442 501 l 22 189 l 22 0 l 1050 0 l 1050 231 l 597 231 l 597 238 l 1004 550 m 731 878 l 947 1078 l 626 1078 l 538 1001 l 449 1078 l 125 1078 l 342 878 l 731 878 "},"ſ":{"ha":889,"x_min":-6,"x_max":908,"o":"m 819 849 q 908 847 901 849 l 908 1051 q 753 1054 819 1054 q 213 789 213 1054 l 213 739 l -6 739 l -6 522 l 213 522 l 213 0 l 590 0 l 590 739 q 819 849 590 849 "},"ƒ":{"ha":942,"x_min":33,"x_max":908,"o":"m 829 749 q 885 742 860 749 l 885 1001 l 718 1001 q 294 628 347 1001 l 290 593 l 33 593 l 33 408 l 267 408 l 260 358 q 215 267 253 308 q 107 224 178 224 q 58 229 79 224 l 58 -29 l 225 -29 q 650 368 600 -29 l 656 408 l 908 408 l 908 592 l 679 592 l 682 614 q 726 706 688 661 q 829 749 764 749 "},"Ǻ":{"ha":1432,"x_min":-6,"x_max":1438,"o":"m 438 972 l -6 0 l 408 0 l 471 149 l 960 149 l 1022 0 l 1438 0 l 993 972 l 438 972 m 463 1282 q 531 1149 463 1197 q 715 1101 599 1101 q 900 1150 832 1101 q 968 1282 968 1199 q 843 1443 968 1399 l 1064 1578 l 660 1578 l 507 1394 q 463 1282 463 1350 m 711 714 l 719 714 l 857 389 l 574 389 l 711 714 m 782 1281 q 749 1227 782 1243 q 682 1227 715 1211 q 649 1281 649 1243 q 681 1333 646 1318 q 750 1333 715 1349 q 782 1281 785 1318 "},"ǻ":{"ha":1178,"x_min":46,"x_max":1089,"o":"m 549 753 q 300 738 450 753 q 114 703 160 724 l 114 450 q 272 499 156 476 q 490 522 394 522 q 650 490 596 522 q 704 407 704 457 l 704 401 q 433 439 597 439 q 150 381 254 439 q 46 215 46 322 q 143 47 46 107 q 396 -14 242 -14 q 728 99 642 -14 l 735 99 l 765 0 l 1089 0 l 1089 454 q 549 753 1089 753 m 336 1049 q 404 916 336 964 q 589 868 472 868 q 774 917 706 868 q 842 1049 842 965 q 717 1210 842 1165 l 938 1344 l 533 1344 l 381 1161 q 336 1049 336 1117 m 701 281 q 543 165 699 165 q 419 235 419 165 q 574 308 419 308 q 701 283 642 308 l 701 281 m 656 1047 q 622 994 656 1010 q 556 994 589 978 q 522 1047 522 1010 q 554 1100 519 1085 q 624 1100 589 1115 q 656 1047 658 1085 "},"Ǽ":{"ha":2283,"x_min":-32,"x_max":2240,"o":"m 2240 256 l 1417 256 l 1417 382 l 2131 382 l 2131 601 l 1417 601 l 1417 717 l 2225 717 l 2225 972 l 838 972 l -32 0 l 410 0 l 538 149 l 1029 149 l 1029 0 l 2240 0 l 2240 256 m 1294 1113 l 1624 1313 l 1219 1313 l 1053 1113 l 1294 1113 m 1025 714 l 1029 714 l 1029 389 l 744 389 l 1025 714 "},"ǽ":{"ha":1833,"x_min":31,"x_max":1796,"o":"m 1796 368 q 1663 643 1796 535 q 1306 753 1531 753 q 1099 717 1203 753 q 940 614 997 682 l 933 614 q 533 753 828 753 q 288 733 439 753 q 99 696 143 715 l 99 449 q 257 496 136 472 q 475 519 379 519 q 635 487 581 519 q 689 406 689 454 l 689 400 q 418 438 583 438 q 133 378 236 438 q 31 217 31 318 q 147 47 31 110 q 460 -14 265 -14 q 711 33 592 -14 q 888 158 831 81 l 893 158 q 1350 -14 1031 -14 q 1740 28 1581 -14 l 1740 257 q 1381 208 1578 208 q 1201 230 1263 208 q 1115 301 1140 251 l 1794 301 l 1796 368 m 1047 879 l 1376 1079 l 972 1079 l 806 879 l 1047 879 m 694 279 q 644 199 694 232 q 513 165 593 165 q 431 183 461 165 q 400 233 400 200 q 445 287 400 267 q 558 307 490 307 q 694 282 625 307 l 694 279 m 1149 426 q 1203 502 1160 472 q 1301 532 1247 532 q 1446 426 1428 532 l 1149 426 "},"Ǿ":{"ha":1417,"x_min":53,"x_max":1364,"o":"m 981 486 q 909 305 981 368 q 708 242 838 242 q 575 264 628 242 l 942 631 q 981 486 981 574 m 708 731 q 842 708 788 731 l 474 342 q 435 486 435 399 q 506 667 435 604 q 708 731 578 731 m 708 -14 q 1193 119 1025 -14 q 1364 486 1364 256 q 1176 865 1364 732 l 1306 994 l 1217 1083 l 1061 928 q 708 986 914 986 q 222 851 392 986 q 53 486 53 718 q 240 107 53 240 l 111 -22 l 200 -111 l 356 44 q 708 -14 503 -14 m 789 1113 l 1118 1313 l 714 1313 l 547 1113 l 789 1113 "},"ǿ":{"ha":1200,"x_min":46,"x_max":1154,"o":"m 599 217 q 538 228 579 217 l 757 446 q 775 369 775 414 q 728 256 775 296 q 599 217 682 217 m 424 369 q 470 483 424 443 q 599 522 517 522 q 661 511 610 522 l 442 292 q 424 369 424 322 m 1081 769 l 1000 850 l 865 715 q 600 753 739 753 q 191 651 336 753 q 46 369 46 550 q 221 71 46 169 l 117 -33 l 197 -114 l 335 24 q 600 -14 461 -14 q 1009 88 864 -14 q 1154 369 1154 189 q 979 668 1154 568 l 1081 769 m 694 879 l 1024 1079 l 619 1079 l 453 879 l 694 879 "},"Ș":{"ha":1321,"x_min":33,"x_max":1288,"o":"m 1288 328 q 1233 494 1288 431 q 1081 586 1188 553 q 842 629 1001 615 q 694 643 736 640 q 494 660 544 653 q 444 690 444 668 q 679 731 444 731 q 943 706 807 731 q 1125 667 1071 683 q 1199 643 1183 649 l 1199 919 l 1131 936 q 933 969 1061 953 q 683 986 804 986 q 232 921 408 986 q 42 661 42 850 q 104 489 47 551 q 279 394 161 426 q 438 363 367 372 q 629 344 503 354 l 682 340 q 851 322 818 329 q 892 293 892 315 q 628 246 892 246 q 308 286 481 246 q 33 376 143 326 l 33 86 q 346 18 168 47 q 683 -14 540 -14 q 1131 76 974 -14 q 1288 328 1288 167 m 506 -142 q 447 -274 447 -190 q 501 -401 447 -353 q 631 -451 558 -451 l 625 -465 q 542 -536 600 -511 l 640 -658 q 801 -524 732 -624 q 872 -301 872 -425 q 814 -150 872 -206 q 660 -94 756 -94 q 535 -118 564 -94 q 506 -142 506 -142 "},"ș":{"ha":1058,"x_min":28,"x_max":1031,"o":"m 561 494 q 538 496 547 494 q 419 503 446 499 q 393 524 393 508 q 569 546 393 546 q 933 503 771 546 l 933 719 q 531 753 797 753 q 159 685 290 753 q 28 499 28 618 q 501 251 28 275 q 629 242 597 249 q 661 218 661 235 q 637 199 661 203 q 532 194 613 194 q 31 269 267 194 l 31 44 q 535 -14 297 -14 q 938 67 831 -14 q 1031 254 1031 138 q 913 427 1031 369 q 561 494 794 485 m 375 -142 q 317 -274 317 -190 q 371 -401 317 -353 q 500 -451 428 -451 l 494 -465 q 411 -536 469 -511 l 510 -658 q 671 -524 601 -624 q 742 -301 742 -425 q 683 -150 742 -206 q 529 -94 625 -94 q 404 -118 433 -94 q 375 -142 375 -142 "},"Ț":{"ha":1150,"x_min":-1,"x_max":1151,"o":"m -1 717 l 382 717 l 382 0 l 769 0 l 769 717 l 1151 717 l 1151 972 l -1 972 l -1 717 m 421 -142 q 363 -274 363 -190 q 417 -401 363 -353 q 546 -451 472 -451 l 539 -465 q 510 -502 533 -481 q 457 -536 486 -524 l 556 -658 q 717 -524 647 -624 q 788 -301 788 -425 q 729 -150 788 -206 q 575 -94 671 -94 q 450 -118 479 -94 q 421 -142 421 -142 "},"ț":{"ha":913,"x_min":-6,"x_max":925,"o":"m 808 219 q 646 253 692 219 q 600 369 600 286 l 600 522 l 892 522 l 892 739 l 600 739 l 600 972 l 222 972 l 222 739 l -6 739 l -6 522 l 222 522 l 222 353 q 278 126 228 203 q 438 18 328 49 q 586 -8 511 -1 q 772 -14 651 -14 q 925 -1 842 -14 l 925 231 l 808 219 m 301 -142 q 243 -274 243 -190 q 297 -401 243 -353 q 426 -451 353 -451 l 419 -465 q 390 -502 414 -481 q 338 -536 367 -524 l 436 -658 q 597 -524 528 -624 q 668 -301 668 -425 q 610 -150 668 -206 q 456 -94 551 -94 q 331 -118 360 -94 q 301 -142 301 -142 "},"ȷ":{"ha":440,"x_min":7,"x_max":432,"o":"m 65 -142 q 7 -274 7 -190 q 61 -401 7 -353 q 190 -451 117 -451 l 183 -465 q 154 -502 178 -481 q 101 -536 131 -524 l 200 -658 q 361 -524 292 -624 q 432 -301 432 -425 q 374 -150 432 -206 q 219 -94 315 -94 q 94 -118 124 -94 q 65 -142 65 -142 "},"ˆ":{"ha":889,"x_min":33,"x_max":856,"o":"m 357 878 l 446 954 l 535 878 l 856 878 l 639 1078 l 250 1078 l 33 878 l 357 878 "},"ˇ":{"ha":889,"x_min":33,"x_max":856,"o":"m 639 878 l 856 1078 l 535 1078 l 446 1001 l 357 1078 l 33 1078 l 250 878 l 639 878 "},"ˉ":{"ha":783,"x_min":33,"x_max":750,"o":"m 33 878 l 750 878 l 750 1081 l 33 1081 l 33 878 "},"˘":{"ha":678,"x_min":33,"x_max":644,"o":"m 436 1069 q 401 1040 428 1054 q 339 1026 374 1026 q 296 1033 315 1026 q 266 1047 276 1039 q 248 1064 256 1054 q 239 1077 240 1074 q 236 1083 238 1081 l 33 1083 q 128 933 53 996 q 339 869 204 869 q 549 933 472 869 q 644 1083 625 997 l 442 1083 l 436 1069 "},"˙":{"ha":400,"x_min":33,"x_max":367,"o":"m 322 908 q 367 1006 367 943 q 322 1103 367 1068 q 200 1139 276 1139 q 78 1103 124 1139 q 33 1006 33 1068 q 78 908 33 943 q 200 872 124 872 q 299 890 276 872 q 322 908 322 908 "},"˚":{"ha":572,"x_min":33,"x_max":539,"o":"m 101 1181 q 33 1049 33 1133 q 101 916 33 964 q 286 868 169 868 q 471 917 403 868 q 539 1049 539 965 q 471 1181 539 1132 q 286 1229 403 1229 q 135 1205 169 1229 q 101 1181 101 1181 m 353 1047 q 319 994 353 1010 q 253 994 286 978 q 219 1047 219 1010 q 251 1100 217 1085 q 321 1100 286 1115 q 353 1047 356 1085 "},"˛":{"ha":500,"x_min":33,"x_max":467,"o":"m 456 -204 q 375 -226 418 -226 q 303 -207 329 -226 q 278 -154 278 -187 q 322 -65 278 -110 q 425 0 369 -22 l 257 19 q 91 -48 149 7 q 33 -178 33 -103 q 101 -310 33 -265 q 279 -356 169 -356 q 467 -314 397 -356 l 467 -197 l 456 -204 "},"˜":{"ha":713,"x_min":33,"x_max":679,"o":"m 101 900 q 240 954 165 960 q 297 942 268 954 q 365 922 313 940 q 476 894 446 900 q 576 899 519 889 q 679 949 633 910 l 611 1175 q 524 1125 574 1139 q 469 1121 514 1121 q 440 1126 463 1121 q 413 1132 417 1132 q 381 1142 392 1139 q 346 1153 350 1153 q 235 1179 269 1174 q 135 1176 193 1188 q 33 1126 76 1165 l 101 900 "},"˝":{"ha":953,"x_min":33,"x_max":919,"o":"m 606 1078 l 421 878 l 735 878 l 919 1078 l 606 1078 m 218 1078 l 33 878 l 347 878 l 532 1078 l 218 1078 "},"Δ":{"ha":1335,"x_min":-17,"x_max":1351,"o":"m -17 0 l 1351 0 l 667 1003 l -17 0 m 860 242 l 857 236 l 472 236 l 469 242 l 661 529 l 668 529 l 860 242 "},"Ω":{"ha":1361,"x_min":32,"x_max":1329,"o":"m 1071 232 q 1328 583 1328 343 q 1146 892 1329 778 q 681 1003 963 1006 q 215 892 399 1006 q 33 583 32 778 q 290 232 33 343 l 290 224 l 33 224 l 33 0 l 604 0 l 604 228 q 464 310 514 247 q 414 468 414 372 q 485 649 414 583 q 681 715 556 715 q 876 649 806 715 q 947 468 947 583 q 898 310 947 372 q 757 228 849 247 l 757 0 l 1328 0 l 1328 224 l 1071 224 l 1071 232 "},"μ":{"ha":1338,"x_min":96,"x_max":1242,"o":"m 864 356 q 810 249 861 286 q 669 213 758 213 q 525 251 576 213 q 474 361 474 289 l 474 739 l 96 739 l 96 -279 l 474 -279 l 474 -14 l 519 -14 q 872 126 768 -14 l 879 126 l 906 0 l 1242 0 l 1242 739 l 864 739 l 864 356 "},"π":{"ha":1506,"x_min":33,"x_max":1472,"o":"m 599 0 l 599 522 l 879 522 l 879 379 q 932 138 879 240 q 999 69 954 96 q 1079 29 1039 46 q 1186 8 1114 15 l 1303 0 l 1439 0 l 1472 0 l 1472 233 q 1258 368 1258 233 l 1258 522 l 1461 522 l 1461 739 l 33 739 l 33 522 l 221 522 l 221 0 l 599 0 "},"Ẁ":{"ha":1857,"x_min":21,"x_max":1836,"o":"m 1285 393 l 1278 393 l 1107 972 l 749 972 l 579 393 l 571 393 l 419 972 l 21 972 l 289 0 l 764 0 l 925 494 l 932 494 l 1092 0 l 1567 0 l 1836 972 l 1436 972 l 1285 393 m 476 1313 l 806 1113 l 1047 1113 l 881 1313 l 476 1313 "},"ẁ":{"ha":1694,"x_min":14,"x_max":1681,"o":"m 1167 319 l 1158 319 l 1019 739 l 675 739 l 536 319 l 529 319 l 406 739 l 14 739 l 272 0 l 722 0 l 844 335 l 851 335 l 974 0 l 1422 0 l 1681 739 l 1289 739 l 1167 319 m 388 1079 l 717 879 l 958 879 l 792 1079 l 388 1079 "},"Ẃ":{"ha":1857,"x_min":21,"x_max":1836,"o":"m 1285 393 l 1278 393 l 1107 972 l 749 972 l 579 393 l 571 393 l 419 972 l 21 972 l 289 0 l 764 0 l 925 494 l 932 494 l 1092 0 l 1567 0 l 1836 972 l 1436 972 l 1285 393 m 1054 1113 l 1383 1313 l 979 1313 l 813 1113 l 1054 1113 "},"ẃ":{"ha":1694,"x_min":14,"x_max":1681,"o":"m 1167 319 l 1158 319 l 1019 739 l 675 739 l 536 319 l 529 319 l 406 739 l 14 739 l 272 0 l 722 0 l 844 335 l 851 335 l 974 0 l 1422 0 l 1681 739 l 1289 739 l 1167 319 m 974 879 l 1303 1079 l 899 1079 l 732 879 l 974 879 "},"Ẅ":{"ha":1857,"x_min":21,"x_max":1836,"o":"m 1285 393 l 1278 393 l 1107 972 l 749 972 l 579 393 l 571 393 l 419 972 l 21 972 l 289 0 l 764 0 l 925 494 l 932 494 l 1092 0 l 1567 0 l 1836 972 l 1436 972 l 1285 393 m 610 1335 q 565 1238 565 1300 q 610 1140 565 1175 q 732 1104 656 1104 q 853 1140 808 1104 q 899 1238 899 1175 q 853 1335 899 1300 q 732 1371 808 1371 q 633 1353 656 1371 q 610 1335 610 1335 m 1003 1335 q 958 1238 958 1300 q 1002 1140 957 1175 q 1124 1104 1047 1104 q 1245 1140 1200 1104 q 1290 1238 1290 1175 q 1245 1335 1290 1300 q 1124 1371 1200 1371 q 1025 1353 1047 1371 q 1003 1335 1003 1335 "},"ẅ":{"ha":1694,"x_min":14,"x_max":1681,"o":"m 1167 319 l 1158 319 l 1019 739 l 675 739 l 536 319 l 529 319 l 406 739 l 14 739 l 272 0 l 722 0 l 844 335 l 851 335 l 974 0 l 1422 0 l 1681 739 l 1289 739 l 1167 319 m 530 1102 q 485 1004 485 1067 q 530 906 485 942 q 651 871 575 871 q 773 906 728 871 q 818 1004 818 942 q 773 1102 818 1067 q 651 1138 728 1138 q 552 1120 575 1138 q 530 1102 530 1102 m 922 1102 q 878 1004 878 1067 q 922 906 876 942 q 1043 871 967 871 q 1165 906 1119 871 q 1210 1004 1210 942 q 1165 1102 1210 1067 q 1043 1138 1119 1138 q 944 1120 967 1138 q 922 1102 922 1102 "},"Ỳ":{"ha":1438,"x_min":-3,"x_max":1440,"o":"m 421 972 l -3 972 l 525 326 l 525 0 l 913 0 l 913 325 l 1440 972 l 1015 972 l 722 606 l 715 606 l 421 972 m 274 1313 l 603 1113 l 844 1113 l 678 1313 l 274 1313 "},"ỳ":{"ha":1249,"x_min":1,"x_max":1247,"o":"m 642 382 l 636 382 l 425 739 l 1 739 l 469 47 l 310 -279 l 682 -279 l 1247 739 l 824 739 l 642 382 m 178 1079 l 507 879 l 749 879 l 582 1079 l 178 1079 "},"–":{"ha":882,"x_min":33,"x_max":849,"o":"m 849 358 l 849 614 l 33 614 l 33 358 l 849 358 "},"—":{"ha":910,"x_min":33,"x_max":876,"o":"m 876 358 l 876 614 l 33 614 l 33 358 l 876 358 "},"‘":{"ha":492,"x_min":33,"x_max":458,"o":"m 400 470 q 458 601 458 518 q 403 729 458 682 q 275 779 349 779 l 281 793 q 364 864 306 839 l 265 986 q 103 851 175 951 q 33 629 33 753 q 92 478 33 533 q 246 422 150 422 q 371 446 342 422 q 400 470 400 470 "},"’":{"ha":492,"x_min":33,"x_max":458,"o":"m 92 938 q 33 807 33 890 q 88 678 33 728 q 217 629 144 629 l 211 615 q 128 544 186 569 l 226 422 q 388 557 318 457 q 458 779 458 654 q 400 931 458 875 q 246 986 342 986 q 121 962 150 986 q 92 938 92 938 "},"‚":{"ha":492,"x_min":33,"x_max":458,"o":"m 92 295 q 33 164 33 247 q 88 35 33 85 q 217 -14 144 -14 l 211 -28 q 128 -99 186 -74 l 226 -221 q 388 -86 318 -186 q 458 136 458 11 q 400 288 458 232 q 246 343 342 343 q 121 319 150 343 q 92 295 92 295 "},"“":{"ha":979,"x_min":33,"x_max":946,"o":"m 888 470 q 946 601 946 518 q 890 729 946 682 q 763 779 836 779 l 769 793 q 799 830 775 808 q 851 864 822 851 l 753 986 q 590 851 663 951 q 521 629 521 753 q 579 478 521 533 q 733 422 638 422 q 858 446 829 422 q 888 470 888 470 m 400 470 q 458 601 458 518 q 403 729 458 682 q 275 779 349 779 l 281 793 q 364 864 306 839 l 265 986 q 103 851 175 951 q 33 629 33 753 q 92 478 33 533 q 246 422 150 422 q 371 446 342 422 q 400 470 400 470 "},"”":{"ha":979,"x_min":33,"x_max":946,"o":"m 92 938 q 33 807 33 890 q 88 678 33 728 q 217 629 144 629 l 211 615 q 128 544 186 569 l 226 422 q 388 557 318 457 q 458 779 458 654 q 400 931 458 875 q 246 986 342 986 q 121 962 150 986 q 92 938 92 938 m 579 938 q 521 807 521 890 q 575 678 521 728 q 704 629 632 629 l 697 615 q 668 578 692 600 q 615 544 644 557 l 714 422 q 875 557 806 457 q 946 779 946 654 q 888 931 946 875 q 733 986 829 986 q 608 962 638 986 q 579 938 579 938 "},"„":{"ha":979,"x_min":33,"x_max":946,"o":"m 92 295 q 33 164 33 247 q 88 35 33 85 q 217 -14 144 -14 l 211 -28 q 128 -99 186 -74 l 226 -221 q 388 -86 318 -186 q 458 136 458 11 q 400 288 458 232 q 246 343 342 343 q 121 319 150 343 q 92 295 92 295 m 579 295 q 521 164 521 247 q 575 35 521 85 q 704 -14 632 -14 l 697 -28 q 668 -65 692 -43 q 615 -99 644 -86 l 714 -221 q 875 -86 806 -186 q 946 136 946 11 q 888 288 946 232 q 733 343 829 343 q 608 319 638 343 q 579 295 579 295 "},"†":{"ha":865,"x_min":33,"x_max":832,"o":"m 297 972 l 297 751 l 33 751 l 33 549 l 297 549 l 297 0 l 568 0 l 568 549 l 832 549 l 832 751 l 568 751 l 568 972 l 297 972 "},"‡":{"ha":865,"x_min":33,"x_max":832,"o":"m 832 221 l 832 424 l 568 424 l 568 549 l 832 549 l 832 751 l 568 751 l 568 972 l 297 972 l 297 751 l 33 751 l 33 549 l 297 549 l 297 424 l 33 424 l 33 221 l 297 221 l 297 0 l 568 0 l 568 221 l 832 221 "},"•":{"ha":493,"x_min":33,"x_max":460,"o":"m 460 486 q 400 629 460 574 q 247 685 340 685 q 93 629 153 685 q 33 488 33 574 q 93 343 33 399 q 247 288 153 288 q 399 343 339 288 q 460 486 460 400 "},"…":{"ha":1607,"x_min":33,"x_max":1574,"o":"m 460 165 q 402 298 460 250 q 247 346 344 346 q 92 299 151 346 q 33 167 33 250 q 92 33 33 81 q 247 -14 151 -14 q 401 34 343 -14 q 460 165 460 82 m 1017 165 q 959 298 1017 250 q 804 346 901 346 q 649 299 708 346 q 590 167 590 250 q 649 33 590 81 q 804 -14 708 -14 q 958 34 900 -14 q 1017 165 1017 82 m 1574 165 q 1516 298 1574 250 q 1361 346 1458 346 q 1206 299 1265 346 q 1147 167 1147 250 q 1206 33 1147 81 q 1361 -14 1265 -14 q 1515 34 1457 -14 q 1574 165 1574 82 "},"‰":{"ha":2243,"x_min":33,"x_max":2210,"o":"m 1197 972 l 906 972 l 365 0 l 657 0 l 1197 972 m 1532 271 q 1446 475 1532 393 q 1229 556 1361 556 q 1013 475 1097 556 q 926 271 926 393 q 1013 65 926 147 q 1229 -14 1097 -14 q 1446 65 1361 -14 q 1532 271 1532 147 m 639 701 q 553 906 639 826 q 336 986 468 986 q 119 906 204 986 q 33 701 33 826 q 119 497 33 579 q 336 417 204 417 q 553 497 468 417 q 639 701 639 579 m 2210 271 q 2124 475 2210 393 q 1907 556 2039 556 q 1690 475 1775 556 q 1604 271 1604 393 q 1690 65 1604 147 q 1907 -14 1775 -14 q 2124 65 2039 -14 q 2210 271 2210 147 m 1156 201 q 1125 271 1125 229 q 1154 340 1125 313 q 1229 368 1185 368 q 1303 340 1274 368 q 1333 271 1333 313 q 1303 201 1333 229 q 1229 174 1274 174 q 1156 201 1185 174 m 261 771 q 336 799 292 799 q 410 771 381 799 q 440 701 440 743 q 410 632 440 660 q 336 604 381 604 q 261 632 292 604 q 232 701 232 660 q 261 771 232 743 m 1832 201 q 1803 271 1803 229 q 1832 340 1803 313 q 1907 368 1863 368 q 1981 340 1951 368 q 2011 271 2011 313 q 1981 201 2011 229 q 1907 174 1951 174 q 1832 201 1863 174 "},"‹":{"ha":638,"x_min":33,"x_max":604,"o":"m 294 111 l 604 111 l 336 483 l 336 489 l 604 861 l 294 861 l 33 486 l 294 111 "},"›":{"ha":638,"x_min":33,"x_max":604,"o":"m 343 861 l 33 861 l 301 489 l 301 483 l 33 111 l 343 111 l 604 486 l 343 861 "},"⁄":{"ha":508,"x_min":-265,"x_max":790,"o":"m 790 972 l 469 972 l -265 0 l 56 0 l 790 972 "},"⁰":{"ha":813,"x_min":33,"x_max":779,"o":"m 407 592 q 306 630 343 592 q 268 738 268 668 q 306 845 268 807 q 407 883 343 883 q 507 844 469 883 q 544 738 544 806 q 507 631 544 669 q 407 592 469 592 m 132 956 q 33 738 33 874 q 132 519 33 601 q 407 439 229 439 q 681 519 583 439 q 779 738 779 601 q 681 956 779 874 q 407 1036 583 1036 q 132 956 229 1036 "},"⁴":{"ha":824,"x_min":33,"x_max":790,"o":"m 689 1028 l 474 1028 l 35 674 l 33 543 l 457 543 l 457 447 l 689 447 l 689 543 l 790 543 l 790 693 l 689 693 l 689 1028 m 271 693 l 271 697 l 453 833 l 457 833 l 457 693 l 271 693 "},"⁵":{"ha":753,"x_min":33,"x_max":719,"o":"m 472 836 q 243 792 332 836 q 240 793 242 792 l 240 875 l 679 876 l 679 1028 l 40 1028 l 40 721 l 128 678 l 161 682 q 326 694 264 694 q 488 646 488 694 q 324 590 488 590 q 33 628 186 590 l 33 471 l 90 464 q 228 447 147 456 q 360 439 308 439 q 719 644 719 439 q 646 789 719 740 q 472 836 574 836 "},"⁶":{"ha":808,"x_min":33,"x_max":775,"o":"m 476 889 q 710 850 618 889 l 710 1007 l 685 1014 q 464 1036 618 1036 q 153 953 274 1036 q 33 731 33 869 q 136 516 33 593 q 418 439 239 439 q 672 490 571 439 q 775 647 775 543 q 690 785 775 736 q 456 833 606 833 q 282 801 378 833 l 279 804 q 342 866 290 843 q 476 889 394 889 m 410 715 q 542 658 542 715 q 506 612 542 629 q 408 594 471 594 q 313 613 349 594 q 276 658 276 631 q 313 700 276 685 q 410 715 350 715 "},"⁷":{"ha":689,"x_min":33,"x_max":656,"o":"m 33 876 l 392 876 l 392 872 l 74 447 l 335 447 l 656 897 l 656 1028 l 33 1028 l 33 876 "},"⁸":{"ha":819,"x_min":33,"x_max":786,"o":"m 33 613 q 133 484 33 529 q 410 439 233 439 q 685 483 585 438 q 785 611 785 529 q 744 697 786 660 q 625 753 703 733 l 625 757 q 760 881 760 796 q 665 995 760 954 q 410 1036 571 1036 q 153 995 246 1036 q 60 881 60 954 q 194 758 60 796 l 194 753 q 33 613 33 713 m 410 700 q 517 683 476 700 q 558 639 558 665 q 518 595 558 613 q 410 578 478 578 q 301 595 342 578 q 261 639 261 613 q 301 683 261 665 q 410 700 342 700 m 410 899 q 524 867 497 899 q 496 818 547 839 q 447 806 476 810 q 390 805 418 803 q 338 813 363 807 q 300 830 314 819 q 289 851 286 840 q 322 885 289 872 q 410 899 356 899 "},"⁹":{"ha":808,"x_min":33,"x_max":775,"o":"m 332 586 q 99 625 190 586 l 99 468 l 124 461 q 344 439 190 439 q 654 522 535 439 q 775 744 775 606 q 672 959 775 882 q 390 1036 569 1036 q 136 983 239 1036 q 33 828 33 931 q 118 690 33 739 q 353 642 203 642 q 526 674 431 642 l 529 671 q 466 609 518 632 q 332 586 414 586 m 399 760 q 267 817 267 760 q 302 863 267 846 q 400 881 338 881 q 496 863 460 881 q 532 817 532 844 q 495 775 532 790 q 399 760 458 760 "},"₀":{"ha":813,"x_min":33,"x_max":779,"o":"m 407 89 q 306 127 343 89 q 268 235 268 165 q 306 342 268 304 q 407 381 343 381 q 507 342 469 381 q 544 235 544 303 q 507 128 544 167 q 407 89 469 89 m 132 453 q 33 235 33 371 q 132 17 33 99 q 407 -64 229 -64 q 681 17 583 -64 q 779 235 779 99 q 681 453 779 371 q 407 533 583 533 q 132 453 229 533 "},"₁":{"ha":421,"x_min":33,"x_max":388,"o":"m 168 525 q 130 445 167 475 q 33 415 93 415 l 35 275 q 154 285 106 275 l 157 285 l 157 -56 l 388 -56 l 388 525 l 168 525 "},"₂":{"ha":725,"x_min":11,"x_max":692,"o":"m 311 293 q 82 172 153 265 q 43 -56 11 79 l 692 -56 l 692 93 l 279 93 q 410 157 288 132 l 488 174 q 558 196 501 176 q 624 229 599 211 q 681 343 681 275 q 599 488 681 442 q 346 533 518 533 q 215 524 299 533 q 96 506 122 513 l 94 346 l 122 356 q 314 381 207 381 q 451 346 451 381 q 385 307 450 324 q 368 303 375 304 q 351 299 361 301 q 332 296 342 297 q 322 295 326 296 q 314 294 317 294 l 311 293 "},"₃":{"ha":721,"x_min":33,"x_max":688,"o":"m 538 256 q 625 309 593 275 q 657 383 657 343 q 299 533 657 533 q 58 517 143 533 l 58 371 q 157 386 100 379 q 271 393 231 394 q 392 384 357 393 q 426 353 426 375 q 275 303 426 304 l 136 303 l 136 183 q 306 189 224 192 q 454 135 454 185 q 265 76 454 76 q 139 86 208 76 q 33 107 64 97 l 33 -46 q 297 -64 119 -64 q 688 113 688 -67 q 538 251 688 210 l 538 256 "},"₄":{"ha":824,"x_min":33,"x_max":790,"o":"m 271 190 l 271 194 l 453 331 l 457 331 l 457 190 l 271 190 m 689 525 l 474 525 l 35 171 l 33 40 l 457 40 l 457 -56 l 689 -56 l 689 40 l 790 40 l 790 190 l 689 190 l 689 525 "},"₅":{"ha":753,"x_min":33,"x_max":719,"o":"m 472 333 q 243 289 332 333 q 240 290 242 289 l 240 372 l 679 374 l 679 525 l 40 525 l 40 218 l 128 175 l 161 179 q 326 192 264 192 q 488 143 488 192 q 324 88 488 88 q 33 125 186 88 l 33 -32 l 90 -39 q 228 -56 147 -47 q 360 -64 308 -64 q 719 142 719 -64 q 646 286 719 238 q 472 333 574 333 "},"₆":{"ha":808,"x_min":33,"x_max":775,"o":"m 476 386 q 710 347 618 386 l 710 504 l 685 511 q 464 533 618 533 q 153 450 274 533 q 33 228 33 367 q 136 13 33 90 q 418 -64 239 -64 q 672 -11 569 -64 q 775 144 775 42 q 690 282 775 233 q 456 331 606 331 q 282 299 378 331 l 279 301 q 342 363 290 340 q 476 386 394 386 m 410 213 q 542 156 542 213 q 506 109 542 126 q 408 92 471 92 q 313 110 349 92 q 276 156 276 128 q 313 197 276 182 q 410 213 350 213 "},"₇":{"ha":689,"x_min":33,"x_max":656,"o":"m 33 374 l 392 374 l 392 369 l 74 -56 l 335 -56 l 656 394 l 656 525 l 33 525 l 33 374 "},"₈":{"ha":819,"x_min":33,"x_max":786,"o":"m 33 110 q 133 -19 33 26 q 410 -64 233 -64 q 685 -19 585 -65 q 785 108 785 26 q 744 194 786 157 q 625 250 703 231 l 625 254 q 760 378 760 293 q 665 492 760 451 q 410 533 571 533 q 153 492 246 533 q 60 378 60 451 q 194 256 60 293 l 194 250 q 33 110 33 210 m 410 197 q 517 180 476 197 q 558 136 558 163 q 518 92 558 110 q 410 75 478 75 q 301 92 342 75 q 261 136 261 110 q 301 180 261 163 q 410 197 342 197 m 410 396 q 524 364 497 396 q 496 315 547 336 q 447 303 476 307 q 390 302 418 300 q 338 310 363 304 q 300 327 314 317 q 289 349 286 338 q 322 383 289 369 q 410 396 356 396 "},"₉":{"ha":808,"x_min":33,"x_max":775,"o":"m 332 83 q 99 122 190 83 l 99 -35 l 124 -42 q 344 -64 190 -64 q 654 19 535 -64 q 775 242 775 103 q 672 456 775 379 q 390 533 569 533 q 136 481 239 533 q 33 325 33 428 q 118 188 33 236 q 353 139 203 139 q 526 171 431 139 l 529 168 q 466 106 518 129 q 332 83 414 83 m 399 257 q 267 314 267 257 q 302 360 267 343 q 400 378 338 378 q 496 360 460 378 q 532 314 532 342 q 495 272 532 288 q 399 257 458 257 "},"₣":{"ha":1578,"x_min":33,"x_max":1544,"o":"m 33 249 l 33 124 l 347 124 l 347 0 l 735 0 l 735 124 l 1040 124 l 1040 249 l 735 249 l 735 356 l 1450 356 l 1450 581 l 735 581 l 735 717 l 1544 717 l 1544 972 l 347 972 l 347 249 l 33 249 "},"₤":{"ha":1254,"x_min":33,"x_max":1221,"o":"m 96 0 l 1221 0 l 1221 256 l 528 256 l 528 269 q 581 343 560 301 l 1103 343 l 1101 457 l 607 457 l 607 508 l 1103 508 l 1101 622 l 607 622 l 607 669 q 653 725 607 703 q 776 747 700 747 q 1186 683 993 747 l 1188 931 l 1139 944 q 989 972 1100 957 q 776 986 892 986 q 378 914 526 986 q 231 717 229 843 l 231 622 l 33 622 l 33 508 l 231 508 l 231 457 l 33 457 l 33 343 l 229 343 q 186 261 225 289 q 96 233 147 233 l 96 0 "},"₧":{"ha":1828,"x_min":33,"x_max":1794,"o":"m 1540 638 q 1000 972 1503 972 l 301 972 l 301 638 l 33 638 l 33 525 l 301 525 l 301 0 l 689 0 l 689 190 l 1000 190 q 1540 525 1503 190 l 1794 525 l 1794 638 l 1540 638 m 997 717 q 1167 646 1121 717 l 1167 638 l 689 638 l 689 717 l 997 717 m 689 446 l 689 525 l 1167 525 l 1167 518 q 997 446 1121 446 l 689 446 "},"₨":{"ha":1164,"x_min":33,"x_max":1131,"o":"m 1131 881 l 33 881 l 33 706 l 440 706 q 646 644 600 706 l 646 635 l 33 635 l 33 471 l 649 471 l 649 461 q 440 397 601 397 l 33 397 l 33 225 l 465 226 l 699 0 l 969 0 l 703 257 l 703 265 q 907 471 871 325 l 1131 471 l 1131 635 l 908 635 q 881 708 901 669 l 881 718 l 1131 718 l 1131 881 "},"€":{"ha":1454,"x_min":33,"x_max":1421,"o":"m 965 -14 q 1213 0 1083 -14 q 1421 39 1342 14 l 1419 350 q 1250 272 1379 304 q 1006 242 1124 242 q 650 354 746 242 l 1103 354 l 1101 468 l 604 468 q 606 519 600 486 l 1103 519 l 1101 633 l 663 633 q 1006 731 764 731 q 1235 700 1114 731 q 1394 628 1360 668 l 1394 936 q 965 986 1233 986 q 235 633 342 986 l 33 633 l 33 519 l 215 519 q 215 492 215 513 q 214 468 214 472 l 33 468 l 33 354 l 231 354 q 461 81 278 175 q 965 -14 644 -14 "},"ℓ":{"ha":868,"x_min":33,"x_max":833,"o":"m 533 350 q 719 461 649 392 q 806 593 779 518 q 831 704 831 650 q 833 724 832 710 q 833 744 833 738 l 833 760 q 828 808 833 782 q 804 874 824 835 q 753 943 785 913 q 662 995 722 974 q 522 1017 601 1017 q 378 992 442 1017 q 282 931 314 968 q 233 849 254 900 q 211 710 211 783 l 211 429 l 33 363 l 97 192 l 210 232 l 215 229 q 368 22 233 90 q 557 -14 443 -10 q 769 18 686 -14 l 768 254 l 746 242 q 565 208 682 208 q 508 225 531 208 q 475 328 475 251 l 475 329 l 533 350 m 519 792 q 551 775 542 792 q 561 715 561 758 q 481 539 561 594 l 475 543 q 474 658 475 638 q 483 763 474 735 q 519 792 492 792 "},"™":{"ha":1178,"x_min":10,"x_max":1168,"o":"m 858 788 l 851 788 l 749 972 l 542 972 l 542 639 l 685 639 l 685 856 l 689 856 l 813 639 l 896 639 l 1019 856 l 1024 856 l 1024 639 l 1168 639 l 1168 972 l 960 972 l 858 788 m 10 875 l 174 875 l 174 639 l 326 639 l 326 875 l 490 875 l 489 972 l 10 972 l 10 875 "},"Ω":{"ha":1361,"x_min":32,"x_max":1329,"o":"m 1071 232 q 1328 583 1328 343 q 1146 892 1329 778 q 681 1003 963 1006 q 215 892 399 1006 q 33 583 32 778 q 290 232 33 343 l 290 224 l 33 224 l 33 0 l 604 0 l 604 228 q 464 310 514 247 q 414 468 414 372 q 485 649 414 583 q 681 715 556 715 q 876 649 806 715 q 947 468 947 583 q 898 310 947 372 q 757 228 849 247 l 757 0 l 1328 0 l 1328 224 l 1071 224 l 1071 232 "},"℮":{"ha":1232,"x_min":33,"x_max":1199,"o":"m 615 903 q 879 843 769 903 l 881 585 l 353 583 l 351 842 q 615 903 463 901 m 618 68 q 354 126 467 68 l 353 485 l 1199 488 q 1042 864 1196 725 q 615 1001 888 1003 q 188 860 344 1000 q 35 483 33 719 q 190 108 38 247 q 615 -29 344 -29 q 949 44 807 -29 q 1151 249 1090 118 l 1053 306 q 889 133 1004 197 q 618 68 775 71 "},"←":{"ha":776,"x_min":33,"x_max":743,"o":"m 424 253 l 254 422 l 254 429 l 743 429 l 743 543 l 254 543 l 254 550 l 424 719 l 267 719 l 33 486 l 267 253 l 424 253 "},"↑":{"ha":533,"x_min":33,"x_max":500,"o":"m 33 607 l 33 451 l 203 619 l 210 619 l 210 131 l 324 131 l 324 619 l 331 619 l 500 451 l 500 607 l 267 842 l 33 607 "},"→":{"ha":776,"x_min":33,"x_max":743,"o":"m 353 719 l 522 550 l 522 543 l 33 543 l 33 429 l 522 429 l 522 422 l 353 253 l 510 253 l 743 486 l 510 719 l 353 719 "},"↓":{"ha":533,"x_min":33,"x_max":500,"o":"m 500 521 l 331 353 l 324 353 l 324 842 l 210 842 l 210 353 l 203 353 l 33 521 l 33 364 l 267 131 l 500 364 l 500 521 "},"↔":{"ha":1040,"x_min":33,"x_max":1007,"o":"m 617 719 l 786 550 l 786 543 l 254 543 l 254 550 l 424 719 l 267 719 l 33 486 l 267 253 l 424 253 l 254 422 l 254 429 l 786 429 l 786 422 l 617 253 l 774 253 l 1007 486 l 774 719 l 617 719 "},"↕":{"ha":533,"x_min":33,"x_max":500,"o":"m 500 389 l 331 221 l 324 221 l 324 751 l 331 751 l 500 583 l 500 739 l 267 974 l 33 739 l 33 583 l 203 751 l 210 751 l 210 221 l 203 221 l 33 389 l 33 232 l 267 -1 l 500 232 l 500 389 "},"↖":{"ha":610,"x_min":33,"x_max":576,"o":"m 144 317 l 144 556 l 149 561 l 494 215 l 576 296 l 231 642 l 235 646 l 474 646 l 364 757 l 33 757 l 33 426 l 144 317 "},"↗":{"ha":610,"x_min":33,"x_max":576,"o":"m 246 757 l 135 646 l 374 646 l 379 642 l 33 296 l 114 215 l 460 561 l 465 556 l 465 317 l 576 426 l 576 757 l 246 757 "},"↘":{"ha":610,"x_min":33,"x_max":576,"o":"m 465 656 l 465 417 l 460 411 l 114 757 l 33 676 l 379 331 l 374 325 l 135 325 l 246 215 l 576 215 l 576 544 l 465 656 "},"↙":{"ha":610,"x_min":33,"x_max":576,"o":"m 474 325 l 235 325 l 231 331 l 576 676 l 494 757 l 149 411 l 144 417 l 144 656 l 33 544 l 33 215 l 364 215 l 474 325 "},"∂":{"ha":1125,"x_min":32,"x_max":1092,"o":"m 542 -14 q 940 121 792 -14 q 1092 490 1092 256 q 883 885 1092 722 q 606 1013 778 967 q 219 1058 435 1058 l 219 788 q 714 638 614 788 l 710 632 q 488 667 626 667 q 152 582 272 667 q 32 344 32 497 q 107 139 32 222 q 293 21 181 57 q 542 -14 401 -14 m 551 464 q 690 437 636 464 q 744 365 744 410 q 692 287 744 318 q 554 254 640 256 q 414 283 464 254 q 364 364 364 313 q 415 438 364 413 q 551 464 465 464 "},"∆":{"ha":1335,"x_min":-17,"x_max":1351,"o":"m -17 0 l 1351 0 l 667 1003 l -17 0 m 860 242 l 857 236 l 472 236 l 469 242 l 661 529 l 668 529 l 860 242 "},"∏":{"ha":1300,"x_min":117,"x_max":1183,"o":"m 117 -181 l 493 -181 l 493 697 l 807 697 l 807 -181 l 1183 -181 l 1183 972 l 118 972 l 117 -181 "},"∑":{"ha":1100,"x_min":33,"x_max":1067,"o":"m 1067 972 l 33 972 l 33 654 l 404 407 l 404 400 l 33 160 l 33 -181 l 1067 -181 l 1067 89 l 506 89 l 506 96 l 908 403 l 519 696 l 519 704 l 1067 704 l 1067 972 "},"−":{"ha":854,"x_min":33,"x_max":821,"o":"m 821 358 l 821 614 l 33 614 l 33 358 l 821 358 "},"∕":{"ha":983,"x_min":33,"x_max":950,"o":"m 950 972 l 574 972 l 33 0 l 410 0 l 950 972 "},"∙":{"ha":493,"x_min":33,"x_max":460,"o":"m 460 486 q 400 629 460 574 q 247 685 340 685 q 93 629 153 685 q 33 488 33 574 q 93 343 33 399 q 247 288 153 288 q 399 343 339 288 q 460 486 460 400 "},"√":{"ha":1236,"x_min":33,"x_max":1203,"o":"m 568 143 l 560 143 l 464 518 l 33 518 l 33 268 l 225 268 l 358 -181 l 842 -181 l 1203 972 l 824 972 l 568 143 "},"∞":{"ha":1421,"x_min":33,"x_max":1388,"o":"m 1032 790 q 714 638 875 790 l 708 638 q 389 790 543 790 q 129 709 225 790 q 33 486 33 628 q 129 263 33 344 q 389 182 225 182 q 708 335 543 182 l 714 335 q 1032 182 875 182 q 1292 263 1196 182 q 1388 486 1388 344 q 1292 709 1388 628 q 1032 790 1196 790 m 417 388 q 333 414 365 388 q 301 486 301 440 q 333 558 301 532 q 417 585 365 585 q 575 489 508 585 l 575 483 q 417 388 508 388 m 1006 388 q 846 483 913 388 l 846 489 q 1006 585 913 585 q 1088 558 1057 585 q 1119 486 1119 532 q 1088 414 1119 440 q 1006 388 1057 388 "},"∫":{"ha":731,"x_min":33,"x_max":697,"o":"m 176 282 q 140 189 176 226 q 33 143 103 151 l 33 -67 q 442 13 331 -64 q 554 282 554 89 l 553 638 q 591 729 553 690 q 697 776 629 768 l 697 986 q 290 906 404 983 q 176 638 176 826 l 176 282 "},"≈":{"ha":1024,"x_min":33,"x_max":990,"o":"m 990 810 q 921 785 958 794 q 853 769 883 775 q 776 765 822 764 q 706 767 731 767 q 629 776 682 768 q 559 788 576 785 q 484 803 542 792 q 417 817 426 815 q 33 792 194 864 l 33 528 q 103 554 65 544 q 171 569 142 564 q 247 574 200 575 q 317 572 294 572 q 395 563 340 572 q 465 551 450 553 q 540 535 479 549 q 607 521 601 522 q 990 546 838 478 l 990 810 m 990 443 q 915 415 953 425 q 828 402 876 404 q 749 399 779 400 q 660 406 719 397 q 581 418 600 415 q 493 435 561 421 q 417 450 425 449 q 33 425 194 497 l 33 161 q 89 183 60 174 q 143 198 118 192 q 203 206 168 204 q 259 208 238 207 q 320 206 281 210 q 377 199 360 201 q 438 190 394 197 q 494 179 482 182 q 553 167 507 176 q 607 156 599 157 q 990 179 838 113 l 990 443 "},"≠":{"ha":1056,"x_min":33,"x_max":1022,"o":"m 1022 797 l 854 797 l 851 804 l 957 940 l 857 1017 l 689 797 l 33 797 l 33 542 l 483 542 l 485 539 q 488 535 486 538 l 410 435 l 33 435 l 33 175 l 201 175 l 204 168 l 100 32 l 199 -44 l 368 175 l 1022 175 l 1022 435 l 575 435 l 572 442 l 650 542 l 1022 542 l 1022 797 "},"≤":{"ha":860,"x_min":33,"x_max":826,"o":"m 33 735 l 33 457 l 826 278 l 826 517 l 350 592 l 350 600 l 826 675 l 826 914 l 33 735 m 33 225 l 33 0 l 826 0 l 826 225 l 33 225 "},"≥":{"ha":860,"x_min":33,"x_max":826,"o":"m 33 675 l 510 600 l 510 592 l 33 517 l 33 278 l 826 457 l 826 735 l 33 914 l 33 675 m 33 0 l 826 0 l 826 225 l 33 225 l 33 0 "},"◇":{"ha":1307,"x_min":33,"x_max":1274,"o":"m 33 486 l 654 71 l 1274 486 l 654 901 l 33 486 m 654 754 l 1054 486 l 654 218 l 253 486 l 654 754 "},"◊":{"ha":1079,"x_min":33,"x_max":1046,"o":"m 33 494 l 363 0 l 717 0 l 1046 494 l 717 972 l 363 972 l 33 494 m 403 494 l 540 706 l 675 494 l 540 276 l 403 494 "},"☜":{"ha":1042,"x_min":33,"x_max":1008,"o":"m 469 200 q 315 418 456 319 l 315 428 l 1008 428 l 1008 544 l 315 544 l 315 554 q 469 772 456 653 l 339 772 q 231 608 321 674 q 33 539 143 546 l 33 433 q 229 363 139 428 q 339 200 318 299 l 469 200 "},"☝":{"ha":638,"x_min":33,"x_max":604,"o":"m 33 538 q 251 692 156 551 l 260 692 l 260 -1 l 378 -1 l 378 692 l 388 692 q 488 586 431 628 q 604 538 546 544 l 604 668 q 442 776 506 686 q 371 974 376 867 l 267 974 q 196 776 261 867 q 33 668 131 686 l 33 538 "},"☞":{"ha":1042,"x_min":33,"x_max":1008,"o":"m 572 772 q 726 554 586 650 l 726 544 l 33 544 l 33 428 l 726 428 l 726 418 q 572 200 586 322 l 703 200 q 811 363 722 297 q 1008 433 901 428 l 1008 539 q 811 608 899 546 q 703 772 722 672 l 572 772 "},"☟":{"ha":638,"x_min":33,"x_max":604,"o":"m 33 304 q 196 196 131 286 q 267 -1 261 106 l 371 -1 q 442 196 376 106 q 604 304 506 286 l 604 435 q 488 386 546 428 q 388 281 431 344 l 378 281 l 378 974 l 260 974 l 260 281 l 251 281 q 33 435 156 421 l 33 304 "},"☯":{"ha":1139,"x_min":78,"x_max":1106,"o":"m 225 840 q 78 486 78 697 q 224 131 78 276 q 592 -14 372 -14 q 958 131 811 -14 q 1106 486 1106 276 q 958 840 1106 697 q 592 986 813 986 q 225 840 371 986 m 517 275 q 534 316 517 299 q 576 333 551 333 q 617 316 600 333 q 635 275 635 299 q 617 233 635 250 q 576 215 600 215 q 534 233 551 215 q 517 275 517 250 m 626 71 q 741 144 696 88 q 786 275 786 201 q 724 422 786 361 q 576 485 663 485 q 426 546 490 485 q 365 694 365 610 q 409 823 365 767 q 521 897 453 879 q 592 903 547 903 q 897 782 776 903 q 1019 486 1019 661 q 908 201 1019 321 q 626 71 799 83 m 576 754 q 534 737 551 754 q 517 694 517 719 q 534 653 517 671 q 576 636 551 636 q 617 653 600 636 q 635 694 635 671 q 617 737 635 719 q 576 754 600 754 "},"☺":{"ha":1094,"x_min":33,"x_max":1061,"o":"m 179 840 q 33 486 33 697 q 179 131 33 276 q 547 -14 328 -14 q 914 131 767 -14 q 1061 486 1061 276 q 914 840 1061 697 q 547 986 768 986 q 179 840 328 986 m 118 486 q 240 782 118 661 q 547 903 363 903 q 853 782 732 903 q 975 486 975 661 q 853 190 975 311 q 547 69 732 69 q 240 190 363 69 q 118 399 118 311 q 118 486 118 486 m 779 476 q 713 315 779 382 q 547 250 647 250 q 381 315 449 250 q 315 476 315 381 l 238 476 q 325 263 238 350 q 547 175 414 175 q 768 263 681 175 q 857 476 857 350 l 779 476 m 474 535 q 488 607 488 565 q 474 678 488 649 q 440 708 460 708 q 407 678 421 708 q 393 607 393 649 q 407 535 393 565 q 440 506 421 506 q 474 535 460 506 m 688 535 q 701 607 701 565 q 688 678 701 649 q 654 708 674 708 q 621 678 635 708 q 607 607 607 649 q 621 535 607 565 q 654 506 635 506 q 688 535 674 506 "},"✓":{"ha":928,"x_min":33,"x_max":894,"o":"m 463 122 q 553 382 494 253 q 664 586 610 506 q 776 732 717 664 q 860 821 842 806 l 894 850 l 614 850 q 407 539 482 732 q 335 317 353 392 l 326 317 l 221 503 l 33 503 l 244 122 l 463 122 "},"✕":{"ha":828,"x_min":33,"x_max":794,"o":"m 594 850 l 460 674 l 451 674 l 390 850 l 189 850 l 318 490 l 33 122 l 233 122 l 376 306 l 385 306 l 450 122 l 650 122 l 518 490 l 794 850 l 594 850 "},"➀":{"ha":1094,"x_min":33,"x_max":1061,"o":"m 179 840 q 33 486 33 697 q 179 131 33 276 q 547 -14 328 -14 q 914 131 767 -14 q 1061 486 1061 276 q 914 840 1061 697 q 547 986 768 986 q 179 840 328 986 m 118 486 q 240 782 118 661 q 547 903 363 903 q 853 782 732 903 q 975 486 975 661 q 853 190 975 311 q 547 69 732 69 q 240 190 363 69 q 118 399 118 311 q 118 486 118 486 m 492 738 q 458 667 490 693 q 375 642 426 642 l 375 521 q 478 529 432 521 l 481 529 l 481 235 l 681 235 l 681 738 l 492 738 "},"➁":{"ha":1094,"x_min":33,"x_max":1061,"o":"m 503 540 q 306 435 367 515 q 271 239 244 356 l 831 239 l 831 368 l 475 367 q 589 422 481 401 q 672 442 631 431 q 743 468 707 451 q 822 582 822 503 q 752 708 822 668 q 532 747 682 747 q 421 738 493 747 q 317 722 353 731 l 317 585 l 342 592 q 506 615 410 615 q 624 585 624 615 q 503 540 624 561 m 118 486 q 240 782 118 661 q 547 903 363 903 q 853 782 732 903 q 975 486 975 661 q 853 190 975 311 q 547 69 732 69 q 240 190 363 69 q 118 399 118 311 q 118 486 118 486 m 179 840 q 33 486 33 697 q 179 131 33 276 q 547 -14 328 -14 q 914 131 767 -14 q 1061 486 1061 276 q 914 840 1061 697 q 547 986 768 986 q 179 840 328 986 "},"➂":{"ha":1094,"x_min":33,"x_max":1061,"o":"m 179 840 q 33 486 33 697 q 179 131 33 276 q 547 -14 328 -14 q 914 131 767 -14 q 1061 486 1061 276 q 914 840 1061 697 q 547 986 768 986 q 179 840 328 986 m 118 486 q 240 782 118 661 q 547 903 363 903 q 853 782 732 903 q 975 486 975 661 q 853 190 975 311 q 547 69 732 69 q 240 190 363 69 q 118 399 118 311 q 118 486 118 486 m 711 504 q 788 551 760 521 q 815 615 815 581 q 506 744 815 744 q 299 731 383 744 l 299 603 q 482 624 375 624 q 587 616 557 624 q 617 588 617 608 q 486 544 617 546 l 365 544 l 367 442 q 511 447 413 447 q 640 400 640 443 q 478 350 640 350 q 369 358 433 350 q 278 375 306 367 l 278 244 q 506 228 361 228 q 842 381 842 228 q 711 500 842 465 l 711 504 "},"➃":{"ha":1094,"x_min":33,"x_max":1061,"o":"m 179 840 q 33 486 33 697 q 179 131 33 276 q 547 -14 328 -14 q 914 131 767 -14 q 1061 486 1061 276 q 914 840 1061 697 q 547 986 768 986 q 179 840 328 986 m 118 486 q 240 782 118 661 q 547 903 363 903 q 853 782 732 903 q 975 486 975 661 q 853 190 975 311 q 547 69 732 69 q 240 190 363 69 q 118 399 118 311 q 118 486 118 486 m 775 743 l 589 742 l 210 436 l 210 324 l 575 324 l 575 240 l 775 240 l 775 324 l 863 324 l 863 454 l 775 454 l 775 743 m 414 454 l 414 457 l 571 574 l 575 574 l 575 454 l 414 454 "},"➄":{"ha":1094,"x_min":33,"x_max":1061,"o":"m 640 569 q 443 531 519 569 q 440 532 442 532 l 440 603 l 819 604 l 819 735 l 268 735 l 268 469 l 344 432 l 374 436 q 515 447 478 447 q 654 406 654 447 q 513 357 654 357 q 263 389 397 357 l 263 254 l 311 247 q 431 233 390 238 q 544 226 510 226 q 776 272 697 226 q 854 404 854 318 q 790 528 854 489 q 640 569 728 569 m 118 486 q 240 782 118 661 q 547 903 363 903 q 853 782 732 903 q 975 486 975 661 q 853 190 975 311 q 547 69 732 69 q 240 190 363 69 q 118 399 118 311 q 118 486 118 486 m 179 840 q 33 486 33 697 q 179 131 33 276 q 547 -14 328 -14 q 914 131 767 -14 q 1061 486 1061 276 q 914 840 1061 697 q 547 986 768 986 q 179 840 328 986 "},"➅":{"ha":1094,"x_min":33,"x_max":1061,"o":"m 551 467 q 667 418 667 467 q 636 378 667 393 q 551 363 606 363 q 467 378 499 363 q 436 418 436 393 q 468 453 436 440 q 551 467 500 467 m 610 617 q 811 583 731 617 l 811 718 l 789 725 q 599 744 711 744 q 331 672 433 744 q 228 481 228 601 q 315 294 226 361 q 560 228 404 228 q 778 272 689 228 q 867 408 867 318 q 794 527 867 485 q 592 569 721 569 q 442 542 529 569 l 440 542 l 439 543 q 495 597 450 576 q 610 617 540 617 m 118 486 q 240 782 118 661 q 547 903 363 903 q 853 782 732 903 q 975 486 975 661 q 853 190 975 311 q 547 69 732 69 q 240 190 363 69 q 118 399 118 311 q 118 486 118 486 m 179 840 q 33 486 33 697 q 179 131 33 276 q 547 -14 328 -14 q 914 131 767 -14 q 1061 486 1061 276 q 914 840 1061 697 q 547 986 768 986 q 179 840 328 986 "},"➆":{"ha":1094,"x_min":33,"x_max":1061,"o":"m 290 589 l 600 589 l 600 586 l 325 218 l 550 218 l 826 607 l 826 719 l 290 721 l 290 589 m 118 486 q 240 782 118 661 q 547 903 363 903 q 853 782 732 903 q 975 486 975 661 q 853 190 975 311 q 547 69 732 69 q 240 190 363 69 q 118 399 118 311 q 118 486 118 486 m 179 840 q 33 486 33 697 q 179 131 33 276 q 547 -14 328 -14 q 914 131 767 -14 q 1061 486 1061 276 q 914 840 1061 697 q 547 986 768 986 q 179 840 328 986 "},"➇":{"ha":1094,"x_min":33,"x_max":1061,"o":"m 179 840 q 33 486 33 697 q 179 131 33 276 q 547 -14 328 -14 q 914 131 767 -14 q 1061 486 1061 276 q 914 840 1061 697 q 547 986 768 986 q 179 840 328 986 m 118 486 q 240 782 118 661 q 547 903 363 903 q 853 782 732 903 q 975 486 975 661 q 853 190 975 311 q 547 69 732 69 q 240 190 363 69 q 118 399 118 311 q 118 486 118 486 m 222 378 q 309 267 222 307 q 547 228 396 228 q 785 267 699 228 q 871 376 871 306 q 835 451 872 419 q 732 500 799 483 l 732 503 q 849 610 849 536 q 767 708 849 672 q 547 744 686 744 q 327 708 408 744 q 246 610 246 672 q 361 504 246 536 l 361 500 q 222 378 222 465 m 547 349 q 424 386 451 349 q 453 439 403 417 q 547 454 490 454 q 642 439 604 454 q 676 401 676 425 q 640 364 675 379 q 547 349 606 349 m 443 585 q 472 613 443 601 q 547 625 501 625 q 622 613 593 625 q 651 583 651 601 q 622 555 651 567 q 547 543 592 543 q 472 555 501 543 q 443 585 443 567 "},"➈":{"ha":1094,"x_min":33,"x_max":1061,"o":"m 179 840 q 33 486 33 697 q 179 131 33 276 q 547 -14 328 -14 q 914 131 767 -14 q 1061 486 1061 276 q 914 840 1061 697 q 547 986 768 986 q 179 840 328 986 m 118 486 q 240 782 118 661 q 547 903 363 903 q 853 782 732 903 q 975 486 975 661 q 853 190 975 311 q 547 69 732 69 q 240 190 363 69 q 118 399 118 311 q 118 486 118 486 m 485 356 q 283 389 364 356 l 283 254 l 306 247 q 494 228 383 228 q 763 300 660 228 q 867 492 867 372 q 778 678 867 611 q 535 744 690 744 q 315 699 406 744 q 228 564 228 656 q 300 445 228 488 q 501 403 372 403 q 653 431 574 403 l 656 428 q 599 375 644 394 q 485 356 553 356 m 543 506 q 428 554 428 506 q 458 594 428 579 q 543 610 489 610 q 625 594 593 610 q 657 554 657 578 q 625 518 657 532 q 543 506 593 504 "},"➊":{"ha":1094,"x_min":33,"x_max":1061,"o":"m 915 132 q 1061 486 1061 275 q 914 840 1061 697 q 547 986 768 986 q 179 840 328 986 q 33 486 33 697 q 179 131 33 276 q 547 -14 328 -14 q 915 132 767 -14 m 681 738 l 681 235 l 481 235 l 481 529 l 478 529 q 375 521 432 521 l 375 642 q 458 667 426 642 q 492 738 490 693 l 681 738 "},"➋":{"ha":1094,"x_min":33,"x_max":1061,"o":"m 179 840 q 33 486 33 697 q 179 131 33 276 q 547 -14 328 -14 q 914 131 767 -14 q 1061 486 1061 276 q 914 840 1061 697 q 547 986 768 986 q 179 840 328 986 m 271 239 q 306 435 244 356 q 503 540 367 515 q 624 585 624 561 q 506 615 624 615 q 317 585 400 615 l 317 722 q 421 738 353 731 q 532 747 493 747 q 752 708 682 747 q 822 582 822 668 q 743 468 822 503 q 672 442 707 451 q 589 422 631 431 q 475 367 481 401 l 831 368 l 831 239 l 271 239 "},"➌":{"ha":1094,"x_min":33,"x_max":1061,"o":"m 179 840 q 33 486 33 697 q 179 131 33 276 q 547 -14 328 -14 q 914 131 767 -14 q 1061 486 1061 276 q 914 840 1061 697 q 547 986 768 986 q 179 840 328 986 m 506 228 q 278 244 361 228 l 278 375 q 369 358 306 367 q 478 350 433 350 q 640 400 640 350 q 511 447 640 443 q 367 442 413 447 l 365 544 l 486 544 q 617 588 617 546 q 587 616 617 608 q 482 624 557 624 q 299 603 375 624 l 299 731 q 506 744 383 744 q 815 615 815 744 q 788 551 815 581 q 711 504 760 521 l 711 500 q 842 381 842 465 q 506 228 842 228 "},"➍":{"ha":1094,"x_min":33,"x_max":1061,"o":"m 179 840 q 33 486 33 697 q 179 131 33 276 q 547 -14 328 -14 q 914 131 767 -14 q 1061 486 1061 276 q 914 840 1061 697 q 547 986 768 986 q 179 840 328 986 m 775 324 l 775 240 l 575 240 l 575 324 l 210 324 l 210 436 l 589 742 l 775 743 l 775 454 l 863 454 l 863 324 l 775 324 m 414 454 l 575 454 l 575 574 l 571 574 l 414 457 l 414 454 "},"➎":{"ha":1094,"x_min":33,"x_max":1061,"o":"m 179 840 q 33 486 33 697 q 179 131 33 276 q 547 -14 328 -14 q 914 131 767 -14 q 1061 486 1061 276 q 914 840 1061 697 q 547 986 768 986 q 179 840 328 986 m 544 226 q 263 254 453 226 l 263 389 l 299 381 q 513 357 401 357 q 654 406 654 357 q 515 447 654 447 q 344 432 460 447 l 268 469 l 268 735 l 819 735 l 819 604 l 440 603 l 440 532 q 443 531 442 532 q 640 569 519 569 q 790 528 728 569 q 854 404 854 489 q 776 272 854 318 q 544 226 697 226 "},"➏":{"ha":1094,"x_min":33,"x_max":1061,"o":"m 179 840 q 33 486 33 697 q 179 131 33 276 q 547 -14 328 -14 q 914 131 767 -14 q 1061 486 1061 276 q 914 840 1061 697 q 547 986 768 986 q 179 840 328 986 m 560 228 q 315 294 404 228 q 228 481 226 361 q 331 672 228 601 q 599 744 433 744 q 811 718 744 744 l 811 583 l 788 592 q 610 617 715 617 q 495 597 540 617 q 439 543 450 576 l 440 542 l 442 542 q 592 569 529 569 q 794 527 721 569 q 867 408 867 485 q 778 272 867 318 q 560 228 689 228 m 551 467 q 468 453 500 467 q 436 418 436 440 q 467 378 436 393 q 551 363 499 363 q 636 378 606 363 q 667 418 667 393 q 551 467 667 467 "},"➐":{"ha":1094,"x_min":33,"x_max":1061,"o":"m 179 840 q 33 486 33 697 q 179 131 33 276 q 547 -14 328 -14 q 914 131 767 -14 q 1061 486 1061 276 q 914 840 1061 697 q 547 986 768 986 q 179 840 328 986 m 550 218 l 325 218 l 600 586 l 600 589 l 290 589 l 290 721 q 826 719 408 719 l 826 607 l 550 218 "},"➑":{"ha":1094,"x_min":33,"x_max":1061,"o":"m 179 840 q 33 486 33 697 q 179 131 33 276 q 547 -14 328 -14 q 914 131 767 -14 q 1061 486 1061 276 q 914 840 1061 697 q 547 986 768 986 q 179 840 328 986 m 309 267 q 222 378 222 307 q 361 500 222 465 l 361 504 q 246 610 246 536 q 327 708 246 672 q 547 744 408 744 q 767 708 686 744 q 849 610 849 672 q 732 503 849 536 l 732 500 q 835 451 799 483 q 871 376 872 419 q 785 267 871 306 q 547 228 699 228 q 352 248 396 228 q 309 267 309 267 m 676 401 q 641 439 676 424 q 547 454 606 454 q 453 439 490 454 q 424 386 403 417 q 547 349 449 349 q 640 364 606 349 q 676 401 675 379 m 547 543 q 622 555 592 543 q 651 583 651 567 q 622 613 651 601 q 547 625 593 625 q 472 613 501 625 q 443 585 443 601 q 472 555 443 567 q 547 543 501 543 "},"➒":{"ha":1094,"x_min":33,"x_max":1061,"o":"m 179 840 q 33 486 33 697 q 179 131 33 276 q 547 -14 328 -14 q 914 131 767 -14 q 1061 486 1061 276 q 914 840 1061 697 q 547 986 768 986 q 179 840 328 986 m 494 228 q 283 254 350 228 l 283 389 l 307 381 q 485 356 379 356 q 599 375 553 356 q 656 428 644 394 l 653 431 q 501 403 574 403 q 300 445 372 403 q 228 564 228 488 q 315 699 228 656 q 535 744 406 744 q 778 678 690 744 q 867 492 867 611 q 763 300 867 372 q 494 228 660 228 m 543 610 q 458 594 489 610 q 428 554 428 579 q 543 506 428 506 q 625 518 593 504 q 657 554 657 532 q 625 594 657 578 q 543 610 593 610 "},"":{"ha":440,"x_min":7,"x_max":432,"o":"m 65 -142 q 7 -274 7 -190 q 61 -401 7 -353 q 190 -451 117 -451 l 183 -465 q 154 -502 178 -481 q 101 -536 131 -524 l 200 -658 q 361 -524 292 -624 q 432 -301 432 -425 q 374 -150 432 -206 q 219 -94 315 -94 q 94 -118 124 -94 q 65 -142 65 -142 "},"":{"ha":0,"x_min":0,"x_max":0,"o":""},"ﬀ":{"ha":1799,"x_min":-6,"x_max":1818,"o":"m 1729 849 q 1818 847 1811 849 l 1818 1051 q 1663 1054 1729 1054 q 1122 789 1122 1054 l 1122 739 l 589 739 q 647 822 592 796 q 819 849 701 849 q 908 847 901 849 l 908 1051 q 753 1054 819 1054 q 213 789 213 1054 l 213 739 l -6 739 l -6 522 l 213 522 l 213 0 l 590 0 l 590 522 l 1122 522 l 1122 0 l 1500 0 l 1500 522 l 1818 522 l 1818 739 l 1499 739 q 1556 822 1501 796 q 1729 849 1611 849 "},"ﬁ":{"ha":1525,"x_min":10,"x_max":1425,"o":"m 835 849 q 924 847 917 849 l 924 1051 q 768 1054 835 1054 q 228 789 228 1054 l 228 739 l 10 739 l 10 522 l 228 522 l 228 0 l 606 0 l 606 522 l 924 522 l 924 739 l 604 739 q 662 822 607 796 q 835 849 717 849 m 1035 0 l 1413 0 l 1413 739 l 1035 739 l 1035 0 m 1222 807 q 1370 851 1315 806 q 1425 976 1425 897 q 1371 1101 1425 1056 q 1224 1147 1317 1147 q 1076 1101 1131 1147 q 1021 976 1021 1056 q 1075 852 1021 897 q 1222 807 1129 807 "},"ﬂ":{"ha":1519,"x_min":10,"x_max":1419,"o":"m 835 849 q 924 847 917 849 l 924 1051 q 768 1054 835 1054 q 228 789 228 1054 l 228 739 l 10 739 l 10 522 l 228 522 l 228 0 l 606 0 l 606 522 l 924 522 l 924 739 l 604 739 q 662 822 607 796 q 835 849 717 849 m 1042 0 l 1419 0 l 1419 1014 l 1042 1014 l 1042 0 "}}}
